<svg id="Group_2544" data-name="Group 2544" xmlns="http://www.w3.org/2000/svg" width="12.286" height="12.286" viewBox="0 0 12.286 12.286">
  <g id="Group_1206" data-name="Group 1206" transform="translate(0)">
    <g id="Group_1205" data-name="Group 1205">
      <rect id="Rectangle_1545" data-name="Rectangle 1545" width="12.286" height="12.286" fill="none"/>
      <path id="Path_2338" data-name="Path 2338" d="M5.319,14.734V6.552A1.233,1.233,0,0,1,6.552,5.319h8.181a1.233,1.233,0,0,1,1.233,1.233v8.181a1.231,1.231,0,0,1-1.224,1.233H6.555a.41.41,0,0,0,0,.819h8.188a2.05,2.05,0,0,0,2.044-2.052V6.552A2.052,2.052,0,0,0,14.734,4.5H6.552A2.052,2.052,0,0,0,4.5,6.552v8.181a.41.41,0,1,0,.819,0Z" transform="translate(-4.5 -4.5)" fill="#4d4d4d"/>
      <rect id="Rectangle_1546" data-name="Rectangle 1546" width="0.819" height="6.553" rx="0.41" transform="translate(5.733 2.866)" fill="#4d4d4d"/>
      <path id="Path_2339" data-name="Path 2339" d="M14.143,11.5a.41.41,0,1,1,0,.819H8.41a.41.41,0,1,1,0-.819Z" transform="translate(-5.134 -5.766)" fill="#4d4d4d" fill-rule="evenodd"/>
    </g>
  </g>
</svg>
