<?xml version="1.0" ?><!DOCTYPE svg  PUBLIC '-//W3C//DTD SVG 1.1//EN'  'http://www.w3.org/Graphics/SVG/1.1/DTD/svg11.dtd'><svg enable-background="new 0 0 64 64" height="64px" version="1.1" viewBox="0 0 64 64" width="64px" xml:space="preserve" xmlns="http://www.w3.org/2000/svg" xmlns:xlink="http://www.w3.org/1999/xlink"><g id="Ebene_2"/><g id="Ebene_1"><g><path d="M32,24.5c0.276,0,0.5-0.224,0.5-0.5v-2c0-0.276-0.224-0.5-0.5-0.5s-0.5,0.224-0.5,0.5v2C31.5,24.276,31.724,24.5,32,24.5z    " stroke="#D1303A"/><path d="M41.646,25.646l-6.834,6.833c-0.007,0.007-0.009,0.016-0.016,0.023C34.026,31.885,33.062,31.5,32,31.5    c-2.481,0-4.5,2.019-4.5,4.5s2.019,4.5,4.5,4.5s4.5-2.019,4.5-4.5c0-1.062-0.386-2.027-1.004-2.798    c0.008-0.007,0.017-0.009,0.023-0.016l6.834-6.833c0.195-0.195,0.195-0.512,0-0.707S41.842,25.451,41.646,25.646z M32,39.5    c-1.93,0-3.5-1.57-3.5-3.5s1.57-3.5,3.5-3.5s3.5,1.57,3.5,3.5S33.93,39.5,32,39.5z" stroke="#D1303A"/><path d="M32,15.5C18.491,15.5,7.5,26.491,7.5,40v8c0,0.276,0.224,0.5,0.5,0.5h48c0.276,0,0.5-0.224,0.5-0.5v-8    C56.5,26.491,45.51,15.5,32,15.5z M55.5,47.5h-47V40c0-12.958,10.542-23.5,23.5-23.5S55.5,27.042,55.5,40V47.5z" stroke="#D1303A"/><path d="M47.5,36c0,0.276,0.224,0.5,0.5,0.5h2c0.276,0,0.5-0.224,0.5-0.5s-0.224-0.5-0.5-0.5h-2C47.724,35.5,47.5,35.724,47.5,36z    " stroke="#D1303A"/><path d="M16,35.5h-2c-0.276,0-0.5,0.224-0.5,0.5s0.224,0.5,0.5,0.5h2c0.276,0,0.5-0.224,0.5-0.5S16.276,35.5,16,35.5z" stroke="#D1303A"/></g></g></svg>