<?xml version="1.0" ?><!DOCTYPE svg  PUBLIC '-//W3C//DTD SVG 1.1//EN'  'http://www.w3.org/Graphics/SVG/1.1/DTD/svg11.dtd'><svg enable-background="new 0 0 33 33" height="33px" id="Layer_1" version="1.1" viewBox="0 0 33 33" width="33px" xml:space="preserve" xmlns="http://www.w3.org/2000/svg" xmlns:xlink="http://www.w3.org/1999/xlink"><g><path d="M2.172,11.662h20.546c0.922,0,1.672-0.749,1.672-1.67V7.617c0-0.921-0.75-1.671-1.672-1.671H2.172   C1.25,5.946,0.5,6.696,0.5,7.617v2.375C0.5,10.913,1.25,11.662,2.172,11.662z M0.992,7.617c0-0.649,0.529-1.179,1.18-1.179h20.546   c0.65,0,1.179,0.529,1.179,1.179v2.375c0,0.649-0.528,1.178-1.179,1.178H2.172c-0.65,0-1.18-0.528-1.18-1.178V7.617z" fill="#000000"/><rect fill="#000000" height="0.492" width="9.027" x="13.144" y="8.558"/><path d="M3.109,9.908h0.689h0.689c0.312,0,0.538-0.349,0.538-0.83V8.531c0-0.479-0.227-0.828-0.538-0.828H3.799   H3.109c-0.312,0-0.537,0.349-0.537,0.828v0.547C2.572,9.559,2.798,9.908,3.109,9.908z M3.064,8.531c0-0.21,0.066-0.316,0.09-0.337   h0.645h0.645c0.023,0.021,0.09,0.127,0.09,0.337v0.547c0,0.185-0.051,0.3-0.079,0.338H3.799H3.145   c-0.029-0.038-0.08-0.153-0.08-0.338V8.531z" fill="#000000"/><path d="M6.29,9.908h0.689h0.689c0.312,0,0.538-0.349,0.538-0.83V8.531c0-0.479-0.227-0.828-0.538-0.828H6.979H6.29   c-0.312,0-0.537,0.349-0.537,0.828v0.547C5.753,9.559,5.979,9.908,6.29,9.908z M6.245,8.531c0-0.21,0.066-0.316,0.091-0.337h0.644   h0.645c0.024,0.021,0.091,0.127,0.091,0.337v0.547c0,0.185-0.052,0.3-0.08,0.338H6.979H6.325c-0.029-0.038-0.08-0.153-0.08-0.338   V8.531z" fill="#000000"/><path d="M7.669,14.423H6.979H6.29c-0.312,0-0.537,0.35-0.537,0.829v0.546c0,0.482,0.226,0.831,0.537,0.831h0.689   h0.689c0.312,0,0.538-0.349,0.538-0.831v-0.546C8.207,14.773,7.98,14.423,7.669,14.423z M7.715,15.798   c0,0.185-0.052,0.3-0.08,0.339H6.979H6.325c-0.029-0.039-0.08-0.154-0.08-0.339v-0.546c0-0.211,0.066-0.317,0.091-0.338h0.644   h0.645c0.024,0.021,0.091,0.127,0.091,0.338V15.798z" fill="#000000"/><path d="M4.488,14.423H3.799H3.109c-0.312,0-0.537,0.35-0.537,0.829v0.546c0,0.482,0.226,0.831,0.537,0.831h0.689   h0.689c0.312,0,0.538-0.349,0.538-0.831v-0.546C5.026,14.773,4.8,14.423,4.488,14.423z M4.533,15.798   c0,0.185-0.051,0.3-0.079,0.339H3.799H3.145c-0.029-0.039-0.08-0.154-0.08-0.339v-0.546c0-0.211,0.066-0.317,0.09-0.338h0.645   h0.645c0.023,0.021,0.09,0.127,0.09,0.338V15.798z" fill="#000000"/><path d="M31.748,14.321c-0.694-0.351-3.51-1.598-5.127-2.309c-0.186-0.082-0.496-0.219-0.809-0.219h-0.071   c-0.313,0-0.621,0.137-0.806,0.219c-0.485,0.213-1.08,0.476-1.69,0.747c-0.169-0.057-0.344-0.093-0.527-0.093H2.172   c-0.922,0-1.672,0.75-1.672,1.673v2.375c0,0.92,0.75,1.668,1.672,1.668h10.027v3.424h-1.482c-0.612,0-1.11,0.484-1.11,1.082v0.441   H0.5v0.492h9.106v0.439c0,0.598,0.498,1.084,1.11,1.084h3.457c0.611,0,1.109-0.486,1.109-1.084v-0.439h6.271   c0.84,1.25,1.954,2.348,3.44,3.059c0.24,0.115,0.498,0.174,0.778,0.174c0,0,0,0,0.002,0h0.016c0.271,0,0.53-0.059,0.771-0.174   c4.825-2.311,5.758-8.66,5.935-11.283C32.535,15.021,32.283,14.591,31.748,14.321z M2.172,17.891c-0.65,0-1.18-0.527-1.18-1.176   v-2.375c0-0.651,0.529-1.181,1.18-1.181h20.176c-1.12,0.5-2.155,0.969-2.54,1.163c-0.429,0.217-0.667,0.541-0.728,0.957h-5.937   v0.492h5.931c0.044,0.577,0.124,1.305,0.267,2.12H2.172z M14.791,24.262c0,0.326-0.276,0.592-0.617,0.592h-3.457   c-0.341,0-0.618-0.266-0.618-0.592v-1.373c0-0.326,0.277-0.59,0.618-0.59h3.457c0.341,0,0.617,0.264,0.617,0.59V24.262z    M15.283,23.33v-0.441c0-0.598-0.498-1.082-1.109-1.082h-1.482v-3.424h6.742c0.312,1.559,0.86,3.346,1.817,4.947H15.283z    M25.53,26.535c-0.111-0.02-0.22-0.049-0.322-0.098c-2.85-1.365-4.272-4.244-4.985-6.84h5.308V26.535z M25.53,19.105h-5.433   c-0.341-1.396-0.488-2.678-0.547-3.54c-0.025-0.377,0.122-0.625,0.479-0.805c0.686-0.346,3.492-1.589,5.104-2.299   c0.107-0.048,0.251-0.1,0.396-0.136V19.105z M26.348,26.438c-0.103,0.049-0.212,0.08-0.324,0.1v-6.939h5.311   C30.621,22.193,29.197,25.072,26.348,26.438z M31.459,19.105h-5.436v-6.779c0.146,0.035,0.292,0.088,0.399,0.136   c1.612,0.71,4.419,1.953,5.104,2.299c0.356,0.179,0.504,0.428,0.479,0.805C31.947,16.427,31.801,17.709,31.459,19.105z" fill="#000000"/></g></svg>