<?xml version="1.0" ?><!DOCTYPE svg  PUBLIC '-//W3C//DTD SVG 1.1//EN'  'http://www.w3.org/Graphics/SVG/1.1/DTD/svg11.dtd'><svg enable-background="new 0 0 512 512" height="512px" id="icon" version="1.1" viewBox="0 0 512 512" width="512px" xml:space="preserve" xmlns="http://www.w3.org/2000/svg" xmlns:xlink="http://www.w3.org/1999/xlink"><path d="M478.832,172.511c-4.267-8.822-12.23-15.845-21.491-18.993c-9.263-3.254-19.857-2.604-28.665,1.756  c-8.806,4.252-15.83,12.184-18.975,21.49c-1.485,4.252-2.121,8.747-2.002,13.258l-100.216,21.688  c-1.148-4.783-2.754-9.475-4.933-13.879c-7.055-14.59-19.586-26.394-34.506-32.706l24.426-70.947  c5.512,0.863,11.29,0.031,16.287-2.436c6.474-3.117,11.649-8.96,13.95-15.771c2.394-6.81,1.907-14.574-1.271-21.036  c-3.116-6.492-8.956-11.653-15.771-13.969c-6.808-2.36-14.587-1.906-21.034,1.302c-6.477,3.117-11.654,8.959-13.953,15.77  c-2.391,6.811-1.907,14.575,1.268,21.021c2.425,5.04,6.479,9.247,11.35,11.972l-24.421,70.917  c-15.649-4.177-32.783-2.618-47.313,4.57c-0.543,0.258-1.024,0.575-1.574,0.862l-30.233-45.266  c6.414-4.04,11.438-10.306,13.891-17.479c2.875-8.294,2.299-17.768-1.574-25.637c-3.844-7.915-10.925-14.211-19.25-17.026  c-8.326-2.89-17.768-2.314-25.666,1.573c-7.9,3.8-14.196,10.913-17.014,19.236c-2.903,8.309-2.329,17.769,1.574,25.637  c3.783,7.931,10.928,14.227,19.222,17.042c6.326,2.209,13.346,2.39,19.795,0.62l30.967,46.385  c-10.022,7.205-18.014,17.163-22.854,28.527L76.72,165.837c0.364-3.784-0.303-7.688-1.998-11.094  c-2.36-4.903-6.779-8.808-11.924-10.563c-5.116-1.802-11.019-1.424-15.892,0.983c-4.904,2.361-8.808,6.765-10.534,11.925  c-1.815,5.131-1.423,11.019,0.971,15.891c2.361,4.889,6.777,8.81,11.924,10.549c5.145,1.787,11.019,1.423,15.892-0.983  c3.418-1.65,6.359-4.314,8.415-7.521l102.123,35.155c-4.175,15.648-2.632,32.78,4.54,47.31c0.938,1.907,1.968,3.738,3.056,5.539  l-84.476,66.786c-4.298-4.085-9.413-7.324-15.013-9.217c-10.171-3.557-21.734-2.845-31.391,1.924  c-9.653,4.661-17.342,13.347-20.793,23.531c-3.542,10.14-2.844,21.718,1.905,31.359c4.694,9.685,13.348,17.357,23.549,20.793  c10.142,3.558,21.703,2.86,31.357-1.921c9.658-4.646,17.373-13.335,20.798-23.519c3.57-10.155,2.842-21.718-1.908-31.358  c-0.667-1.422-1.483-2.785-2.332-4.101l83.967-66.394c6.929,8.354,15.797,15.058,25.783,19.295l-14.283,41.499  c-3.995-0.41-8.115,0.257-11.684,2.042c-5.087,2.451-9.142,7.023-10.93,12.35c-1.875,5.342-1.481,11.412,0.972,16.466  c2.453,5.085,7.05,9.142,12.378,10.941c5.328,1.862,11.412,1.483,16.466-1.014c5.085-2.436,9.142-7.006,10.926-12.35  c1.881-5.342,1.486-11.427-0.996-16.481c-1.753-3.602-4.57-6.673-7.962-8.792l14.286-41.513c12.926,3.452,26.848,2.967,39.5-1.377  l46.162,131.682c-5.661,3.057-10.142,8.279-12.197,14.375c-2.243,6.419-1.819,13.774,1.208,19.873  c2.965,6.144,8.477,11.003,14.922,13.195c6.417,2.257,13.771,1.802,19.888-1.209c6.112-2.967,10.985-8.491,13.196-14.937  c2.238-6.419,1.784-13.758-1.243-19.857c-2.933-6.145-8.473-11.017-14.89-13.197c-3.723-1.301-7.75-1.679-11.623-1.194  l-46.462-132.514c6.356-3.239,12.14-7.538,17.189-12.577l60.389,36.731c-0.397,0.817-0.788,1.649-1.063,2.527  c-1.874,5.312-1.512,11.396,1.001,16.465c2.45,5.069,7.023,9.112,12.35,10.928c5.325,1.861,11.438,1.482,16.463-1.014  c5.088-2.438,9.142-7.009,10.959-12.365c1.848-5.313,1.483-11.411-1.029-16.466c-2.45-5.069-7.02-9.11-12.38-10.927  c-5.293-1.861-11.383-1.498-16.433,1.014c-1.303,0.622-2.516,1.378-3.663,2.255l-60.113-36.595  c4.114-5.583,7.477-11.774,9.685-18.372c3.206-9.096,4.237-18.886,3.33-28.481l100.187-21.688c0.576,1.982,1.301,3.905,2.18,5.751  c4.271,8.854,12.197,15.876,21.491,19.023c9.292,3.239,19.854,2.589,28.663-1.771c8.837-4.251,15.86-12.182,18.979-21.489  C483.826,191.883,483.159,181.319,478.832,172.511z M280.697,74.806c-2.089-4.191-2.392-9.172-0.848-13.605  c1.512-4.435,4.842-8.173,9.049-10.201c4.208-2.072,9.172-2.375,13.59-0.831c4.423,1.514,8.173,4.813,10.201,9.02  c2.089,4.208,2.39,9.186,0.849,13.605c-1.513,4.449-4.816,8.173-9.022,10.216c-4.206,2.058-9.199,2.376-13.617,0.832  C286.476,82.328,282.725,79.027,280.697,74.806z M172.336,115.153c-5.629,2.754-12.286,3.179-18.217,1.119  c-5.938-2.027-10.963-6.462-13.654-12.092c-2.784-5.646-3.209-12.304-1.12-18.236c1.999-5.933,6.448-10.941,12.076-13.681  c5.629-2.754,12.288-3.163,18.224-1.12c5.933,2.028,10.956,6.478,13.679,12.106c2.754,5.615,3.18,12.305,1.122,18.223  C182.416,107.42,178,112.429,172.336,115.153z M66.519,167.471c-0.937,2.771-2.994,5.07-5.629,6.356  c-2.634,1.287-5.689,1.469-8.477,0.515c-2.753-0.938-5.083-2.996-6.354-5.629c-1.271-2.618-1.451-5.691-0.513-8.461  c0.968-2.784,2.997-5.084,5.627-6.356c2.634-1.285,5.723-1.482,8.477-0.515c2.753,0.938,5.085,2.981,6.356,5.601  C67.307,161.614,67.488,164.702,66.519,167.471z M100.059,369.601c-2.634,7.795-8.477,14.378-15.891,17.965  c-7.387,3.632-16.166,4.177-23.944,1.469c-7.811-2.635-14.377-8.477-17.947-15.892c-3.635-7.369-4.178-16.147-1.484-23.927  c2.663-7.794,8.475-14.394,15.892-17.979c7.384-3.631,16.163-4.161,23.94-1.454c7.808,2.635,14.379,8.478,17.979,15.892  C102.236,353.059,102.779,361.837,100.059,369.601z M209.414,356.979c-0.996,2.951-3.206,5.434-5.991,6.779  c-2.848,1.378-6.113,1.59-9.081,0.562c-2.935-1.014-5.417-3.209-6.779-6.009c-1.364-2.798-1.574-6.099-0.548-9.051  c1.001-2.949,3.211-5.417,5.998-6.794c2.813-1.362,6.111-1.574,9.048-0.545c2.966,1,5.45,3.194,6.811,6.008  C210.233,350.729,210.442,354.029,209.414,356.979z M314.838,431.848c3.845-1.892,8.383-2.179,12.44-0.757  c4.085,1.376,7.479,4.404,9.354,8.263c1.877,3.86,2.182,8.399,0.758,12.456c-1.362,4.069-4.421,7.477-8.268,9.338  c-3.842,1.906-8.41,2.193-12.438,0.771c-4.083-1.377-7.477-4.402-9.354-8.263c-1.905-3.858-2.178-8.399-0.755-12.455  C307.94,437.115,310.963,433.724,314.838,431.848z M358.063,318.024c0.996-2.952,3.206-5.418,5.988-6.78  c2.817-1.377,6.116-1.588,9.051-0.559c2.97,0.998,5.447,3.192,6.781,6.008c1.394,2.8,1.603,6.099,0.576,9.049  c-0.998,2.952-3.18,5.418-5.995,6.78c-2.813,1.378-6.116,1.59-9.049,0.545c-2.963-0.999-5.418-3.193-6.778-5.992  C357.244,324.274,357.032,320.991,358.063,318.024z M296.558,246.652c-4.935,14.482-15.801,26.771-29.604,33.431  c-13.71,6.765-30.085,7.779-44.555,2.725c-14.498-4.903-26.755-15.784-33.417-29.572c-6.778-13.741-7.776-30.102-2.751-44.569  c4.933-14.498,15.799-26.757,29.604-33.431c13.712-6.766,30.085-7.778,44.553-2.725c14.498,4.903,26.783,15.785,33.414,29.572  C300.581,215.81,301.612,232.199,296.558,246.652z M471.386,197.981c-2.331,6.916-7.507,12.758-14.078,15.937  c-6.566,3.223-14.346,3.707-21.218,1.302c-6.929-2.346-12.74-7.522-15.918-14.091c-3.241-6.538-3.693-14.315-1.3-21.218  c2.329-6.9,7.503-12.742,14.071-15.921c6.571-3.208,14.315-3.693,21.22-1.302c6.932,2.361,12.743,7.522,15.92,14.09  C473.322,183.316,473.777,191.095,471.386,197.981z" fill="#000000"/></svg>