<?xml version="1.0" ?><!DOCTYPE svg  PUBLIC '-//W3C//DTD SVG 1.1//EN'  'http://www.w3.org/Graphics/SVG/1.1/DTD/svg11.dtd'><svg enable-background="new 0 0 128 128" height="128px" id="Clear" version="1.1" viewBox="0 0 128 128" width="128px" xml:space="preserve" xmlns="http://www.w3.org/2000/svg" xmlns:xlink="http://www.w3.org/1999/xlink"><g id="Team"><path d="M20.6,16   c0.5-3.5,3.5-7,7.1-7h12.6c3.6,0,6.7,3.5,7.1,7" fill="none" stroke="#000000" stroke-linecap="round" stroke-miterlimit="10" stroke-width="2"/><path d="M35.4,43H16.5   C14,43,12,41,12,38.5v0c0-2.5,2-4.5,4.5-4.5h18.9" fill="none" stroke="#000000" stroke-linecap="round" stroke-miterlimit="10" stroke-width="2"/><path d="M35.4,34H16.5   C14,34,12,32,12,29.5v0c0-2.5,2-4.5,4.5-4.5h18.9" fill="none" stroke="#000000" stroke-linecap="round" stroke-miterlimit="10" stroke-width="2"/><path d="M35.4,25H16.5   C14,25,12,23,12,20.5v0c0-2.5,2-4.5,4.5-4.5c7.7,0,22.5,0,22.5,0h10.8c8,0,14.4,6.4,14.4,14.4v7.2c0,1.8-0.3,3.4-0.9,5   c-1,2.6-2.7,4.8-4.8,6.5c-2,1.5-3.9,2.5-6.5,2.8v13.6c0,1.8-1.4,3.3-2.9,4" fill="none" stroke="#000000" stroke-linecap="round" stroke-miterlimit="10" stroke-width="2"/><path d="M16,107.4   c-3.5-0.5-7-3.5-7-7.1V87.7c0-3.6,3.5-6.7,7-7.1" fill="none" stroke="#000000" stroke-linecap="round" stroke-miterlimit="10" stroke-width="2"/><line fill="none" stroke="#000000" stroke-linecap="round" stroke-miterlimit="10" stroke-width="2" x1="67.4" x2="52" y1="108" y2="108"/><path d="M43,92.6v18.9   c0,2.5-2,4.5-4.5,4.5h0c-2.5,0-4.5-2-4.5-4.5V92.6" fill="none" stroke="#000000" stroke-linecap="round" stroke-miterlimit="10" stroke-width="2"/><path d="M34,92.6v18.9   c0,2.5-2,4.5-4.5,4.5h0c-2.5,0-4.5-2-4.5-4.5V92.6" fill="none" stroke="#000000" stroke-linecap="round" stroke-miterlimit="10" stroke-width="2"/><path d="M64.7,86H52v25.5   c0,2.5-2,4.5-4.5,4.5h0c-2.5,0-4.5-2-4.5-4.5V92.6" fill="none" stroke="#000000" stroke-linecap="round" stroke-miterlimit="10" stroke-width="2"/><path d="M25,92.6v18.9   c0,2.5-2,4.5-4.5,4.5h0c-2.5,0-4.5-2-4.5-4.5c0-7.7,0-22.5,0-22.5V78.2c0-8,6.4-14.4,14.4-14.4h7.2c1.8,0,3.4,0.3,5,0.9   c2.6,1,4.8,2.7,6.5,4.8c1.5,2,2.5,4.9,2.8,7.5h13.6c1.8,0,3.3,0.4,4,1.9" fill="none" stroke="#000000" stroke-linecap="round" stroke-miterlimit="10" stroke-width="2"/><path d="M107.4,112   c-0.5,3.5-3.5,7-7.1,7H87.7c-3.6,0-6.7-3.5-7.1-7" fill="none" stroke="#000000" stroke-linecap="round" stroke-miterlimit="10" stroke-width="2"/><line fill="none" stroke="#000000" stroke-linecap="round" stroke-miterlimit="10" stroke-width="2" x1="108" x2="108" y1="60.6" y2="76"/><path d="M92.6,85h18.9   c2.5,0,4.5,2,4.5,4.5v0c0,2.5-2,4.5-4.5,4.5H92.6" fill="none" stroke="#000000" stroke-linecap="round" stroke-miterlimit="10" stroke-width="2"/><path d="M92.6,94h18.9   c2.5,0,4.5,2,4.5,4.5v0c0,2.5-2,4.5-4.5,4.5H92.6" fill="none" stroke="#000000" stroke-linecap="round" stroke-miterlimit="10" stroke-width="2"/><path d="M92.6,103h18.9   c2.5,0,4.5,2,4.5,4.5v0c0,2.5-2,4.5-4.5,4.5c-7.7,0-22.5,0-22.5,0H78.2c-8,0-14.4-6.4-14.4-14.4v-7.2c0-1.8,0.3-3.4,0.9-5   c1-2.6,2.7-4.8,4.8-6.5c2-1.5,3.9-2.5,6.5-2.8V62.5c0-1.8,1.4-3.3,2.9-4" fill="none" stroke="#000000" stroke-linecap="round" stroke-miterlimit="10" stroke-width="2"/><path d="M85,63.3V76h26.5   c2.5,0,4.5,2,4.5,4.5v0c0,2.5-2,4.5-4.5,4.5H92.6" fill="none" stroke="#000000" stroke-linecap="round" stroke-miterlimit="10" stroke-width="2"/><path d="M112,20.6   c3.5,0.5,7,3.5,7,7.1v12.6c0,3.6-3.5,6.7-7,7.1" fill="none" stroke="#000000" stroke-linecap="round" stroke-miterlimit="10" stroke-width="2"/><line fill="none" stroke="#000000" stroke-linecap="round" stroke-miterlimit="10" stroke-width="2" x1="60.6" x2="76" y1="21" y2="21"/><path d="M85,35.4V16.5   c0-2.5,2-4.5,4.5-4.5h0c2.5,0,4.5,2,4.5,4.5v18.9" fill="none" stroke="#000000" stroke-linecap="round" stroke-miterlimit="10" stroke-width="2"/><path d="M94,35.4V16.5   c0-2.5,2-4.5,4.5-4.5h0c2.5,0,4.5,2,4.5,4.5v18.9" fill="none" stroke="#000000" stroke-linecap="round" stroke-miterlimit="10" stroke-width="2"/><path d="M63.3,43H76V16.5   c0-2.5,2-4.5,4.5-4.5h0c2.5,0,4.5,2,4.5,4.5v18.9" fill="none" stroke="#000000" stroke-linecap="round" stroke-miterlimit="10" stroke-width="2"/><path d="M103,35.4V16.5   c0-2.5,2-4.5,4.5-4.5h0c2.5,0,4.5,2,4.5,4.5c0,7.7,0,22.5,0,22.5v10.8c0,8-6.4,14.4-14.4,14.4h-7.2c-1.8,0-3.4-0.3-5-0.9   c-2.6-1-4.8-2.7-6.5-4.8c-1.5-2-2.5-3.9-2.8-6.5H62.5c-1.8,0-3.3-1.4-4-2.9" fill="none" stroke="#000000" stroke-linecap="round" stroke-miterlimit="10" stroke-width="2"/><line fill="none" stroke="#000000" stroke-linecap="round" stroke-miterlimit="10" stroke-width="2" x1="20" x2="20" y1="67.4" y2="52"/><path d="M43,64.7V52H16.5   C14,52,12,50,12,47.5v0c0-2.5,2-4.5,4.5-4.5h18.9" fill="none" stroke="#000000" stroke-linecap="round" stroke-miterlimit="10" stroke-width="2"/></g></svg>