<?xml version="1.0" ?><!DOCTYPE svg  PUBLIC '-//W3C//DTD SVG 1.1//EN'  'http://www.w3.org/Graphics/SVG/1.1/DTD/svg11.dtd'><svg enable-background="new 0 0 128 128" height="128px" id="Clear" version="1.1" viewBox="0 0 128 128" width="128px" xml:space="preserve" xmlns="http://www.w3.org/2000/svg" xmlns:xlink="http://www.w3.org/1999/xlink"><g id="Meeting"><path d="M65.3,109c-7.6,6.2-17.3,10-27.9,10   c-10.8,0-20.7-3.9-28.4-10.3" fill="none" stroke="#D1303A" stroke-miterlimit="10" stroke-width="2"/><path d="M50.1,61.9c0.7,4.5,1.5,8.8,1.5,8.8   c0.1,0.8,1.3,0.9,1.6,0.1l1.2-5.2c0.2-0.7,1-0.9,1.5-0.3l1.6,1.5c1.8,1.6,2.5,4.1,1.9,6.4l-0.5,1.8c-0.5,1.9-1.9,3.5-3.7,4.3   l-0.8,0.6c-0.9,0.8-1.7,1.8-2.1,2.9l-1.4,5.6c-0.3,1.3-1,2.4-2,3.3l-4.2,4c-1.5,1.3-3.4,2.3-5.5,2.3H34c-2,0-4-0.9-5.5-2.3L24.3,92   c-1-0.9-1.7-2.1-2-3.4L20.9,83c-0.4-1.1-1.1-2.2-2.1-2.9l-0.8-0.6c-1.8-0.8-3.2-2.4-3.7-4.3l-0.5-1.8c-0.6-2.3,0.1-4.8,1.9-6.4   l1.6-1.5c0.4-0.6,1.3-0.4,1.5,0.3l1.2,5.2c0.3,0.8,1.4,0.7,1.6-0.1l1.2-7.3c0.1-0.9,0.9-1.5,1.8-1.4c2.5,0.3,7.8,0.7,12.8-0.2   c3.9-0.8,7.3-3.2,9.5-5.3c1-0.9,2.6-0.3,2.7,1.1C49.7,58.9,49.8,60.4,50.1,61.9z" fill="none" stroke="#D1303A" stroke-miterlimit="10" stroke-width="2"/><path d="M58.3,68.1c0,0,1.4-9.5,0.2-13.3   c-1.4-6.3-5.7-2.6-6.1-3.5c-2.6-11.3-20.1-6.1-29.2-2.4c-2.8,1.1-5.6,5-6.1,6.8c-1.2,3.8-0.8,10.8-0.8,10.8" fill="none" stroke="#D1303A" stroke-miterlimit="10" stroke-width="2"/><path d="M65.1,108.8   c-6.2-4.8-15.7-5.7-20.5-5.7v-7.6v6.4c0,3.6-2,7.5-5.6,7.5h-4.9c-3.6,0-7.1-3.9-7.1-7.5v-7.8v9c-4,0-11.7,0.8-17.9,5.6" fill="none" stroke="#D1303A" stroke-linecap="round" stroke-miterlimit="10" stroke-width="2"/><path d="M85.4,71.2c0.4,2.2,0.7,4.2,0.7,4.2   c0.1,0.4,0.6,0.4,0.8,0.1l0.6-2.5c0.1-0.3,0.5-0.4,0.7-0.1l0.8,0.7c0.8,0.8,1.2,2,0.9,3.1l-0.2,0.9c-0.2,0.9-0.9,1.7-1.8,2.1   l-0.4,0.3c-0.5,0.4-0.8,0.8-1,1.4L85.7,84c-0.1,0.6-0.5,1.2-0.9,1.6l-2,1.9c-0.7,0.6-1.7,1.1-2.6,1.1h-2.5c-1,0-1.9-0.4-2.6-1.1   l-2-1.9c-0.5-0.4-0.8-1-0.9-1.6l-0.6-2.7c-0.2-0.5-0.5-1-1-1.4L70,79.6c-0.9-0.4-1.5-1.1-1.8-2.1L68,76.7c-0.3-1.1,0-2.3,0.9-3.1   l0.8-0.7c0.2-0.3,0.6-0.2,0.7,0.1l0.6,2.5c0.1,0.4,0.7,0.3,0.8-0.1l0.6-3.5c0.1-0.4,0.5-0.7,0.9-0.6c1.2,0.2,3.7,0.4,6.2-0.1   c1.9-0.4,3.5-1.6,4.6-2.5c0.5-0.4,1.3-0.1,1.3,0.5C85.2,69.8,85.2,70.4,85.4,71.2z" fill="none" stroke="#D1303A" stroke-miterlimit="10" stroke-width="2"/><path d="M89.3,74.1c0,0,0.7-4.6,0.1-6.4   c-0.7-3-2.7-1.2-2.9-1.7c-1.3-5.4-9.7-2.9-14-1.2c-1.3,0.5-2.7,2.4-2.9,3.2c-0.6,1.8-0.4,5.2-0.4,5.2" fill="none" stroke="#D1303A" stroke-miterlimit="10" stroke-width="2"/><path d="M111.4,71.2c0.4,2.2,0.7,4.2,0.7,4.2   c0.1,0.4,0.6,0.4,0.8,0.1l0.6-2.5c0.1-0.3,0.5-0.4,0.7-0.1l0.8,0.7c0.8,0.8,1.2,2,0.9,3.1l-0.2,0.9c-0.2,0.9-0.9,1.7-1.8,2.1   l-0.4,0.3c-0.5,0.4-0.8,0.8-1,1.4l-0.6,2.7c-0.1,0.6-0.5,1.2-0.9,1.6l-2,1.9c-0.7,0.6-1.7,1.1-2.6,1.1h-2.5c-1,0-1.9-0.4-2.6-1.1   l-2-1.9c-0.5-0.4-0.8-1-0.9-1.6l-0.6-2.7c-0.2-0.5-0.5-1-1-1.4L96,79.6c-0.9-0.4-1.5-1.1-1.8-2.1L94,76.7c-0.3-1.1,0-2.3,0.9-3.1   l0.8-0.7c0.2-0.3,0.6-0.2,0.7,0.1l0.6,2.5c0.1,0.4,0.7,0.3,0.8-0.1l0.6-3.5c0.1-0.4,0.5-0.7,0.9-0.6c1.2,0.2,3.7,0.4,6.2-0.1   c1.9-0.4,3.5-1.6,4.6-2.5c0.5-0.4,1.3-0.1,1.3,0.5C111.2,69.8,111.2,70.4,111.4,71.2z" fill="none" stroke="#D1303A" stroke-miterlimit="10" stroke-width="2"/><path d="M115.3,74.1c0,0,0.7-4.6,0.1-6.4   c-0.7-3-2.7-1.2-2.9-1.7c-1.3-5.4-9.7-2.9-14-1.2c-1.3,0.5-2.7,2.4-2.9,3.2c-0.6,1.8-0.4,5.2-0.4,5.2" fill="none" stroke="#D1303A" stroke-miterlimit="10" stroke-width="2"/><path d="M65.5,93.6   c3-2.3,6.5-2.7,8.5-2.7v-4.3v3.7c0,1.7,2,3.6,3.7,3.6H80c1.7,0,3-1.9,3-3.6v-3.1V91c2,0,15,0,17,0v-4.4v3.7c0,1.7,2,3.6,3.7,3.6   h2.4c1.7,0,3-1.9,3-3.6v-3.1v3.6c2,0,6.7,0.5,9.7,2.8c0,6.2-12,11.2-26.6,11.2s-26.5-5-26.5-11.2" fill="none" stroke="#D1303A" stroke-linecap="round" stroke-miterlimit="10" stroke-width="2"/><path d="M70.9,32.7c0.4-0.4,0.9-0.7,1.5-0.7H109   c5.5,0,10-4.4,10-9.7v-3.5c0-5.4-4.5-9.7-10-9.7H55c-5.5,0-10,4.4-10,9.7v3.5c0,5.4,4.5,9.7,10,9.7h2.1c1.1,0,2,0.9,2,2v9.5   L70.9,32.7z" fill="none" stroke="#D1303A" stroke-miterlimit="10" stroke-width="2"/></g></svg>