<?xml version="1.0" encoding="UTF-8"?>
<svg width="18px" height="10px" viewBox="0 0 18 10" version="1.1" xmlns="http://www.w3.org/2000/svg" xmlns:xlink="http://www.w3.org/1999/xlink">
    <!-- Generator: Sketch 50.2 (55047) - http://www.bohemiancoding.com/sketch -->
    <title>arrow_filter_active</title>
    <desc>Created with Sketch.</desc>
    <defs></defs>
    <g id="UI--Category_Rearch-Result-Page-Copy" stroke="none" stroke-width="1" fill="none" fill-rule="evenodd">
        <g id="VS01-Filter-Open" transform="translate(-639.000000, -180.000000)" fill="#D13239">
            <g id="arrow_filter_active" transform="translate(639.000000, 180.000000)">
                <g id="6A" transform="translate(9.000000, 5.000000) scale(-1, -1) rotate(90.000000) translate(-9.000000, -5.000000) translate(4.000000, -4.000000)">
                    <g id="arrow">
                        <path d="M0.9165,17.9955 C0.7265,17.9955 0.536,17.9235 0.39,17.78 C0.095,17.4895 0.0915,17.0145 0.382,16.719 L7.77,9.214 L0.382,1.709 C0.0915,1.414 0.095,0.939 0.39,0.6485 C0.6855,0.358 1.1605,0.362 1.4505,0.6565 L9.357,8.688 C9.644,8.98 9.644,9.448 9.357,9.74 L1.4505,17.7715 C1.304,17.9205 1.11,17.9955 0.9165,17.9955" id="6A"></path>
                    </g>
                </g>
            </g>
        </g>
    </g>
</svg>