<?xml version="1.0" ?><!DOCTYPE svg  PUBLIC '-//W3C//DTD SVG 1.1//EN'  'http://www.w3.org/Graphics/SVG/1.1/DTD/svg11.dtd'><svg enable-background="new 0 0 128 128" height="128px" id="Clear" version="1.1" viewBox="0 0 128 128" width="128px" xml:space="preserve" xmlns="http://www.w3.org/2000/svg" xmlns:xlink="http://www.w3.org/1999/xlink"><g id="Social_media_cloud"><path d="M31,85H19.8   h-0.1C13.8,85,9,79.4,9,73.4c0-8.3,6.6-14.5,14.8-14.5c0-15.8,12.6-29.7,28.1-29.7c10.7,0,20,6.1,24.7,15" fill="none" id="Cloud_9_" stroke="#D1303A" stroke-linecap="round" stroke-miterlimit="10" stroke-width="2"/><line fill="none" id="Cloud_10_" stroke="#D1303A" stroke-linecap="round" stroke-miterlimit="10" stroke-width="2" x1="85" x2="44" y1="85" y2="85"/><path d="M57,29.7   c1.2-9.3,9.2-16.5,18.9-16.5c8.9,0,16.2,7.2,16.2,16.2c14.8,0,26.8,12.5,26.8,27.6c0,13.6-9.7,25.5-22.5,27.6" fill="none" id="Cloud_8_" stroke="#D1303A" stroke-linecap="round" stroke-miterlimit="10" stroke-width="2"/><path d="M86.4,93.5   c-3.5,9-12.2,15.4-22.4,15.4c-12.2,0-22.3-8.9-23.8-20.9h6.2l-9.2-9.5L28,87.9l6.2,0c1.5,15.1,14.3,26.9,29.8,26.9   c12.9,0,23.8-8.1,28.1-19.5L86.4,93.5z" fill="none" stroke="#D1303A" stroke-linecap="round" stroke-miterlimit="10" stroke-width="2"/><path d="M93.7,81   c-2-15-14.5-26.1-29.7-26.1c-12.6,0-23.4,7.8-27.9,18.8l5.5,2.3c3.5-8.9,12.2-15.1,22.3-15.1c11.9,0,21.8,9.1,23.7,20.1h-6.1   l9.2,9.4L100,81H93.7z" fill="none" stroke="#D1303A" stroke-linecap="round" stroke-miterlimit="10" stroke-width="2"/></g></svg>