<?xml version="1.0" ?><!DOCTYPE svg  PUBLIC '-//W3C//DTD SVG 1.1//EN'  'http://www.w3.org/Graphics/SVG/1.1/DTD/svg11.dtd'><svg enable-background="new 0 0 512 512" height="512px" id="icon" version="1.1" viewBox="0 0 512 512" width="512px" xml:space="preserve" xmlns="http://www.w3.org/2000/svg" xmlns:xlink="http://www.w3.org/1999/xlink"><g><path d="M83.291,180.011c12.815,0.065,25.577-5.231,34.606-14.336c9.104-9.021,14.39-21.777,14.326-34.598   c0.064-12.821-5.221-25.583-14.326-34.606c-9.029-9.104-21.78-14.396-34.606-14.331c-12.826-0.06-25.577,5.227-34.606,14.331   c-9.104,9.023-14.401,21.779-14.336,34.601c-0.064,12.826,5.232,25.582,14.336,34.604   C57.713,174.779,70.464,180.076,83.291,180.011z M53.657,101.449c7.756-7.805,18.63-12.319,29.633-12.271   c11.003-0.048,21.877,4.461,29.633,12.271c7.799,7.745,12.319,18.624,12.265,29.628c0.054,10.998-4.466,21.877-12.276,29.625   c-7.746,7.81-18.63,12.319-29.623,12.265c-11.003,0.055-21.877-4.466-29.633-12.265c-7.81-7.748-12.319-18.627-12.275-29.631   C41.338,120.073,45.848,109.194,53.657,101.449z" fill="#D1303A"/><path d="M92.611,188.717c0.042,0.011,0.075,0.021,0.107,0.032c0.076,0.021,0.151,0.032,0.227,0.054L92.611,188.717z   " fill="#D1303A"/><path d="M234.078,232.126h-84.142l-23.819-19.493l-12.384-10.141c-1.036-0.896-2.168-1.65-2.697-2.319   c-0.992-1.057-2.05-2.049-3.139-3.01c-2.13-1.828-4.455-3.454-6.897-4.843c-0.005-0.003-0.015-0.007-0.018-0.011   c-2.47-1.684-5.296-2.924-8.263-3.561c-3.711-1.144-7.583-1.801-11.467-1.909l-11.036-0.032c-3.657,0.054-7.163-0.141-11.251,0.205   c-3.948,0.41-7.854,1.305-11.542,2.783c-14.897,5.717-25.836,20.345-26.958,36.289c-0.323,29.708-0.086,58.435-0.162,87.701v21.855   c-0.216,7.713,1.758,15.879,5.782,22.686c3.981,6.873,9.903,12.59,16.904,16.322c6.893,3.819,15.308,5.351,22.75,5.026h10.928   c1.823,0,3.603,0.021,5.674-0.075l2.514-0.216h2.729h21.855h40.194v117.368h51.5V330.021h-78.274V272.61v-1.876l0.011,0.01   l0.755,0.539l1.931,1.134c1.338,0.679,2.719,1.263,4.153,1.683c2.859,0.863,5.879,1.154,8.846,0.896   c0.119-0.011,0.162-0.011,0.206-0.011c0.009,0,0.019,0,0.053,0l1.111,0.118c1.068,0.075,1.392,0.021,2.115,0.032h3.808h7.615   h15.243h60.927h3.808c1.273,0,2.967-0.065,4.412-0.345c2.988-0.528,5.869-1.683,8.371-3.409c5.017-3.431,8.458-9.051,9.18-15.103   c0.788-6.008-1.154-12.362-5.221-16.872C246.192,234.844,240.162,232.093,234.078,232.126z M248.425,255.415   c-0.486,4.057-2.805,7.843-6.181,10.162c-1.683,1.165-3.614,1.931-5.621,2.287c-1.057,0.183-1.909,0.227-3.182,0.237h-3.808   h-60.927c-10.292-0.055-20.021,0.118-30.766-0.119c-2.093,0.185-4.218-0.021-6.214-0.614c-1.003-0.302-1.963-0.712-2.902-1.176   l-1.348-0.798l-2.298-1.77l-5.912-4.769l-2.955-2.384c-0.712-0.862-0.432,0.366-0.486,0.885v1.897v13.355v64.455H194.1v152.653   h-37.432V372.353h-47.228H87.584h-2.729l-2.935,0.226c-1.564,0.087-3.43,0.075-5.253,0.065H65.739   c-7.087,0.258-13.484-1.004-19.438-4.197c-5.847-3.128-10.809-7.907-14.132-13.656c-3.355-5.771-5.005-12.287-4.833-19.148v-21.855   c0.065-29.007-0.129-58.565,0.141-87.119c0.928-13.301,10.086-25.555,22.524-30.323c3.085-1.229,6.343-1.985,9.633-2.319   c3.171-0.292,6.969-0.13,10.583-0.173l10.831,0.021c3.322,0.098,6.612,0.647,9.784,1.64l0.172,0.055l0.162,0.032   c2.093,0.442,4.088,1.316,5.89,2.546l0.129,0.097l0.151,0.086c2.114,1.176,4.11,2.578,5.955,4.164   c0.917,0.798,1.813,1.629,2.644,2.524c1.208,1.381,2.384,2.05,3.333,2.924l12.395,10.14l25.76,21.079h86.656   c4.11-0.011,8.123,1.834,10.831,4.908C247.659,247.109,248.954,251.338,248.425,255.415z" fill="#D1303A"/><path d="M100.995,192.317c0.001,0.001,0.003,0.002,0.005,0.003c0.011,0.007,0.021,0.014,0.036,0.021   L100.995,192.317z" fill="#D1303A"/><path d="M428.716,180.011c12.815,0.065,25.577-5.231,34.596-14.336c9.115-9.021,14.401-21.777,14.337-34.604   c0.064-12.821-5.222-25.577-14.337-34.601c-9.019-9.104-21.78-14.391-34.606-14.331c-12.815-0.064-25.577,5.227-34.595,14.331   c-9.116,9.023-14.401,21.785-14.337,34.606c-0.064,12.82,5.232,25.576,14.337,34.598   C403.128,174.779,415.89,180.076,428.716,180.011z M399.084,101.449c7.744-7.811,18.629-12.319,29.621-12.271   c11.004-0.048,21.888,4.467,29.634,12.271c7.81,7.745,12.329,18.624,12.275,29.622c0.054,11.004-4.466,21.883-12.275,29.631   c-7.746,7.799-18.63,12.319-29.623,12.265c-11.003,0.055-21.888-4.455-29.632-12.265c-7.811-7.748-12.32-18.627-12.277-29.625   C386.764,120.073,391.273,109.194,399.084,101.449z" fill="#D1303A"/><path d="M419.051,188.803c0.075-0.021,0.151-0.032,0.226-0.054c0.044-0.011,0.077-0.021,0.108-0.032   L419.051,188.803z" fill="#D1303A"/><path d="M491.542,226.085c-1.132-15.944-12.061-30.572-26.957-36.289c-3.69-1.479-7.595-2.373-11.543-2.783   c-4.099-0.346-7.605-0.151-11.263-0.205l-11.025,0.032c-3.893,0.108-7.766,0.766-11.478,1.909   c-2.988,0.647-5.825,1.888-8.306,3.593c-2.438,1.391-4.746,2.999-6.871,4.821c-1.09,0.961-2.157,1.953-3.14,3.01   c-0.508,0.658-1.661,1.435-2.687,2.33l-12.395,10.141l-23.809,19.482h-84.152c-6.073-0.033-12.104,2.718-16.095,7.271   c-4.077,4.509-6.03,10.862-5.243,16.872c0.724,6.052,4.175,11.682,9.191,15.102c2.491,1.726,5.383,2.892,8.371,3.42   c1.435,0.279,3.129,0.345,4.401,0.345h3.809h60.938h15.23h7.616h3.809c0.733-0.011,1.058,0.043,2.125-0.032l1.11-0.118   c0.119,0,0.077,0,0.033-0.012c0.032,0.012,0.097,0.012,0.227,0.022c2.967,0.259,5.986-0.032,8.846-0.896   c1.435-0.42,2.814-1.014,4.153-1.683l1.931-1.134l0.755-0.549l0.011-0.012v1.888v57.411h-78.273v166.731h51.5V379.385h40.192   h21.856h2.74l2.503,0.216c2.082,0.097,3.861,0.075,5.674,0.075h10.927c7.443,0.324,15.869-1.207,22.751-5.026   c7.013-3.732,12.935-9.449,16.915-16.322c4.013-6.807,5.986-14.973,5.771-22.686v-21.855   C491.629,284.52,491.855,255.793,491.542,226.085z M484.66,313.786v21.855c0.173,6.861-1.467,13.377-4.833,19.148   c-3.322,5.749-8.274,10.528-14.132,13.656c-5.943,3.193-12.341,4.455-19.439,4.197h-10.927c-1.823,0.01-3.69,0.021-5.254-0.065   l-2.923-0.226h-2.74h-21.856h-47.227v117.366h-37.433V337.065h78.273V272.61v-13.355v-1.897c-0.053-0.528,0.227-1.726-0.485-0.874   l-2.955,2.384l-5.923,4.758l-2.287,1.77l-1.358,0.798c-0.928,0.464-1.889,0.874-2.892,1.176c-1.996,0.593-4.121,0.799-6.213,0.614   c-10.745,0.237-20.476,0.064-30.766,0.119h-60.938h-3.809c-1.262-0.011-2.114-0.055-3.172-0.237   c-2.006-0.356-3.948-1.133-5.62-2.298c-3.376-2.318-5.695-6.095-6.181-10.151c-0.528-4.077,0.766-8.306,3.517-11.348   c2.707-3.074,6.731-4.919,10.83-4.908h86.667l25.749-21.079l12.395-10.14c0.96-0.874,2.115-1.532,3.334-2.924   c0.83-0.896,1.727-1.727,2.643-2.524c1.845-1.586,3.84-2.988,5.955-4.175l0.14-0.075l0.13-0.097c1.813-1.229,3.809-2.104,5.9-2.546   l0.173-0.032l0.161-0.055c3.173-0.992,6.474-1.542,9.785-1.64l10.83-0.021c3.625,0.043,7.412-0.119,10.583,0.173   c3.301,0.334,6.559,1.09,9.633,2.319c12.449,4.769,21.607,17.022,22.535,30.323C484.789,255.221,484.595,284.779,484.66,313.786z" fill="#D1303A"/><path d="M410.96,192.342h0.011c0.086-0.054,0.173-0.119,0.27-0.173L410.96,192.342z" fill="#D1303A"/><path d="M162.438,113.962l-4.293,12.368l-9.515,27.458l4.213,2.92l24.666-18.98l11.229-8.641l1.251-0.961   l1.155,0.54c2.222,0.986,4.466,1.931,6.742,2.788c18.177,6.877,37.551,9.844,56.807,9.844c19.245-0.064,38.619-3.005,56.796-9.94   c2.275-0.863,4.509-1.817,6.73-2.815l1.09-0.507l1.284,0.992l11.219,8.662l22.438,17.319l5.469-3.953l-8.684-24.704L346.698,114   l-1.089-3.085l-0.234-0.692c0.269-0.276,2.235-2.368,3.33-3.72c5.912-7.108,10.184-16.154,10.723-25.776   c0.681-9.617-2.61-19.229-7.972-26.828c-10.949-15.361-27.648-24.342-44.391-30.254c-16.968-5.825-34.843-8.376-52.631-8.397   c-17.789,0.026-35.675,2.577-52.632,8.408c-16.742,5.917-33.441,14.897-44.39,30.265c-5.361,7.604-8.641,17.211-7.951,26.839   c0.583,9.66,4.962,18.636,10.885,25.717c0.755,0.88,1.499,1.77,2.297,2.601l1.058,1.121l0.032,0.032l-0.227,0.643L162.438,113.962z    M345.374,110.22l-0.001-0.001l0.021-0.021C345.383,110.209,345.382,110.212,345.374,110.22z M171.316,107.846l-2.189-2.173   l-0.809-0.82l-0.518-0.566c-0.723-0.739-1.37-1.526-2.039-2.303c-5.222-6.268-8.803-13.792-9.278-21.672   c-0.55-7.881,2.071-15.75,6.721-22.385c9.46-13.403,25.017-22.07,40.896-27.621c16.084-5.528,33.236-7.999,50.334-8.021   c17.087,0.017,34.25,2.486,50.334,8.01c15.878,5.545,31.435,14.213,40.905,27.61c4.649,6.635,7.271,14.499,6.731,22.396   c-0.452,7.901-3.938,15.458-9.136,21.73c-1.512,1.774-1.985,2.362-5.578,5.912c-0.593,0.302-0.313,0.841-0.107,1.364l0.55,1.542   l0.841,2.396l1.079,3.091l4.348,12.352l4.736,13.479l-13.021-10.048l-11.219-8.663l-4.325-3.333l-0.346-0.274   c-0.129,0.005-0.27,0.112-0.399,0.161l-0.798,0.372l-1.597,0.755l-2.125,1.004c-2.093,0.938-4.196,1.833-6.343,2.653   c-17.174,6.56-35.782,9.412-54.283,9.466c-18.49,0.006-37.087-2.869-54.293-9.38c-2.147-0.813-4.261-1.704-6.354-2.632l-2.061-0.96   l-1.597-0.75l-0.81-0.372c-0.27-0.146-0.539-0.317-0.755-0.016l-4.369,3.359l-11.229,8.642l-13.14,10.113l4.725-13.625   l4.283-12.373l1.079-3.091l0.852-2.454l0.529-1.548l0.27-0.771C171.726,108.196,171.478,108.035,171.316,107.846z" fill="#D1303A"/></g></svg>