<?xml version="1.0" ?><svg id="Icon" style="enable-background:new 194 -104 1000 1000;" version="1.1" viewBox="194 -104 1000 1000" xml:space="preserve" xmlns="http://www.w3.org/2000/svg" xmlns:xlink="http://www.w3.org/1999/xlink"><style type="text/css">
	.st0{fill:#D1303A;}
</style><g><path class="st0" d="M431.1,227.3c-3.3,0-6-2.7-6-6v-66.9c0-15.2,12.4-27.6,27.6-27.6h66.9c3.3,0,6,2.7,6,6s-2.7,6-6,6h-66.9   c-8.6,0-15.6,7-15.6,15.6v66.9C437.1,224.6,434.4,227.3,431.1,227.3z"/><path class="st0" d="M957.4,227.3c-3.3,0-6-2.7-6-6v-66.9c0-8.6-7-15.6-15.6-15.6h-66.9c-3.3,0-6-2.7-6-6s2.7-6,6-6h66.9   c15.2,0,27.6,12.4,27.6,27.6v66.9C963.4,224.6,960.7,227.3,957.4,227.3z"/><path class="st0" d="M935.7,665.1h-66.9c-3.3,0-6-2.7-6-6s2.7-6,6-6h66.9c8.6,0,15.6-7,15.6-15.6v-66.9c0-3.3,2.7-6,6-6s6,2.7,6,6   v66.9C963.4,652.7,951,665.1,935.7,665.1z"/><path class="st0" d="M519.6,665.1h-66.9c-15.2,0-27.6-12.4-27.6-27.6v-66.9c0-3.3,2.7-6,6-6s6,2.7,6,6v66.9c0,8.6,7,15.6,15.6,15.6   h66.9c3.3,0,6,2.7,6,6C525.6,662.4,522.9,665.1,519.6,665.1z"/><path class="st0" d="M546.9,327.8c-3.2,0-5.9-2.6-6-5.9c-0.5-18.9,11.4-56.9,34.2-90.2c19.9-29,54.4-63.8,105.8-65   c42.9-1.1,80.4,9.3,111.3,30.7c26.2,18.1,48.1,44,67.2,79.2c1.6,2.9,0.5,6.6-2.4,8.1c-2.9,1.6-6.6,0.5-8.1-2.4   c-39.2-72.5-92.5-105.4-167.6-103.6c-46.4,1.1-77.9,33.2-96.2,59.8c-22.7,33.1-32.4,68.5-32.1,83.1c0.1,3.3-2.5,6.1-5.9,6.1   C547,327.8,546.9,327.8,546.9,327.8z"/><path class="st0" d="M843.2,339.6c-2.2,0-4.3-1.2-5.3-3.2c-24-46-60.8-78.2-109.6-95.6c-36.3-13-65.7-12.4-66-12.4   c-3.3,0.1-6.1-2.5-6.1-5.9c-0.1-3.3,2.5-6.1,5.9-6.1c1.3,0,31.9-0.6,70.4,13.1c35.5,12.7,84.5,40.6,116.2,101.4   c1.5,2.9,0.4,6.6-2.5,8.1C845.1,339.3,844.2,339.6,843.2,339.6z"/><path class="st0" d="M837.1,498.8c-0.7,0-1.5-0.1-2.2-0.4c-5.5-2.2-134.4-53.4-153.7-115c-4.8-15.4-2.6-30.2,6.7-44   c8.9-13.3,20.5-20.8,34.5-22.3c37.7-4.2,85.1,35.6,126.5,75c2.4,2.3,2.5,6.1,0.2,8.5s-6.1,2.5-8.5,0.2   c-37.1-35.3-84-75.4-116.9-71.8c-10.5,1.2-18.9,6.7-25.8,17.1c-7.2,10.8-8.9,21.8-5.2,33.8C710.3,436,838,486.7,839.3,487.2   c3.1,1.2,4.6,4.7,3.4,7.8C841.8,497.4,839.5,498.8,837.1,498.8z"/><path class="st0" d="M846,451.8c-0.9,0-1.9-0.2-2.7-0.7c-3.4-1.7-83-42.9-111.6-73.3c-2.3-2.4-2.1-6.2,0.3-8.5   c2.4-2.3,6.2-2.1,8.5,0.3c27.2,28.9,107.5,70.5,108.3,70.9c2.9,1.5,4.1,5.1,2.6,8.1C850.3,450.6,848.2,451.8,846,451.8z"/><path class="st0" d="M824.5,541c-0.8,0-1.6-0.2-2.3-0.5c-3.5-1.5-87.3-37.2-133-70.6c-23.5-17.2-38.8-0.2-61.7,28.8   c-11.8,15-24.1,30.6-39.1,38.9c-2.9,1.6-6.6,0.6-8.2-2.3c-1.6-2.9-0.6-6.6,2.3-8.2c12.9-7.1,24.4-21.7,35.5-35.8   c20.7-26.3,44.2-56,78.2-31.1c44.6,32.6,129.8,68.9,130.6,69.3c3.1,1.3,4.5,4.8,3.2,7.9C829,539.6,826.8,541,824.5,541z"/><path class="st0" d="M609.7,593c-2,0-4-1-5.1-2.9c-1.7-2.8-0.9-6.5,2-8.3c17-10.5,25.2-23.1,32.4-34.2c9.5-14.6,18.5-28.4,43.2-29   c0.3,0,0.7,0,1,0c40.8,0,97.8,57.5,100.3,60c2.3,2.4,2.3,6.2-0.1,8.5c-2.4,2.3-6.2,2.3-8.5-0.1c-0.6-0.6-56.7-57.3-92.5-56.4   c-18.4,0.5-24.3,9.7-33.4,23.6c-7.5,11.6-16.9,26-36.2,37.9C611.9,592.7,610.8,593,609.7,593z"/><path class="st0" d="M648.5,631.7c-2,0-4-1-5.1-2.9c-1.7-2.8-0.9-6.5,2-8.3c8-4.9,12.8-11.6,17.4-18c6.5-9,13.3-18.4,27.3-18.7   c21.9-0.5,49,32.2,52,35.9c2.1,2.6,1.7,6.4-0.9,8.4c-2.6,2.1-6.4,1.7-8.4-0.9c-9.9-12.2-30-31.4-42.2-31.4c-0.1,0-0.2,0-0.3,0   c-7.7,0.2-11.4,4.8-17.9,13.8c-5.1,7-10.9,15-20.9,21.2C650.7,631.5,649.6,631.7,648.5,631.7z"/><path class="st0" d="M559.1,487.6c-2.1,0-4.2-1.1-5.3-3.2c-1.6-2.9-0.5-6.6,2.4-8.1c0.5-0.3,51-28.1,60.3-82.1   c10.2-59.1,28.9-96.9,55.8-112.4c16.9-9.8,36.7-10.6,58.9-2.4c3.1,1.1,4.7,4.6,3.6,7.7c-1.1,3.1-4.6,4.7-7.7,3.6   c-19-7-34.9-6.5-48.8,1.5c-23.6,13.6-40.4,48.6-50,104c-10.3,59.9-64.1,89.4-66.4,90.6C561,487.4,560.1,487.6,559.1,487.6z"/><path class="st0" d="M543.3,427.7c-1.9,0-3.7-0.9-4.9-2.5c-1.9-2.7-1.3-6.4,1.3-8.3c0.5-0.4,23.7-19.3,37.1-96.7   c7.4-42.6,38.9-64.7,40.2-65.6c2.7-1.9,6.5-1.2,8.3,1.6c1.9,2.7,1.2,6.5-1.6,8.3c-0.3,0.2-28.7,20.3-35.2,57.8   C574.2,406,548,425.8,546.8,426.6C545.8,427.4,544.6,427.7,543.3,427.7z"/></g></svg>