<?xml version="1.0" encoding="UTF-8"?>
<svg width="71px" height="67px" viewBox="0 0 71 67" version="1.1" xmlns="http://www.w3.org/2000/svg" xmlns:xlink="http://www.w3.org/1999/xlink">
    <!-- Generator: Sketch 50.2 (55047) - http://www.bohemiancoding.com/sketch -->
    <title>ic_storage_active</title>
    <desc>Created with Sketch.</desc>
    <defs></defs>
    <g id="Homepage" stroke="none" stroke-width="1" fill="none" fill-rule="evenodd">
        <g id="UI_hover2" transform="translate(-582.000000, -1235.000000)">
            <g id="ic_storage_active" transform="translate(582.000000, 1235.000000)">
                <path d="M63.5479583,48.259503 C56.8428958,51.2865119 46.6199524,53.022631 35.5002113,53.022631 C24.3811042,53.022631 14.1581607,51.2865119 7.45309821,48.2597143 C5.16165774,47.2240863 3.38010714,46.0705476 2.13633929,44.8299494 L2.13633929,54.0379732 C2.13633929,54.0476935 2.13380357,54.0565685 2.13338095,54.0662887 C2.13380357,54.0772768 2.1367619,54.087631 2.1367619,54.098619 C2.1367619,56.1392351 4.33374702,58.2561339 8.32305952,60.0596607 C14.6697411,62.9245952 24.829503,64.6351458 35.5004226,64.6351458 C46.1715536,64.6351458 56.3317381,62.9243839 62.6782083,60.0594494 C66.6670982,58.2561339 68.8640833,56.1390238 68.8640833,54.098619 L68.8640833,44.830372 C67.6201042,46.0703363 65.8387649,47.223875 63.5479583,48.259503 Z" id="Shape"></path>
                <path d="M11.4990417,19.8736607 C17.894747,22.02775 26.4185506,23.2140417 35.5002113,23.2140417 C44.5820833,23.2140417 53.1056756,22.02775 59.5011696,19.8736607 C65.4512232,17.8696012 68.863872,15.2468274 68.863872,12.6773036 C68.863872,10.1069345 65.4514345,7.48352679 59.5011696,5.47925595 C53.1060982,3.32495536 44.5822946,2.13866369 35.5002113,2.13866369 C26.418128,2.13866369 17.8943244,3.32495536 11.4990417,5.47925595 C5.54877679,7.48352679 2.13612798,10.1071458 2.13612798,12.6773036 C2.13633929,15.2468274 5.5489881,17.8696012 11.4990417,19.8736607 Z" id="Shape"></path>
                <path d="M60.175881,21.8762411 C53.5686548,24.1015417 44.8056488,25.3271369 35.5004226,25.3271369 C26.1954077,25.3271369 17.4319792,24.1015417 10.824753,21.8762411 C6.88404167,20.549006 3.94578274,18.9267827 2.13633929,17.1188185 L2.13633929,26.5201905 C2.13633929,26.5216696 2.1367619,26.5229375 2.1367619,26.5244167 C2.1367619,28.565244 4.33438095,30.6821429 8.32496131,32.4850357 C14.6672054,35.3499702 24.8263333,37.0605208 35.5004226,37.0605208 C46.1743006,37.0605208 56.3334286,35.3499702 62.6758839,32.4850357 C66.6664643,30.6819315 68.8640833,28.5650327 68.8640833,26.5244167 L68.8640833,17.1190298 C67.0544286,18.9267827 64.116381,20.549006 60.175881,21.8762411 Z" id="Shape"></path>
                <path d="M63.5456339,34.4104881 C56.8447976,37.4372857 46.6226994,39.1734048 35.5002113,39.1734048 C24.3775119,39.1734048 14.1554137,37.4372857 7.45478869,34.4104881 C5.16250298,33.3748601 3.38031845,32.2211101 2.13633929,30.9805119 L2.13633929,40.3692054 C2.13633929,40.3706845 2.1367619,40.3719524 2.1367619,40.3734315 C2.1367619,42.4140476 4.33374702,44.5309464 8.32284821,46.3338393 C14.6695298,49.1989851 24.829503,50.9095357 35.5002113,50.9095357 C46.1713423,50.9095357 56.3315268,49.1987738 62.677997,46.3338393 C66.6668869,44.5309464 68.863872,42.4140476 68.863872,40.3734315 L68.863872,30.9809345 C67.6196815,32.2213214 65.8377083,33.3750714 63.5456339,34.4104881 Z" id="Shape"></path>
                <path d="M60.175881,3.4766756 C53.5690774,1.25116369 44.8058601,0.0255684524 35.5004226,0.0255684524 C26.1949851,0.0255684524 17.4315565,1.25116369 10.824753,3.4766756 C3.91936905,5.80277083 0.0919196429,9.03432738 0.0264136905,12.58475 C0.026202381,12.5955268 0.0232440476,12.6056696 0.0232440476,12.6164464 L0.0232440476,54.0375506 C0.0232440476,54.04875 0.026202381,54.0591042 0.026625,54.069881 C0.0264136905,54.0796012 0.0236666667,54.0884762 0.0236666667,54.0981964 C0.0236666667,57.0605446 2.59255655,59.7877054 7.45309821,61.9849018 C14.158372,65.0116994 24.3811042,66.7478185 35.5002113,66.7478185 C46.6199524,66.7478185 56.8426845,65.0116994 63.5479583,61.9844792 C68.4080774,59.787494 70.9769673,57.0603333 70.9769673,54.0981964 L70.9769673,12.6773036 C70.9769673,9.09053571 67.1410655,5.82284524 60.175881,3.4766756 Z M11.499253,5.47925595 C17.8945357,3.32495536 26.4183393,2.13866369 35.5004226,2.13866369 C44.582506,2.13866369 53.1063095,3.32495536 59.501381,5.47925595 C65.4514345,7.48352679 68.8640833,10.1069345 68.8640833,12.6773036 C68.8640833,15.2466161 65.4516458,17.8696012 59.501381,19.8736607 C53.1058869,22.02775 44.5822946,23.2140417 35.5004226,23.2140417 C26.4185506,23.2140417 17.8949583,22.02775 11.499253,19.8736607 C5.5489881,17.8696012 2.13633929,15.2468274 2.13633929,12.6773036 C2.13633929,10.1071458 5.5489881,7.48352679 11.499253,5.47925595 Z M68.863872,54.0984077 C68.863872,56.1388125 66.6668869,58.2559226 62.677997,60.0592381 C56.3315268,62.9243839 46.1715536,64.6349345 35.5002113,64.6349345 C24.8292917,64.6349345 14.6695298,62.9241726 8.32284821,60.0594494 C4.33353571,58.2559226 2.1365506,56.1390238 2.1365506,54.0984077 C2.1365506,54.0872083 2.13359226,54.0768542 2.13316964,54.0660774 C2.13338095,54.0563571 2.13612798,54.0474821 2.13612798,54.0377619 L2.13612798,44.8297381 C3.37989583,46.0703363 5.16144643,47.223875 7.4528869,48.259503 C14.1581607,51.2863006 24.3808929,53.0224196 35.5,53.0224196 C46.6197411,53.0224196 56.8424732,51.2863006 63.547747,48.2592917 C65.8387649,47.223875 67.6198929,46.0703363 68.8636607,44.8299494 L68.8636607,54.0984077 L68.863872,54.0984077 Z M68.863872,40.3732202 C68.863872,42.4138363 66.6668869,44.5307351 62.677997,46.333628 C56.3315268,49.1987738 46.1715536,50.9093244 35.5002113,50.9093244 C24.8292917,50.9093244 14.6695298,49.1985625 8.32284821,46.333628 C4.33374702,44.5307351 2.1367619,42.4138363 2.1367619,40.3732202 C2.1367619,40.3717411 2.13633929,40.3704732 2.13633929,40.368994 L2.13633929,30.9803006 C3.38031845,32.2211101 5.16250298,33.3746488 7.45478869,34.4102768 C14.1554137,37.4370744 24.3775119,39.1731935 35.5002113,39.1731935 C46.6226994,39.1731935 56.8447976,37.4370744 63.5456339,34.4102768 C65.8377083,33.3746488 67.6196815,32.2211101 68.863872,30.9805119 L68.863872,40.3732202 Z M68.863872,26.5244167 C68.863872,28.5650327 66.666253,30.6819315 62.6756726,32.4850357 C56.3332173,35.3499702 46.1740893,37.0605208 35.5002113,37.0605208 C24.826122,37.0605208 14.666994,35.3499702 8.32475,32.4850357 C4.33438095,30.6821429 2.1365506,28.565244 2.1365506,26.5244167 C2.1365506,26.5229375 2.13612798,26.5216696 2.13612798,26.5201905 L2.13612798,17.1188185 C3.94557143,18.9267827 6.88383036,20.549006 10.8245417,21.8762411 C17.4319792,24.1015417 26.1951964,25.3271369 35.5002113,25.3271369 C44.8054375,25.3271369 53.5684435,24.1015417 60.1756696,21.8762411 C64.1161696,20.549006 67.0544286,18.9267827 68.8636607,17.1190298 L68.8636607,26.5244167 L68.863872,26.5244167 Z" id="Shape" fill="#0047BA" fill-rule="nonzero"></path>
            </g>
        </g>
    </g>
</svg>