<?xml version="1.0" ?><!DOCTYPE svg  PUBLIC '-//W3C//DTD SVG 1.1//EN'  'http://www.w3.org/Graphics/SVG/1.1/DTD/svg11.dtd'><svg enable-background="new 0 0 128 128" height="128px" id="Clear" version="1.1" viewBox="0 0 128 128" width="128px" xml:space="preserve" xmlns="http://www.w3.org/2000/svg" xmlns:xlink="http://www.w3.org/1999/xlink"><g id="Keywords_research"><path d="M94,61.8   c4.5-8.7,3.1-19.6-4.2-26.8c-9-9-23.5-9-32.5,0s-9,23.5,0,32.5c7.1,7.1,17.6,8.6,26.2,4.5l3.2-1.2" fill="none" stroke="#000000" stroke-linecap="round" stroke-miterlimit="10" stroke-width="2"/><path d="M49.5,85.2L29,105.7   c-2.7,2.7-7.2,2.7-9.9,0l0,0c-2.7-2.7-2.7-7.2,0-9.9l20.5-20.5c1.6-1.6,4.1-1.6,5.7,0l4.2,4.2C51.1,81.1,51.1,83.6,49.5,85.2z" fill="none" stroke="#000000" stroke-linecap="round" stroke-miterlimit="10" stroke-width="2"/><path d="M99.9,67.7   c7.5-12,6-27.9-4.4-38.3c-12.1-12.1-31.7-12.1-43.8,0C40.5,40.5,39.6,58,49,70.2l-4.5,4.5" fill="none" stroke="#000000" stroke-linecap="round" stroke-miterlimit="10" stroke-width="2"/><path d="M50.1,80.3l4.5-4.5   c10.2,7.9,24.1,8.5,34.9,2l3.9-2.7" fill="none" stroke="#000000" stroke-linecap="round" stroke-miterlimit="10" stroke-width="2"/><path d="M98.3,85.9l0.7,0.7   c2.7,2.7,7.2,2.7,9.9,0l0,0c2.7-2.7,2.7-7.2,0-9.9l-9-9l-12-12c1.6-5.3,0.3-11.4-4.2-15.5C78.1,35,69.1,35,63.5,40.2   c-6.4,5.8-6.5,15.7-0.5,21.7c4.1,4.1,9.9,5.3,15,3.7l3.2,3.2" fill="none" stroke="#000000" stroke-linecap="round" stroke-miterlimit="10" stroke-width="2"/><line fill="none" stroke="#000000" stroke-linecap="round" stroke-miterlimit="10" stroke-width="2" x1="91.9" x2="93.9" y1="79.5" y2="81.5"/><line fill="none" stroke="#000000" stroke-linecap="round" stroke-miterlimit="10" stroke-width="2" x1="85.9" x2="87.5" y1="73.5" y2="75.1"/><path d="M87.5,75.1l3.2-1.4   c1.7-0.7,3.3,1,2.6,2.6l-1.4,3.2" fill="none" stroke="#000000" stroke-linecap="round" stroke-miterlimit="10" stroke-width="2"/><path d="M81.1,68.7l3.2-1.4   c1.7-0.7,3.3,1,2.6,2.6l-1,3.5" fill="none" stroke="#000000" stroke-linecap="round" stroke-miterlimit="10" stroke-width="2"/><path d="M93.9,81.5l3.2-1.4   c1.7-0.7,3.3,1,2.6,2.6l-1.4,3.2" fill="none" stroke="#000000" stroke-linecap="round" stroke-miterlimit="10" stroke-width="2"/><circle cx="73.5" cy="51.3" fill="none" r="4" stroke="#000000" stroke-linecap="round" stroke-miterlimit="10" stroke-width="2"/></g></svg>