<?xml version="1.0" encoding="UTF-8"?>
<svg width="250px" height="42px" viewBox="0 0 250 42" version="1.1" xmlns="http://www.w3.org/2000/svg" xmlns:xlink="http://www.w3.org/1999/xlink">
    <!-- Generator: Sketch 50.2 (55047) - http://www.bohemiancoding.com/sketch -->
    <title>Logo</title>
    <desc>Created with Sketch.</desc>
    <defs></defs>
    <g id="Homepage" stroke="none" stroke-width="1" fill="none" fill-rule="evenodd">
        <g id="UI_hover3" transform="translate(-91.000000, -19.000000)">
            <g id="HEADER">
                <g id="Logo">
                    <g transform="translate(91.000000, 19.000000)">
                        <path d="M57.7986726,20.4603429 C55.6028761,20.4603429 53.704646,21.2407633 52.1554204,22.7794801 C50.6039823,24.3193031 49.8169248,26.2142146 49.8169248,28.4105642 C49.8169248,30.6074668 50.6039823,32.5023783 52.1554204,34.0422013 C53.704646,35.5809181 55.6028761,36.3607854 57.8915929,36.3607854 C59.5237832,36.3607854 61.0182522,35.9006084 62.3346239,34.9924226 L62.9070796,34.5975111 L61.0962389,32.017865 L60.5376106,32.3818031 C59.7522124,32.8934181 58.886615,33.1423119 57.7986726,33.1423119 C56.6034292,33.1423119 55.5868363,32.7767146 54.6891593,32.0256084 C54.0121681,31.4592367 53.5420354,30.7933075 53.2660398,30.0045907 L65.7804204,30.0045907 L65.7804204,28.4105642 C65.7804204,26.2142146 64.9933628,24.3198562 63.4413717,22.7794801 C61.8910398,21.2407633 59.9928097,20.4603429 57.7986726,20.4603429 M57.7986726,23.6168695 C58.9684735,23.6168695 59.9734513,23.9902102 60.8700221,24.7584624 C61.5470133,25.3397677 62.0121681,26.0079093 62.278208,26.7855642 L53.2699115,26.7855642 C53.5475664,26.0079093 54.0182522,25.3392146 54.6952434,24.7595686 C55.5923673,23.9902102 56.6073009,23.6168695 57.7986726,23.6168695" id="Fill-1" fill="#D33C44"></path>
                        <polygon id="Fill-3" fill="#2256A6" points="69.6615044 36.0846239 72.3904867 36.0846239 72.3904867 11.9806416 69.6615044 11.9806416"></polygon>
                        <g id="Group-24" transform="translate(76.880531, 11.767699)" fill="#2256A6">
                            <path d="M6.99795354,8.96891593 C5.45813053,8.96891593 4.07040929,9.44734513 2.86299779,10.3931416 L2.86299779,8.96891593 L0.134568584,8.96891593 L0.134568584,24.3168142 L2.86299779,24.3168142 L2.86299779,15.7393805 C2.86299779,14.6381637 3.27284292,13.6940265 4.11189159,12.8538717 C4.95481195,12.0126106 5.89839602,11.6033186 6.99795354,11.6033186 C8.16056416,11.6033186 9.12405973,12.0070796 9.94375,12.8361726 C10.7656527,13.6669248 11.1649889,14.6165929 11.1649889,15.7393805 L11.1649889,24.3168142 L13.8004978,24.3168142 L13.8004978,15.7393805 C13.8004978,13.8887168 13.1306969,12.2808628 11.8087942,10.9595133 C10.4885509,9.63816372 8.86963496,8.96891593 6.99795354,8.96891593" id="Fill-4"></path>
                            <path d="M20.4683628,2.13517699 C19.1099558,3.43772124 18.4329646,5.0284292 18.4556416,6.85862832 L18.4556416,24.3165929 L21.1840708,24.3165929 L21.1840708,11.6030973 L25.702323,11.6030973 L25.702323,8.96869469 L21.1840708,8.96869469 L21.1840708,6.85862832 C21.1840708,5.78174779 21.5867257,4.86415929 22.4152655,4.05442478 C23.2465708,3.24303097 24.1868363,2.84756637 25.2891593,2.84756637 L25.702323,2.84756637 L25.702323,0.217035398 L25.2935841,0.212610619 C23.4379425,0.170575221 21.8201327,0.837610619 20.4683628,2.13517699" id="Fill-6"></path>
                            <path d="M32.2767699,10.3932522 L32.2767699,8.96902655 L29.5472345,8.96902655 L29.5472345,24.3169248 L32.2767699,24.3169248 L32.2767699,15.7389381 C32.2767699,14.6377212 32.6855088,13.6935841 33.5267699,12.8528761 C34.3674779,12.0127212 35.3110619,11.6034292 36.4117257,11.6034292 L36.8259956,11.6034292 L36.8259956,8.96902655 L36.4117257,8.96902655 C34.8707965,8.96902655 33.4841814,9.44745575 32.2767699,10.3932522" id="Fill-8"></path>
                            <path d="M48.4084624,8.96891593 C46.2889934,8.96891593 44.4504978,9.72721239 42.9438606,11.2233407 C41.4372235,12.7205752 40.6722898,14.5330752 40.6722898,16.611615 C40.6722898,18.7310841 41.4305863,20.5646018 42.9272677,22.0612832 C44.4239491,23.5585177 46.2674226,24.3168142 48.4084624,24.3168142 C50.3586836,24.3168142 52.0600111,23.6846239 53.4787058,22.4346239 L53.4787058,24.3168142 L56.2386615,24.3168142 L56.2386615,16.6066372 C56.2170907,14.549115 55.4195243,12.742146 53.8697456,11.2355088 C52.321073,9.73108407 50.4836836,8.96891593 48.4084624,8.96891593 M48.4084624,11.6033186 C49.7602323,11.6033186 50.9079093,12.0939159 51.9167588,13.1027655 C52.9250553,14.111615 53.4156527,15.2598451 53.4156527,16.611615 C53.4156527,18.0065265 52.9305863,19.1691372 51.9322456,20.1669248 C50.934458,21.1652655 49.7818031,21.650885 48.4084624,21.650885 C46.9941925,21.650885 45.8310288,21.1707965 44.8542588,20.1846239 C43.8763827,19.1962389 43.4001659,18.0269912 43.4001659,16.611615 C43.4001659,15.2377212 43.8808075,14.0850664 44.8702987,13.0856195 C45.8575774,12.0889381 47.0152102,11.6033186 48.4084624,11.6033186" id="Fill-10"></path>
                            <path d="M76.7940819,2.94159292 C79.0894358,2.94159292 81.1148783,3.69380531 82.8162058,5.17610619 L83.0147677,5.34977876 L85.7149889,4.1550885 L85.2791482,3.72754425 C82.9035951,1.39513274 80.0485066,0.212610619 76.7940819,0.212610619 C73.5158739,0.212610619 70.6596792,1.41725664 68.3056969,3.79391593 C65.9506084,6.16946903 64.7575774,9.04502212 64.7575774,12.3431416 C64.7575774,15.6423673 65.9467367,18.493031 68.2918695,20.8160398 C70.635896,23.1390487 73.4965155,24.317146 76.7940819,24.317146 C79.7918695,24.317146 82.4627765,23.3077434 84.7326881,21.3160398 L85.1923119,20.9122788 L82.5822456,19.5865044 L82.3770465,19.7363938 C80.6923119,20.9642699 78.8139934,21.5881637 76.7940819,21.5881637 C74.2393252,21.5881637 72.0252765,20.6794248 70.2144358,18.8873894 C68.4047013,17.0975664 67.4865597,14.8951327 67.4865597,12.3431416 C67.4865597,9.78783186 68.4058075,7.55884956 70.2188606,5.71537611 C72.0302544,3.87522124 74.2426438,2.94159292 76.7940819,2.94159292" id="Fill-12"></path>
                            <path d="M97.265708,8.96891593 C95.1456858,8.96891593 93.3132743,9.72168142 91.8165929,11.207854 C90.3193584,12.6934735 89.5605088,14.5225664 89.5605088,16.6425885 C89.5605088,18.7631637 90.3193584,20.5922566 91.8165929,22.0778761 C93.3132743,23.5640487 95.1456858,24.3168142 97.3586283,24.3168142 C98.9338496,24.3168142 100.375221,23.8732301 101.64458,22.997677 L101.988606,22.7603982 L100.490819,20.6265487 L100.156195,20.8450221 C99.3353982,21.3798673 98.3940265,21.650885 97.265708,21.650885 C96.0035398,21.650885 94.9283186,21.2642699 93.9792035,20.469469 C93.1589602,19.7841814 92.6257743,18.9595133 92.3586283,17.9606195 L104.97146,17.9606195 L104.97146,16.6425885 C104.97146,14.5231195 104.212611,12.6940265 102.714823,11.207854 C101.218142,9.72168142 99.3846239,8.96891593 97.265708,8.96891593 M97.265708,11.5723451 C98.504646,11.5723451 99.5676991,11.9683628 100.516814,12.781969 C101.337611,13.4849558 101.863606,14.3107301 102.116372,15.2941372 L92.3613938,15.2941372 C92.6290929,14.310177 93.1628319,13.4849558 93.9825221,12.781969 C94.9316372,11.9683628 96.0063053,11.5723451 97.265708,11.5723451" id="Fill-14"></path>
                            <path d="M115.992699,8.96891593 C114.452323,8.96891593 113.065155,9.44734513 111.85719,10.3931416 L111.85719,8.96891593 L109.128761,8.96891593 L109.128761,24.3168142 L111.85719,24.3168142 L111.85719,15.7393805 C111.85719,14.6381637 112.267035,13.6940265 113.106084,12.8538717 C113.948451,12.0126106 114.892588,11.6033186 115.992699,11.6033186 C117.154757,11.6033186 118.118252,12.0070796 118.938496,12.8361726 C119.759845,13.6669248 120.159735,14.6165929 120.159735,15.7393805 L120.159735,24.3168142 L122.79469,24.3168142 L122.79469,15.7393805 C122.79469,13.8887168 122.125442,12.2808628 120.802987,10.9595133 C119.482743,9.63816372 117.863827,8.96891593 115.992699,8.96891593" id="Fill-16"></path>
                            <path d="M130.178816,0.21255531 L127.449834,0.21255531 L127.449834,17.671073 C127.449834,19.5034845 128.13125,21.0925332 129.476936,22.392865 C130.796073,23.6699668 132.384569,24.3176438 134.199281,24.3176438 C134.228042,24.3176438 134.257909,24.3176438 134.28833,24.3165376 L134.697069,24.3121128 L134.697069,21.6815819 L134.282799,21.6815819 C133.179923,21.6815819 132.240763,21.2866704 131.410564,20.4752765 C130.582024,19.6660951 130.178816,18.7485066 130.178816,17.671073 L130.178816,11.603042 L134.697069,11.603042 L134.697069,8.96863938 L130.178816,8.96863938 L130.178816,0.21255531 Z" id="Fill-18"></path>
                            <path d="M142.205973,10.3932522 L142.205973,8.96902655 L139.476991,8.96902655 L139.476991,24.3169248 L142.205973,24.3169248 L142.205973,15.7389381 C142.205973,14.6377212 142.615265,13.6935841 143.455973,12.8528761 C144.297235,12.0127212 145.240819,11.6034292 146.341482,11.6034292 L146.755752,11.6034292 L146.755752,8.96902655 L146.341482,8.96902655 C144.800553,8.96902655 143.413938,9.44745575 142.205973,10.3932522" id="Fill-20"></path>
                            <path d="M158.338164,8.96891593 C156.218695,8.96891593 154.380199,9.72721239 152.873009,11.2233407 C151.366372,12.7205752 150.601991,14.5330752 150.601991,16.611615 C150.601991,18.7310841 151.360288,20.5646018 152.856969,22.0612832 C154.35365,23.5585177 156.197124,24.3168142 158.338164,24.3168142 C160.287832,24.3168142 161.989159,23.6846239 163.408407,22.4346239 L163.408407,24.3168142 L166.16781,24.3168142 L166.16781,16.6066372 C166.146239,14.549115 165.349226,12.742146 163.799447,11.2355088 C162.250221,9.73108407 160.413385,8.96891593 158.338164,8.96891593 M158.338164,11.6033186 C159.689381,11.6033186 160.837058,12.0939159 161.84646,13.1027655 C162.854757,14.111615 163.345354,15.2598451 163.345354,16.611615 C163.345354,18.0065265 162.860288,19.1691372 161.861947,20.1669248 C160.863606,21.1652655 159.710951,21.650885 158.338164,21.650885 C156.923341,21.650885 155.761283,21.1707965 154.783407,20.1846239 C153.806084,19.1962389 153.329314,18.0269912 153.329314,16.611615 C153.329314,15.2377212 153.809956,14.0850664 154.799447,13.0856195 C155.787279,12.0889381 156.944358,11.6033186 158.338164,11.6033186" id="Fill-22"></path>
                        </g>
                        <polygon id="Fill-25" fill="#2256A6" points="247.205752 36.0846239 249.934735 36.0846239 249.934735 11.9806416 247.205752 11.9806416"></polygon>
                        <g id="Group-30" transform="translate(0.000000, 0.152655)">
                            <path d="M1.37356195,14.8080199 C-0.221017699,20.0552544 0.322676991,25.609458 2.90564159,30.4485066 C5.4880531,35.2864491 9.8,38.8295907 15.0466814,40.4247235 C20.294469,42.0204093 25.8492257,41.4767146 30.6882743,38.8931969 C36.4471239,35.8207412 40.4299779,30.1116704 41.3420354,23.6232854 C41.5942478,22.4944137 41.4399336,21.3461836 40.9122788,20.359458 L40.9122788,20.3589049 C40.3221239,19.2527102 39.3359513,18.4429757 38.1357301,18.0784845 C36.9344027,17.7128872 35.6650442,17.8384403 34.5594027,18.4285951 C33.1711283,19.1691925 32.2502212,20.5497235 32.0959071,22.1216261 C31.6517699,25.7444137 29.4764381,28.9208518 26.2762168,30.6282633 C23.6473451,32.0325774 20.6279867,32.3284845 17.7728982,31.4601217 C14.919469,30.592865 12.5743363,28.666427 11.1711283,26.0364491 C8.27289823,20.6066925 10.3331858,13.83125 15.7634956,10.9324668 C18.9626106,9.22450221 22.8088496,9.1857854 26.0538717,10.8268252 C26.1462389,10.8694137 26.1882743,10.8893252 26.2280973,10.9103429 C27.6136062,11.5729535 29.1943584,11.5392146 30.4985619,10.842865 C31.6019912,10.2538164 32.4095133,9.27040929 32.7734513,8.07240044 C33.1373894,6.87549779 33.0134956,5.60835177 32.4244469,4.50436947 C31.9631637,3.64098451 31.2557522,2.95403761 30.3779867,2.51764381 L30.0887168,2.37439159 L30.0914823,2.36443584 C27.2264381,0.955696903 24.1152655,0.252710177 21.0085177,0.252710177 C17.6838496,0.252710177 14.3636062,1.05801991 11.3514381,2.6653208 C6.51238938,5.2488385 2.96869469,9.5607854 1.37356195,14.8080199" id="Fill-26" fill="#2256A6"></path>
                            <path d="M40.6315819,1.62472345 C38.2471792,2.89740044 36.8163164,5.25470133 36.6061394,7.7596792 C36.3306969,10.3509403 34.8251659,12.7591261 32.3566925,14.0771571 C30.0790376,15.2923119 27.4833518,15.3116704 25.2881084,14.355365 C23.01875,12.8625553 20.0259403,12.6230642 17.4606748,13.9919801 C13.7267146,15.9853429 12.314104,20.6285951 14.3074668,24.3642146 C16.3008296,28.0981748 20.9451881,29.508573 24.6791482,27.5157633 C27.0840155,26.2325774 28.5198562,23.8426438 28.7056969,21.3066925 C29.030365,18.7851217 30.5231748,16.4527102 32.9368916,15.1645465 C35.4059181,13.8465155 38.2504978,13.934458 40.5563606,15.1462942 L40.5795907,15.1191925 C42.7693031,16.303927 45.4883296,16.4084624 47.8495022,15.1479535 C51.5840155,13.1551438 52.9966261,8.51189159 51.0038164,4.77737832 C49.0099004,1.04231195 44.365542,-0.368639381 40.6315819,1.62472345" id="Fill-28" fill="#D33C44"></path>
                        </g>
                    </g>
                </g>
            </g>
        </g>
    </g>
</svg>