<?xml version="1.0" encoding="UTF-8"?>
<svg width="8px" height="8px" viewBox="0 0 8 8" version="1.1" xmlns="http://www.w3.org/2000/svg" xmlns:xlink="http://www.w3.org/1999/xlink">
    <!-- Generator: Sketch 50.2 (55047) - http://www.bohemiancoding.com/sketch -->
    <title>remove_tag</title>
    <desc>Created with Sketch.</desc>
    <defs></defs>
    <g id="UI--Category_Rearch-Result-Page-Copy" stroke="none" stroke-width="1" fill="none" fill-rule="evenodd">
        <g id="Mobile-Filters_Applied" transform="translate(-71.000000, -146.000000)" fill="#4D586A">
            <g id="Group-6" transform="translate(11.000000, 135.000000)">
                <g id="MINI-TAG">
                    <g id="remove_tag" transform="translate(60.000000, 11.000000)">
                        <path d="M4.57489655,3.97057143 L7.67889655,0.755714286 C7.84055172,0.588571429 7.84055172,0.316857143 7.67889655,0.149714286 C7.51724138,-0.0177142857 7.25544828,-0.0177142857 7.0937931,0.149714286 L3.9897931,3.36457143 L0.885793103,0.149714286 C0.724137931,-0.0177142857 0.462344828,-0.0177142857 0.300689655,0.149714286 C0.139034483,0.316857143 0.139034483,0.588571429 0.300689655,0.755714286 L3.40468966,3.97057143 L0.300689655,7.18542857 C0.139034483,7.35257143 0.139034483,7.62428571 0.300689655,7.79142857 C0.381517241,7.87514286 0.487448276,7.91685714 0.59337931,7.91685714 C0.699310345,7.91685714 0.804965517,7.87514286 0.885793103,7.79142857 L3.9897931,4.57657143 L7.0937931,7.79142857 C7.17462069,7.87514286 7.28055172,7.91685714 7.38648276,7.91685714 C7.49241379,7.91685714 7.59806897,7.87514286 7.67889655,7.79142857 C7.84055172,7.62428571 7.84055172,7.35257143 7.67889655,7.18542857 L4.57489655,3.97057143"></path>
                    </g>
                </g>
            </g>
        </g>
    </g>
</svg>