<?xml version="1.0" ?><svg id="training-presentation-teach-meeting" style="enable-background:new 0 0 128 128;" version="1.1" viewBox="0 0 128 128" xml:space="preserve" xmlns="http://www.w3.org/2000/svg" xmlns:xlink="http://www.w3.org/1999/xlink"><rect height="128" style="fill:none;" width="128"/><path d="M114,39h-3.695c2.835-1.992,4.695-5.28,4.695-9c0-6.065-4.935-11-11-11s-11,4.935-11,11c0,3.72,1.861,7.008,4.695,9H84.414  L83,37.586V14.899c2.279-0.465,4-2.484,4-4.899c0-2.757-2.243-5-5-5H10c-2.757,0-5,2.243-5,5c0,2.414,1.721,4.434,4,4.899v54.202  C6.721,69.566,5,71.586,5,74c0,2.757,2.243,5,5,5h72c2.757,0,5-2.243,5-5c0-2.414-1.721-4.434-4-4.899V49h10v38.426  c-3.118,0.886-5.671,3.112-7,6.018C84.264,89.649,80.439,87,76,87s-8.264,2.649-10,6.444C64.264,89.649,60.439,87,56,87  s-8.264,2.649-10,6.444C44.264,89.649,40.439,87,36,87s-8.264,2.649-10,6.444C24.264,89.649,20.439,87,16,87C9.935,87,5,91.935,5,98  c0,4.439,2.649,8.264,6.444,10C7.649,109.736,5,113.561,5,118v6h2v-6c0-4.963,4.037-9,9-9s9,4.037,9,9v6h2v-6c0-4.963,4.037-9,9-9  s9,4.037,9,9v6h2v-6c0-4.963,4.037-9,9-9s9,4.037,9,9v6h2v-6c0-4.963,4.037-9,9-9s9,4.037,9,9v6h2v-6c0-4.963,4.037-9,9-9  s9,4.037,9,9v6h2v-6c0-4.439-2.649-8.264-6.444-10c3.796-1.736,6.444-5.561,6.444-10c0-3.72-1.861-7.008-4.695-9H104h10  c0.553,0,1-0.448,1-1V63h7c0.553,0,1-0.448,1-1V48C123,43.038,118.963,39,114,39z M95,30c0-4.962,4.037-9,9-9s9,4.038,9,9  s-4.037,9-9,9S95,34.962,95,30z M7,10c0-1.654,1.346-3,3-3h72c1.654,0,3,1.346,3,3s-1.346,3-3,3H10C8.346,13,7,11.654,7,10z M85,74  c0,1.654-1.346,3-3,3H10c-1.654,0-3-1.346-3-3s1.346-3,3-3h72C83.654,71,85,72.346,85,74z M81,69H11V15h70v20.586l-8.293-8.293  c-0.391-0.391-1.023-0.391-1.414,0l-6,6c-0.391,0.391-0.391,1.023,0,1.414l14,14C79.48,48.895,79.734,49,80,49h1V69z M76,89  c4.963,0,9,4.038,9,9c0,4.963-4.037,9-9,9s-9-4.037-9-9C67,93.038,71.037,89,76,89z M56,89c4.963,0,9,4.038,9,9c0,4.963-4.037,9-9,9  s-9-4.037-9-9C47,93.038,51.037,89,56,89z M36,89c4.963,0,9,4.038,9,9c0,4.963-4.037,9-9,9s-9-4.037-9-9C27,93.038,31.037,89,36,89z   M7,98c0-4.962,4.037-9,9-9s9,4.038,9,9c0,4.963-4.037,9-9,9S7,102.963,7,98z M26,113.444c-1.1-2.405-3.039-4.344-5.444-5.444  c2.405-1.1,4.344-3.039,5.444-5.444c1.1,2.405,3.039,4.344,5.444,5.444C29.039,109.1,27.1,111.039,26,113.444z M46,113.444  c-1.1-2.405-3.039-4.344-5.444-5.444c2.405-1.1,4.344-3.039,5.444-5.444c1.1,2.405,3.039,4.344,5.444,5.444  C49.039,109.1,47.1,111.039,46,113.444z M66,113.444c-1.1-2.405-3.039-4.344-5.444-5.444c2.405-1.1,4.344-3.039,5.444-5.444  c1.1,2.405,3.039,4.344,5.444,5.444C69.039,109.1,67.1,111.039,66,113.444z M86,113.444c-1.1-2.405-3.039-4.344-5.444-5.444  c2.405-1.1,4.344-3.039,5.444-5.444c1.1,2.405,3.039,4.344,5.444,5.444C89.039,109.1,87.1,111.039,86,113.444z M105,98  c0,4.963-4.037,9-9,9s-9-4.037-9-9c0-4.962,4.037-9,9-9S105,93.038,105,98z M121,61h-6V48h-2v39h-8V64h-2v23h-8V48  c0-0.552-0.447-1-1-1H80.414l-13-13L72,29.414l11.293,11.293C83.48,40.895,83.734,41,84,41h30c3.859,0,7,3.14,7,7V61z" stroke="#D1303A" fill="#D1303A"/><path d="M74,51H50c-0.553,0-1,0.448-1,1v5H31v-6h11c0.553,0,1-0.448,1-1V40c0-0.552-0.447-1-1-1H31v-6h11c0.553,0,1-0.448,1-1V22  c0-0.552-0.447-1-1-1H18c-0.553,0-1,0.448-1,1v10c0,0.552,0.447,1,1,1h11v6H18c-0.553,0-1,0.448-1,1v10c0,0.552,0.447,1,1,1h11v7  c0,0.552,0.447,1,1,1h19v3c0,0.552,0.447,1,1,1h24c0.553,0,1-0.448,1-1V52C75,51.448,74.553,51,74,51z M19,23h22v8H19V23z M19,41h22  v8H19V41z M73,61H51v-8h22V61z" stroke="#D1303A" fill="#D1303A"/><rect height="2" width="2" x="48" y="21" fill="#D1303A"/><rect height="2" width="2" x="48" y="29" fill="#D1303A"/><rect height="2" width="2" x="56" y="29" fill="#D1303A"/><rect height="2" width="2" x="48" y="37" fill="#D1303A"/><rect height="2" width="2" x="56" y="21" fill="#D1303A"/><rect height="2" width="2" x="64" y="21" fill="#D1303A"/></svg>