<?xml version="1.0" ?><!DOCTYPE svg  PUBLIC '-//W3C//DTD SVG 1.1//EN'  'http://www.w3.org/Graphics/SVG/1.1/DTD/svg11.dtd'><svg enable-background="new 0 0 128 128" height="128px" id="Clear" version="1.1" viewBox="0 0 128 128" width="128px" xml:space="preserve" xmlns="http://www.w3.org/2000/svg" xmlns:xlink="http://www.w3.org/1999/xlink"><g id="Confidential_information"><path d="M32.2,59.1   c-0.8-0.9-1.5-1.9-2.2-3c-6.7-10.7-4.4-24.9,5.3-32.9c11.4-9.4,28.2-7.2,36.7,4.6c1.1,1.6,2.1,3.2,2.8,4.9c0.7,1.7,2.6,2.6,4.4,2.2   h0c2.3-0.6,3.4-3,2.5-5.2c-1.3-3-3-5.8-5.2-8.4C66.1,9,47.9,6.2,34.2,14.7C17.8,25,13.8,46.7,25,62c1,1.3,2,2.5,3.1,3.7" fill="none" stroke="#000000" stroke-linecap="round" stroke-miterlimit="10" stroke-width="2"/><path d="M99.3,67.5   c0-5.7-4.6-10.3-10.3-10.3c-3.1,0-6,1.4-7.9,3.6c-3.5,4.1-8.5,6.7-13.9,6.7H60c-5.4,0-10.4-2.6-13.9-6.7c-1.9-2.2-4.7-3.6-7.9-3.6   c-5.7,0-10.3,4.6-10.3,10.3c0,0.8,2.9,15.1,5.7,28.3c2.7,13.1,14.2,22.5,27.6,22.5h4.9c13.4,0,24.9-9.4,27.6-22.5   C96.4,82.5,99.3,68.2,99.3,67.5z" fill="none" stroke="#000000" stroke-linecap="round" stroke-miterlimit="10" stroke-width="2"/><circle cx="38.5" cy="67.8" fill="none" r="4" stroke="#000000" stroke-linecap="round" stroke-miterlimit="10" stroke-width="2"/><path d="M71,83.1c0-3.9-3.1-7-7-7s-7,3.1-7,7   c0,2.8,1.6,5.2,4,6.3v13.6c0,1.7,1.3,3,3,3s3-1.3,3-3V89.4C69.4,88.3,71,85.9,71,83.1z" fill="none" stroke="#000000" stroke-miterlimit="10" stroke-width="2"/></g></svg>