<svg xmlns="http://www.w3.org/2000/svg" width="17.005" height="17" viewBox="0 0 17.005 17">
  <path id="Subtraction_4" data-name="Subtraction 4" d="M12971.987,20645a5.97,5.97,0,0,1-3.951-1.5,6.036,6.036,0,0,1-1.992-3.68h-2.45a2.6,2.6,0,0,1-2.6-2.592v-6.643a2.6,2.6,0,0,1,2.6-2.59h6.642a2.593,2.593,0,0,1,2.591,2.59v2.457a6.005,6.005,0,0,1-.839,11.953Zm-2.679-6.367c-.283,0-.306.219-.306.508s.022.506.306.506h2.228v2.229c0,.283.24.307.508.307s.5-.021.5-.307v-2.229h2.232c.282,0,.306-.229.306-.506s-.023-.508-.306-.508h-2.232v-2.229c0-.285-.218-.307-.5-.307s-.508.021-.508.307v2.229Zm-5.715-8.969a.916.916,0,0,0-.928.926v6.643a.917.917,0,0,0,.928.928h2.45a6.051,6.051,0,0,1,5.119-5.113v-2.457a.916.916,0,0,0-.928-.926Z" transform="translate(-12960.997 -20628.002)" fill="#26c0e2"/>
</svg>
