<svg xmlns="http://www.w3.org/2000/svg" width="12" height="12" viewBox="0 0 12 12">
  <path id="cancel2" d="M9,15a6,6,0,1,1,6-6A6,6,0,0,1,9,15ZM9,4.385A4.615,4.615,0,1,0,13.615,9,4.616,4.616,0,0,0,9,4.385Zm2.094,6.247-.468.468a.221.221,0,0,1-.312,0L8.99,9.775,7.665,11.1a.221.221,0,0,1-.312,0l-.468-.468a.221.221,0,0,1,0-.312L8.211,9,6.886,7.671a.221.221,0,0,1,0-.312l.468-.468a.22.22,0,0,1,.312,0L8.99,8.216l1.325-1.325a.22.22,0,0,1,.312,0l.468.468a.221.221,0,0,1,0,.312L9.769,9l1.325,1.324A.221.221,0,0,1,11.094,10.632Z" transform="translate(-3 -3)" fill="#c41c02"/>
</svg>
