<svg id="Component_1_1" data-name="Component 1 – 1" xmlns="http://www.w3.org/2000/svg" width="12.788" height="12.78" viewBox="0 0 12.788 12.78">
  <g id="Group_1207" data-name="Group 1207" transform="translate(12.36 12.78) rotate(180)">
    <g id="Group_1206" data-name="Group 1206" transform="translate(0)">
      <g id="Group_1205" data-name="Group 1205" transform="translate(0)">
        <rect id="Rectangle_1545" data-name="Rectangle 1545" width="12.36" height="12.36" fill="none"/>
        <path id="Path_2338" data-name="Path 2338" d="M.824,8.675V2.065A1.24,1.24,0,0,1,2.065.824H10.3a1.24,1.24,0,0,1,1.241,1.241V10.3A1.238,1.238,0,0,1,10.3,11.536H3.687a.412.412,0,0,0,0,.824H10.3A2.062,2.062,0,0,0,12.36,10.3V2.065A2.064,2.064,0,0,0,10.3,0H2.065A2.064,2.064,0,0,0,0,2.065V8.675a.412.412,0,0,0,.824,0Z" fill="#4d4d4d"/>
      </g>
    </g>
  </g>
  <g id="noun_edit_737749" transform="translate(4.05 0)">
    <g id="Group_1203" data-name="Group 1203" transform="translate(0 0)">
      <g id="Group_1202" data-name="Group 1202" transform="translate(0)">
        <path id="Path_2337" data-name="Path 2337" d="M12.353,5.5H12.08L11.027,6.553l1.658,1.658,1.053-1.053V6.885ZM5.761,11.819,5,14.228l2.409-.761,4.584-4.584L10.335,7.226Z" transform="translate(-5 -5.5)" fill="#4d4d4d"/>
      </g>
    </g>
  </g>
</svg>
