<svg xmlns="http://www.w3.org/2000/svg" width="17.005" height="17" viewBox="0 0 17.005 17">
  <path id="Subtraction_11" data-name="Subtraction 11" d="M11357.987,20645a6.018,6.018,0,0,1-5.943-5.176h-2.45a2.6,2.6,0,0,1-2.6-2.592v-6.637a2.6,2.6,0,0,1,2.6-2.6h6.642a2.6,2.6,0,0,1,2.591,2.6v2.451a6.005,6.005,0,0,1-.839,11.953Zm-1.627-3.637h0l-.669.715a3.853,3.853,0,0,0,2.395.828,3.9,3.9,0,0,0,0-7.809,3.9,3.9,0,0,0-3.887,3.809v.094h-1.129l1.71,1.855,1.663-1.855h-1.27v-.094a2.918,2.918,0,0,1,.885-2.006,2.887,2.887,0,0,1,2.027-.828,2.928,2.928,0,1,1-1.726,5.291Zm1.254-4.742h0V20639a.416.416,0,0,0,.036.182.349.349,0,0,0,.1.154l1.519,1.523a2.547,2.547,0,0,0,.378-.295l-1.088-1.088v-2.855Zm-8.021-6.957a.919.919,0,0,0-.928.932v6.637a.917.917,0,0,0,.928.928h2.45a6.053,6.053,0,0,1,5.119-5.113v-2.451a.919.919,0,0,0-.928-.932Z" transform="translate(-11346.998 -20628.002)" fill="#fff"/>
</svg>
