<svg xmlns="http://www.w3.org/2000/svg" width="12" height="12" viewBox="0 0 12 12">
  <path id="minus3" d="M6.909,5H5.273A.273.273,0,0,0,5,5.273V6.909a.273.273,0,1,0,.545,0V5.545H6.909a.273.273,0,1,0,0-.545Zm1.636.545h1.636a.273.273,0,0,0,0-.545H8.545a.273.273,0,0,0,0,.545ZM13.455,5H11.818a.273.273,0,1,0,0,.545h1.636a.273.273,0,0,0,0-.545Zm3.273,0H15.091a.273.273,0,1,0,0,.545h1.364V6.909a.273.273,0,0,0,.545,0V5.273A.273.273,0,0,0,16.727,5Zm0,3.273a.273.273,0,0,0-.273.273v1.636a.273.273,0,0,0,.545,0V8.545A.273.273,0,0,0,16.727,8.273Zm0,3.273a.273.273,0,0,0-.273.273v1.636a.273.273,0,0,0,.545,0V11.818A.273.273,0,0,0,16.727,11.545Zm0,3.273a.273.273,0,0,0-.273.273v1.364H15.091a.273.273,0,1,0,0,.545h1.636A.273.273,0,0,0,17,16.727V15.091A.273.273,0,0,0,16.727,14.818Zm-3.273,1.636H11.818a.273.273,0,1,0,0,.545h1.636a.273.273,0,0,0,0-.545Zm-3.273,0H8.545a.273.273,0,0,0,0,.545h1.636a.273.273,0,0,0,0-.545Zm-3.273,0H5.545V15.091a.273.273,0,1,0-.545,0v1.636A.273.273,0,0,0,5.273,17H6.909a.273.273,0,0,0,0-.545ZM5.273,13.727a.273.273,0,0,0,.273-.273V11.818a.273.273,0,1,0-.545,0v1.636A.273.273,0,0,0,5.273,13.727Zm0-3.273a.273.273,0,0,0,.273-.273V8.545a.273.273,0,0,0-.545,0v1.636A.273.273,0,0,0,5.273,10.455Zm3.512,1.091h4.364a.545.545,0,0,0,0-1.091H8.784a.545.545,0,0,0,0,1.091Z" transform="translate(-5 -5)" fill="#4d4d4d"/>
</svg>
