<svg xmlns="http://www.w3.org/2000/svg" width="16.999" height="17" viewBox="0 0 16.999 17">
  <path id="Subtraction_1" data-name="Subtraction 1" d="M14887.988,20645a6.017,6.017,0,0,1-5.941-5.172h-2.451a2.6,2.6,0,0,1-2.594-2.6v-6.639a2.6,2.6,0,0,1,2.594-2.594h6.639a2.6,2.6,0,0,1,2.6,2.594v2.453a6.005,6.005,0,0,1,1.494,11.48A5.941,5.941,0,0,1,14887.988,20645Zm-2.073-5.982a.531.531,0,0,0-.325.109.54.54,0,0,0-.105.758l1.387,1.83a.539.539,0,0,0,.431.215h.024a.552.552,0,0,0,.436-.254l2.709-4.35a.54.54,0,0,0-.174-.744.524.524,0,0,0-.285-.082.542.542,0,0,0-.46.254l-2.293,3.684-.911-1.205A.539.539,0,0,0,14885.915,20639.018Zm-6.319-9.354a.922.922,0,0,0-.931.93v6.639a.925.925,0,0,0,.931.932h2.451a6.03,6.03,0,0,1,1.707-3.412,6.076,6.076,0,0,1,1.547-1.121,5.931,5.931,0,0,1,1.864-.584v-2.453a.922.922,0,0,0-.931-.93Z" transform="translate(-14877.002 -20628)" fill="#26c0e2"/>
</svg>
