<svg xmlns="http://www.w3.org/2000/svg" width="17" height="17" viewBox="0 0 17 17">
  <path id="stats" d="M15.938,0H1.063A1.063,1.063,0,0,0,0,1.063V11.688A1.063,1.063,0,0,0,1.063,12.75h4.25L3.188,17h.531l3.825-4.25H9.456L13.281,17h.531l-2.125-4.25h4.25A1.063,1.063,0,0,0,17,11.688V1.063A1.063,1.063,0,0,0,15.938,0Zm0,11.156a.531.531,0,0,1-.531.531H1.594a.531.531,0,0,1-.531-.531V1.594a.531.531,0,0,1,.531-.531H15.406a.531.531,0,0,1,.531.531ZM11.091,8.3,8.69,2.126,6.066,7.061,4.6,5.555,2.125,7.1l.7.4,1.587-.989L6.327,8.485,8.545,4.313,11,10.623l2.092-4.4.852,1.814.934-.157L13.093,4.088l-2,4.215Z" fill="#fff"/>
</svg>
