<svg xmlns="http://www.w3.org/2000/svg" width="17.005" height="17" viewBox="0 0 17.005 17">
  <path id="Subtraction_13" data-name="Subtraction 13" d="M12971.987,20645a5.97,5.97,0,0,1-3.951-1.5,6.036,6.036,0,0,1-1.992-3.68h-2.45a2.6,2.6,0,0,1-2.6-2.592v-6.643a2.6,2.6,0,0,1,2.6-2.59h6.642a2.593,2.593,0,0,1,2.591,2.59v2.457a6.005,6.005,0,0,1-.839,11.953Zm.062-9.5v1.025a3.32,3.32,0,0,0-1.984.787,2.443,2.443,0,0,0-.865,1.85,2.85,2.85,0,1,0,5.7,0h-1.217a1.63,1.63,0,1,1-3.26,0,1.607,1.607,0,0,1,1.627-1.414v1.01l2.036-1.424v-.2l-2.036-1.631Zm-8.455-5.834a.916.916,0,0,0-.928.926v6.643a.917.917,0,0,0,.928.928h2.45a6.051,6.051,0,0,1,5.119-5.113v-2.457a.916.916,0,0,0-.928-.926Z" transform="translate(-12960.997 -20628.002)" fill="#26c0e2"/>
</svg>
