<svg xmlns="http://www.w3.org/2000/svg" width="10.945" height="14" viewBox="0 0 10.945 14">
  <g id="noun_download_pdf_1765628" data-name="noun_download pdf_1765628" transform="translate(-18.7 -10)">
    <g id="Group_955" data-name="Group 955" transform="translate(18.7 10)">
      <path id="Path_2403" data-name="Path 2403" d="M35.227,39.9a1.254,1.254,0,0,0-.227.017v1.189h.21a.469.469,0,0,0,.437-.21.746.746,0,0,0,.1-.42C35.752,40.075,35.577,39.9,35.227,39.9Z" transform="translate(-32.15 -34.672)" fill="#26c0e2"/>
      <path id="Path_2404" data-name="Path 2404" d="M26.44,39.9H26.3v.49c.017,0,.087.017.122.017.35,0,.385-.14.385-.262C26.807,40.075,26.807,39.9,26.44,39.9Z" transform="translate(-24.971 -34.672)" fill="#26c0e2"/>
      <path id="Path_2405" data-name="Path 2405" d="M25.064,34.247a.645.645,0,0,0-.647-.647h-5.07a.645.645,0,0,0-.647.647V36.38a.645.645,0,0,0,.647.647h5.07a.645.645,0,0,0,.647-.647Zm-4.353,1.171a.924.924,0,0,1-.594.175h-.087v.734h-.42V34.369l.087-.017a2.6,2.6,0,0,1,.49-.052.854.854,0,0,1,.559.157.58.58,0,0,1,.227.455A.613.613,0,0,1,20.711,35.418Zm1.8.542a.975.975,0,0,1-.787.332c-.1,0-.262-.017-.49-.035l-.052-.017V34.369l.052-.017a5.375,5.375,0,0,1,.559-.052.9.9,0,0,1,.734.3.953.953,0,0,1,.192.647A1.1,1.1,0,0,1,22.511,35.96Zm1.643-1.241h-.839v.367h.769v.42h-.769v.822h-.437V34.352h1.276Z" transform="translate(-18.7 -29.474)" fill="#26c0e2"/>
      <path id="Path_2406" data-name="Path 2406" d="M31.933,10v.017H27.264a.646.646,0,0,0-.664.629v3.147h.542V10.979a.433.433,0,0,1,.437-.437h4.353V13.6a.672.672,0,0,0,.647.664h3.06v7.5a.433.433,0,0,1-.437.437H33.244c-.017.017-.017.035-.035.052l-.367.472h2.675a.649.649,0,0,0,.647-.664V14.249Z" transform="translate(-25.219 -10)" fill="#26c0e2"/>
      <path id="Path_2407" data-name="Path 2407" d="M29.537,59.271H27.579a.433.433,0,0,1-.437-.437V54.9H26.6v4.231a.664.664,0,0,0,.664.664h2.675l-.367-.472C29.572,59.306,29.555,59.288,29.537,59.271Z" transform="translate(-25.219 -47.05)" fill="#26c0e2"/>
      <path id="Path_2408" data-name="Path 2408" d="M47.825,64.81h-.7V62.4a.291.291,0,0,0-.28-.3h-.874a.306.306,0,0,0-.3.3V64.81h-.7a.165.165,0,0,0-.14.262l1.416,1.853a.182.182,0,0,0,.28,0l1.416-1.853A.155.155,0,0,0,47.825,64.81Z" transform="translate(-40.237 -52.991)" fill="#26c0e2"/>
    </g>
  </g>
</svg>
