<?xml version="1.0" encoding="UTF-8"?>
<svg width="24px" height="24px" viewBox="0 0 24 24" version="1.1" xmlns="http://www.w3.org/2000/svg" xmlns:xlink="http://www.w3.org/1999/xlink">
    <!-- Generator: Sketch 50.2 (55047) - http://www.bohemiancoding.com/sketch -->
    <title>ic_Facebook_active</title>
    <desc>Created with Sketch.</desc>
    <defs></defs>
    <g id="Homepage" stroke="none" stroke-width="1" fill="none" fill-rule="evenodd">
        <g id="UI_default" transform="translate(-730.000000, -2903.000000)" fill="#FFFFFF">
            <g id="Group-6" transform="translate(0.000000, 2746.000000)">
                <path d="M753.999346,179.674875 C753.999346,180.406407 753.406407,181 752.674875,181 L746.559163,181 L746.559163,171.705818 L749.678797,171.705818 L750.146219,168.084114 L746.559163,168.084114 L746.559163,165.771192 C746.559163,164.722598 746.85073,164.008063 748.354326,164.008063 L750.27239,164.007409 L750.27239,160.767487 C749.940292,160.723687 748.802136,160.624973 747.477664,160.624973 C744.712356,160.624973 742.819133,162.312922 742.819133,165.412944 L742.819133,168.084114 L739.691654,168.084114 L739.691654,171.705818 L742.819133,171.705818 L742.819133,181 L731.324472,181 C730.59294,181 730,180.406407 730,179.674875 L730,158.325125 C730,157.59294 730.59294,157 731.324472,157 L752.674875,157 C753.406407,157 753.999346,157.59294 753.999346,158.325125 L753.999346,179.674875" id="ic_Facebook_active"></path>
            </g>
        </g>
    </g>
</svg>