<?xml version="1.0" encoding="UTF-8"?>
<svg width="16px" height="15px" viewBox="0 0 16 15" version="1.1" xmlns="http://www.w3.org/2000/svg" xmlns:xlink="http://www.w3.org/1999/xlink">
    <!-- Generator: Sketch 50.2 (55047) - http://www.bohemiancoding.com/sketch -->
    <title>ic_star_empty</title>
    <desc>Created with Sketch.</desc>
    <defs></defs>
    <g id="UI--Category_Rearch-Result-Page-Copy" stroke="none" stroke-width="1" fill="none" fill-rule="evenodd" fill-opacity="0.1">
        <g id="VS01" transform="translate(-1103.000000, -305.000000)" fill="#677690">
            <g id="Group-10" transform="translate(410.000000, 265.000000)">
                <g id="Group-2">
                    <g id="Group-7" transform="translate(625.000000, 40.000000)">
                        <g id="ic_star_empty" transform="translate(68.000000, 0.000000)">
                            <path d="M3.55555556,14.9617778 C3.44497778,14.9617778 3.33511111,14.9297778 3.24195556,14.8622222 C3.07768889,14.7413333 2.99555556,14.5386667 3.02968889,14.3395556 L3.83395556,9.64977778 L0.427733333,6.33244444 C0.282311111,6.19022222 0.230044444,5.97688889 0.292622222,5.78488889 C0.355555556,5.58933333 0.522311111,5.45066667 0.7232,5.42222222 L5.43075556,4.736 L7.536,0.472888889 C7.62595556,0.288 7.8112,0.174222222 8.01422222,0.174222222 C8.21724444,0.174222222 8.40248889,0.288 8.49244444,0.472888889 L10.5976889,4.736 L15.3048889,5.42222222 C15.5057778,5.45066667 15.6728889,5.58933333 15.7354667,5.78488889 C15.7984,5.97688889 15.7461333,6.19022222 15.6003556,6.33244444 L12.1944889,9.64977778 L12.9984,14.3395556 C13.0325333,14.5386667 12.9504,14.7413333 12.7861333,14.8622222 C12.6218667,14.9795556 12.4046222,14.9973333 12.2243556,14.9013333 L8.01422222,12.6897778 L3.80373333,14.9013333 C3.72586667,14.944 3.64053333,14.9617778 3.55555556,14.9617778 Z" id="4J"></path>
                        </g>
                    </g>
                </g>
            </g>
        </g>
    </g>
</svg>