<svg xmlns="http://www.w3.org/2000/svg" x="0px" y="0px" width="28" height="28" viewBox="0,0,256,256">
  <g fill="#ffffff" fill-rule="nonzero" stroke="none" stroke-width="1" stroke-linecap="butt" stroke-linejoin="miter" stroke-miterlimit="10" stroke-dasharray="" stroke-dashoffset="0" font-family="none" font-weight="none" font-size="none" text-anchor="none" style="mix-blend-mode: normal"><path d="M128,256c-70.69245,0 -128,-57.30755 -128,-128v0c0,-70.69245 57.30755,-128 128,-128v0c70.69245,0 128,57.30755 128,128v0c0,70.69245 -57.30755,128 -128,128z" id="shape"></path></g><g fill="#000000" fill-rule="nonzero" stroke="none" stroke-width="1" stroke-linecap="butt" stroke-linejoin="miter" stroke-miterlimit="10" stroke-dasharray="" stroke-dashoffset="0" font-family="none" font-weight="none" font-size="none" text-anchor="none" style="mix-blend-mode: normal"><g transform="scale(8,8)"><path d="M4.01758,4l9.07422,13.60938l-8.75586,10.39063h2.61523l7.29492,-8.65625l5.77148,8.65625h0.53516h7.46289l-9.30273,-13.95703l8.46289,-10.04297h-2.61523l-7.00195,8.31055l-5.54102,-8.31055zM7.75586,6h3.19141l13.33203,20h-3.19141z"></path></g></g>
</svg>
