<svg xmlns="http://www.w3.org/2000/svg" x="0px" y="0px" width="28" height="28" viewBox="0,0,256,256">
  <g fill="#ffffff" fill-rule="nonzero" stroke="none" stroke-width="1" stroke-linecap="butt" stroke-linejoin="miter" stroke-miterlimit="10" stroke-dasharray="" stroke-dashoffset="0" font-family="none" font-weight="none" font-size="none" text-anchor="none" style="mix-blend-mode: normal"><path d="M128,256c-70.69245,0 -128,-57.30755 -128,-128v0c0,-70.69245 57.30755,-128 128,-128v0c70.69245,0 128,57.30755 128,128v0c0,70.69245 -57.30755,128 -128,128z" id="shape"></path></g><g fill="#000000" fill-rule="nonzero" stroke="none" stroke-width="1" stroke-linecap="butt" stroke-linejoin="miter" stroke-miterlimit="10" stroke-dasharray="" stroke-dashoffset="0" font-family="none" font-weight="none" font-size="none" text-anchor="none" style="mix-blend-mode: normal"><g transform="scale(4,4)"><path d="M56.456,17.442c-0.339,-1.44 -1.421,-2.595 -2.866,-3.053c-3.829,-1.215 -12.136,-2.389 -21.59,-2.389c-9.454,0 -17.761,1.174 -21.591,2.389c-1.445,0.458 -2.527,1.613 -2.866,3.053c-0.64,2.719 -1.543,7.761 -1.543,14.558c0,6.797 0.903,11.839 1.544,14.558c0.339,1.44 1.421,2.595 2.866,3.053c3.829,1.215 12.136,2.389 21.59,2.389c9.454,0 17.761,-1.174 21.591,-2.389c1.445,-0.458 2.527,-1.613 2.866,-3.053c0.64,-2.719 1.543,-7.761 1.543,-14.558c0,-6.797 -0.903,-11.839 -1.544,-14.558zM27,40v-16l14.857,8z"></path></g></g>
</svg>
