<?xml version="1.0" encoding="UTF-8"?>
<svg width="80px" height="63px" viewBox="0 0 80 63" version="1.1" xmlns="http://www.w3.org/2000/svg" xmlns:xlink="http://www.w3.org/1999/xlink">
    <!-- Generator: Sketch 50.2 (55047) - http://www.bohemiancoding.com/sketch -->
    <title>ic_compute_active</title>
    <desc>Created with Sketch.</desc>
    <defs></defs>
    <g id="Homepage" stroke="none" stroke-width="1" fill="none" fill-rule="evenodd">
        <g id="UI_hover2" transform="translate(-367.000000, -1237.000000)">
            <g id="ic_compute_active" transform="translate(367.000000, 1237.000000)">
                <path d="M53.412562,36.4991736 L10.8654545,36.4991736 C10.2066116,36.4991736 9.67041322,37.067438 9.67041322,37.7657851 L9.67041322,45.7844628 C9.67041322,46.4828099 10.2066116,47.0510744 10.8654545,47.0510744 L53.412562,47.0510744 C54.0715702,47.0510744 54.6076033,46.4828099 54.6076033,45.7844628 L54.6076033,37.7657851 C54.6076033,37.067438 54.0715702,36.4991736 53.412562,36.4991736 Z M29.672562,43.5264463 C29.672562,44.1960331 29.1256198,44.7406612 28.4533884,44.7406612 L12.4515702,44.7406612 C11.7793388,44.7406612 11.2323967,44.1960331 11.2323967,43.5264463 L11.2323967,40.0241322 C11.2323967,39.3545455 11.7793388,38.8097521 12.4515702,38.8097521 L28.4533884,38.8097521 C29.1256198,38.8097521 29.672562,39.3545455 29.672562,40.0241322 L29.672562,43.5264463 Z M33.8069421,44.7553719 C32.1540496,44.7553719 30.8092562,43.4185124 30.8092562,41.7753719 C30.8092562,40.1320661 32.1540496,38.7952066 33.8069421,38.7952066 C35.4598347,38.7952066 36.8046281,40.1320661 36.8046281,41.7753719 C36.8046281,43.4183471 35.4598347,44.7553719 33.8069421,44.7553719 Z M41.7753719,44.7553719 C40.122314,44.7553719 38.777686,43.4185124 38.777686,41.7753719 C38.777686,40.1320661 40.1224793,38.7952066 41.7753719,38.7952066 C43.4282645,38.7952066 44.7730579,40.1320661 44.7730579,41.7753719 C44.7730579,43.4183471 43.4282645,44.7553719 41.7753719,44.7553719 Z M49.7439669,44.7553719 C48.0909091,44.7553719 46.746281,43.4185124 46.746281,41.7753719 C46.746281,40.1320661 48.0910744,38.7952066 49.7439669,38.7952066 C51.3968595,38.7952066 52.7416529,40.1320661 52.7416529,41.7753719 C52.7414876,43.4183471 51.3968595,44.7553719 49.7439669,44.7553719 Z" id="Shape"></path>
                <path d="M55.727438,23.806281 L55.727438,31.8249587 C55.727438,33.1408264 54.6889256,34.211405 53.412562,34.211405 L10.8654545,34.211405 C9.58909091,34.211405 8.55057851,33.1408264 8.55057851,31.8249587 L8.55057851,27.5170248 C4.51107438,29.8659504 1.78743802,34.2385124 1.78743802,39.2385124 C1.78743802,44.2813223 4.55636364,48.6890909 8.65322314,51.0231405 C8.94479339,50.0489256 9.8261157,49.3390083 10.8654545,49.3390083 L53.412562,49.3390083 C54.6889256,49.3390083 55.727438,50.4094215 55.727438,51.7252893 L55.727438,52.7920661 L67.6595041,52.7920661 C73.4833058,52.7920661 78.2214876,48.0528926 78.2214876,42.2279339 C78.2214876,36.4044628 73.4834711,31.666281 67.6595041,31.6659504 C66.0596694,31.6659504 64.5249587,32.0132231 63.097686,32.6980165 L61.28,33.5699174 L61.9633058,31.6732231 C62.8327273,29.2596694 63.2735537,26.7173554 63.2735537,24.1161983 C63.2735537,11.7829752 53.24,1.74942149 40.9066116,1.74942149 C29.4864463,1.74942149 20.0416529,10.353719 18.7056198,21.4195041 L53.4127273,21.4195041 C54.6889256,21.4198347 55.727438,22.4904132 55.727438,23.806281 Z M55.727438,45.7846281 C55.727438,47.1004959 54.6889256,48.1709091 53.412562,48.1709091 L10.8654545,48.1709091 C9.58909091,48.1709091 8.55057851,47.1004959 8.55057851,45.7846281 L8.55057851,37.7659504 C8.55057851,36.4500826 9.58909091,35.3795041 10.8654545,35.3795041 L53.412562,35.3795041 C54.6889256,35.3795041 55.727438,36.4500826 55.727438,37.7659504 L55.727438,45.7846281 Z" id="Shape"></path>
                <path d="M41.7753719,29.7533884 C42.8109091,29.7533884 43.6532231,28.918843 43.6532231,27.8930579 C43.6532231,26.8672727 42.8109091,26.0327273 41.7753719,26.0327273 C40.7398347,26.0327273 39.8973554,26.8672727 39.8973554,27.8930579 C39.8975207,28.918843 40.74,29.7533884 41.7753719,29.7533884 Z" id="Shape"></path>
                <path d="M33.8069421,29.7533884 C34.8424793,29.7533884 35.6847934,28.918843 35.6847934,27.8930579 C35.6847934,26.8672727 34.8424793,26.0327273 33.8069421,26.0327273 C32.771405,26.0327273 31.9290909,26.8672727 31.9290909,27.8930579 C31.9289256,28.918843 32.771405,29.7533884 33.8069421,29.7533884 Z" id="Shape"></path>
                <path d="M12.4515702,29.7390083 L28.4533884,29.7390083 C28.5080992,29.7390083 28.5527273,29.6965289 28.5527273,29.6444628 L28.5527273,26.1419835 C28.5527273,26.0897521 28.5080992,26.047438 28.4533884,26.047438 L12.4515702,26.047438 C12.3968595,26.047438 12.3522314,26.0899174 12.3522314,26.1419835 L12.3522314,29.6444628 C12.3522314,29.6965289 12.3968595,29.7390083 12.4515702,29.7390083 Z" id="Shape"></path>
                <path d="M49.7439669,29.7533884 C50.7795041,29.7533884 51.6218182,28.918843 51.6218182,27.8930579 C51.6218182,26.8672727 50.7795041,26.0327273 49.7439669,26.0327273 C48.7084298,26.0327273 47.8659504,26.8672727 47.8659504,27.8930579 C47.8659504,28.918843 48.7084298,29.7533884 49.7439669,29.7533884 Z" id="Shape"></path>
                <path d="M28.4533884,39.9295868 L12.4515702,39.9295868 C12.3968595,39.9295868 12.3522314,39.9720661 12.3522314,40.0241322 L12.3522314,43.5264463 C12.3522314,43.5785124 12.3968595,43.6209917 12.4515702,43.6209917 L28.4533884,43.6209917 C28.5080992,43.6209917 28.5527273,43.5785124 28.5527273,43.5264463 L28.5527273,40.0241322 C28.5527273,39.9720661 28.5080992,39.9295868 28.4533884,39.9295868 Z" id="Shape"></path>
                <path d="M33.8069421,39.914876 C32.771405,39.914876 31.9290909,40.7494215 31.9290909,41.7752066 C31.9290909,42.8009917 32.7715702,43.6353719 33.8069421,43.6353719 C34.8424793,43.6353719 35.6847934,42.8008264 35.6847934,41.7752066 C35.6847934,40.7494215 34.8424793,39.914876 33.8069421,39.914876 Z" id="Shape"></path>
                <path d="M49.7439669,39.914876 C48.7084298,39.914876 47.8659504,40.7494215 47.8659504,41.7752066 C47.8659504,42.8009917 48.7084298,43.6353719 49.7439669,43.6353719 C50.7795041,43.6353719 51.6218182,42.8008264 51.6218182,41.7752066 C51.6218182,40.7494215 50.7793388,39.914876 49.7439669,39.914876 Z" id="Shape"></path>
                <path d="M41.7753719,39.914876 C40.7398347,39.914876 39.8973554,40.7494215 39.8973554,41.7752066 C39.8973554,42.8009917 40.7398347,43.6353719 41.7753719,43.6353719 C42.8109091,43.6353719 43.6532231,42.8008264 43.6532231,41.7752066 C43.6532231,40.7494215 42.8109091,39.914876 41.7753719,39.914876 Z" id="Shape"></path>
                <path d="M10.8654545,33.0915702 L53.412562,33.0915702 C54.0715702,33.0915702 54.6076033,32.5233058 54.6076033,31.8249587 L54.6076033,23.806281 C54.6076033,23.1079339 54.0715702,22.5396694 53.412562,22.5396694 L10.8654545,22.5396694 C10.2066116,22.5396694 9.67041322,23.1079339 9.67041322,23.806281 L9.67041322,31.8249587 C9.67041322,32.5233058 10.2064463,33.0915702 10.8654545,33.0915702 Z M49.7439669,24.9128926 C51.3968595,24.9128926 52.7416529,26.2497521 52.7416529,27.8930579 C52.7416529,29.5363636 51.3968595,30.8732231 49.7439669,30.8732231 C48.0909091,30.8732231 46.746281,29.5363636 46.746281,27.8930579 C46.7461157,26.2497521 48.0909091,24.9128926 49.7439669,24.9128926 Z M41.7753719,24.9128926 C43.4282645,24.9128926 44.7730579,26.2497521 44.7730579,27.8930579 C44.7730579,29.5363636 43.4282645,30.8732231 41.7753719,30.8732231 C40.122314,30.8732231 38.777686,29.5363636 38.777686,27.8930579 C38.777686,26.2497521 40.122314,24.9128926 41.7753719,24.9128926 Z M33.8069421,24.9128926 C35.4598347,24.9128926 36.8046281,26.2497521 36.8046281,27.8930579 C36.8046281,29.5363636 35.4598347,30.8732231 33.8069421,30.8732231 C32.1540496,30.8732231 30.8092562,29.5363636 30.8092562,27.8930579 C30.8092562,26.2497521 32.1538843,24.9128926 33.8069421,24.9128926 Z M11.2323967,26.1419835 C11.2323967,25.4723967 11.7793388,24.9276033 12.4515702,24.9276033 L28.4533884,24.9276033 C29.1256198,24.9276033 29.672562,25.4723967 29.672562,26.1419835 L29.672562,29.6444628 C29.672562,30.3140496 29.1256198,30.858843 28.4533884,30.858843 L12.4515702,30.858843 C11.7793388,30.858843 11.2323967,30.3142149 11.2323967,29.6446281 L11.2323967,26.1419835 Z" id="Shape"></path>
                <path d="M49.7439669,54.2456198 C48.7084298,54.2456198 47.8659504,55.0801653 47.8659504,56.1059504 C47.8659504,57.1317355 48.7084298,57.966281 49.7439669,57.966281 C50.7795041,57.966281 51.6218182,57.1317355 51.6218182,56.1059504 C51.6218182,55.0801653 50.7793388,54.2456198 49.7439669,54.2456198 Z" id="Shape"></path>
                <path d="M41.7753719,54.2456198 C40.7398347,54.2456198 39.8973554,55.0801653 39.8973554,56.1059504 C39.8973554,57.1317355 40.7398347,57.966281 41.7753719,57.966281 C42.8109091,57.966281 43.6532231,57.1317355 43.6532231,56.1059504 C43.6532231,55.0801653 42.8109091,54.2456198 41.7753719,54.2456198 Z" id="Shape"></path>
                <path d="M53.412562,50.458843 L10.8654545,50.458843 C10.2066116,50.458843 9.67041322,51.0271074 9.67041322,51.7254545 L9.67041322,59.7442975 C9.67041322,60.4426446 10.2066116,61.0109091 10.8654545,61.0109091 L53.412562,61.0109091 C54.0715702,61.0109091 54.6076033,60.4426446 54.6076033,59.7442975 L54.6076033,51.7254545 C54.6076033,51.0271074 54.0715702,50.458843 53.412562,50.458843 Z M29.672562,57.8571901 C29.672562,58.5269421 29.1256198,59.0717355 28.4533884,59.0717355 L12.4515702,59.0717355 C11.7793388,59.0717355 11.2323967,58.5269421 11.2323967,57.8573554 L11.2323967,54.3550413 C11.2323967,53.6854545 11.7793388,53.1408264 12.4515702,53.1408264 L28.4533884,53.1408264 C29.1256198,53.1408264 29.672562,53.6854545 29.672562,54.3550413 L29.672562,57.8571901 Z M33.8069421,59.0861157 C32.1540496,59.0861157 30.8092562,57.7492562 30.8092562,56.1059504 C30.8092562,54.4626446 32.1540496,53.1257851 33.8069421,53.1257851 C35.4598347,53.1257851 36.8046281,54.4626446 36.8046281,56.1059504 C36.8046281,57.7492562 35.4598347,59.0861157 33.8069421,59.0861157 Z M41.7753719,59.0861157 C40.122314,59.0861157 38.777686,57.7492562 38.777686,56.1059504 C38.777686,54.4626446 40.1224793,53.1257851 41.7753719,53.1257851 C43.4282645,53.1257851 44.7730579,54.4626446 44.7730579,56.1059504 C44.7730579,57.7492562 43.4282645,59.0861157 41.7753719,59.0861157 Z M49.7439669,59.0861157 C48.0909091,59.0861157 46.746281,57.7492562 46.746281,56.1059504 C46.746281,54.4626446 48.0910744,53.1257851 49.7439669,53.1257851 C51.3968595,53.1257851 52.7416529,54.4626446 52.7416529,56.1059504 C52.7414876,57.7492562 51.3968595,59.0861157 49.7439669,59.0861157 Z" id="Shape"></path>
                <path d="M33.8069421,54.2456198 C32.771405,54.2456198 31.9290909,55.0801653 31.9290909,56.1059504 C31.9290909,57.1317355 32.7715702,57.966281 33.8069421,57.966281 C34.8424793,57.966281 35.6847934,57.1317355 35.6847934,56.1059504 C35.6847934,55.0801653 34.8424793,54.2456198 33.8069421,54.2456198 Z" id="Shape"></path>
                <path d="M28.4533884,54.2604959 L12.4515702,54.2604959 C12.3968595,54.2604959 12.3522314,54.3029752 12.3522314,54.3550413 L12.3522314,57.8573554 C12.3522314,57.9095868 12.3968595,57.9519008 12.4515702,57.9519008 L28.4533884,57.9519008 C28.5080992,57.9519008 28.5527273,57.9094215 28.5527273,57.8571901 L28.5527273,54.3550413 C28.5527273,54.3028099 28.5080992,54.2604959 28.4533884,54.2604959 Z" id="Shape"></path>
                <path d="M12.4515702,30.858843 L28.4533884,30.858843 C29.1256198,30.858843 29.672562,30.3140496 29.672562,29.6444628 L29.672562,26.1419835 C29.672562,25.4723967 29.1256198,24.9276033 28.4533884,24.9276033 L12.4515702,24.9276033 C11.7793388,24.9276033 11.2323967,25.4723967 11.2323967,26.1419835 L11.2323967,29.6444628 C11.2323967,30.3140496 11.7793388,30.858843 12.4515702,30.858843 Z M12.3522314,26.1419835 C12.3522314,26.0897521 12.3968595,26.047438 12.4515702,26.047438 L28.4533884,26.047438 C28.5080992,26.047438 28.5527273,26.0899174 28.5527273,26.1419835 L28.5527273,29.6444628 C28.5527273,29.6966942 28.5080992,29.7390083 28.4533884,29.7390083 L12.4515702,29.7390083 C12.3968595,29.7390083 12.3522314,29.6966942 12.3522314,29.6444628 L12.3522314,26.1419835 Z" id="Shape" fill="#0047BA" fill-rule="nonzero"></path>
                <path d="M33.8069421,30.8732231 C35.4598347,30.8732231 36.8046281,29.5363636 36.8046281,27.8930579 C36.8046281,26.2497521 35.4598347,24.9128926 33.8069421,24.9128926 C32.1540496,24.9128926 30.8092562,26.2497521 30.8092562,27.8930579 C30.8092562,29.5363636 32.1538843,30.8732231 33.8069421,30.8732231 Z M33.8069421,26.0327273 C34.8424793,26.0327273 35.6847934,26.8672727 35.6847934,27.8930579 C35.6847934,28.918843 34.8424793,29.7533884 33.8069421,29.7533884 C32.771405,29.7533884 31.9290909,28.918843 31.9290909,27.8930579 C31.9289256,26.8672727 32.771405,26.0327273 33.8069421,26.0327273 Z" id="Shape" fill="#0047BA" fill-rule="nonzero"></path>
                <path d="M41.7753719,30.8732231 C43.4282645,30.8732231 44.7730579,29.5363636 44.7730579,27.8930579 C44.7730579,26.2497521 43.4282645,24.9128926 41.7753719,24.9128926 C40.122314,24.9128926 38.777686,26.2497521 38.777686,27.8930579 C38.777686,29.5363636 40.122314,30.8732231 41.7753719,30.8732231 Z M41.7753719,26.0327273 C42.8109091,26.0327273 43.6532231,26.8672727 43.6532231,27.8930579 C43.6532231,28.918843 42.8109091,29.7533884 41.7753719,29.7533884 C40.7398347,29.7533884 39.8973554,28.918843 39.8973554,27.8930579 C39.8975207,26.8672727 40.74,26.0327273 41.7753719,26.0327273 Z" id="Shape" fill="#0047BA" fill-rule="nonzero"></path>
                <path d="M49.7439669,30.8732231 C51.3968595,30.8732231 52.7416529,29.5363636 52.7416529,27.8930579 C52.7416529,26.2497521 51.3968595,24.9128926 49.7439669,24.9128926 C48.0909091,24.9128926 46.746281,26.2497521 46.746281,27.8930579 C46.7461157,29.5363636 48.0909091,30.8732231 49.7439669,30.8732231 Z M49.7439669,26.0327273 C50.7795041,26.0327273 51.6218182,26.8672727 51.6218182,27.8930579 C51.6218182,28.918843 50.7795041,29.7533884 49.7439669,29.7533884 C48.7084298,29.7533884 47.8659504,28.918843 47.8659504,27.8930579 C47.8659504,26.8672727 48.7084298,26.0327273 49.7439669,26.0327273 Z" id="Shape" fill="#0047BA" fill-rule="nonzero"></path>
                <path d="M28.4533884,53.1406612 L12.4515702,53.1406612 C11.7793388,53.1406612 11.2323967,53.6852893 11.2323967,54.354876 L11.2323967,57.8571901 C11.2323967,58.5267769 11.7793388,59.0715702 12.4515702,59.0715702 L28.4533884,59.0715702 C29.1256198,59.0715702 29.672562,58.5267769 29.672562,57.8570248 L29.672562,54.354876 C29.672562,53.6852893 29.1256198,53.1406612 28.4533884,53.1406612 Z M28.5527273,57.8571901 C28.5527273,57.9094215 28.5080992,57.9519008 28.4533884,57.9519008 L12.4515702,57.9519008 C12.3968595,57.9519008 12.3522314,57.9094215 12.3522314,57.8573554 L12.3522314,54.3550413 C12.3522314,54.3029752 12.3968595,54.2604959 12.4515702,54.2604959 L28.4533884,54.2604959 C28.5080992,54.2604959 28.5527273,54.3029752 28.5527273,54.3550413 L28.5527273,57.8571901 Z" id="Shape" fill="#0047BA" fill-rule="nonzero"></path>
                <path d="M33.8069421,53.1257851 C32.1540496,53.1257851 30.8092562,54.4626446 30.8092562,56.1059504 C30.8092562,57.7492562 32.1540496,59.0861157 33.8069421,59.0861157 C35.4598347,59.0861157 36.8046281,57.7492562 36.8046281,56.1059504 C36.8046281,54.4626446 35.4598347,53.1257851 33.8069421,53.1257851 Z M33.8069421,57.966281 C32.771405,57.966281 31.9290909,57.1317355 31.9290909,56.1059504 C31.9290909,55.0801653 32.7715702,54.2456198 33.8069421,54.2456198 C34.8424793,54.2456198 35.6847934,55.0801653 35.6847934,56.1059504 C35.6847934,57.1317355 34.8424793,57.966281 33.8069421,57.966281 Z" id="Shape" fill="#0047BA" fill-rule="nonzero"></path>
                <path d="M41.7753719,53.1257851 C40.122314,53.1257851 38.777686,54.4626446 38.777686,56.1059504 C38.777686,57.7492562 40.1224793,59.0861157 41.7753719,59.0861157 C43.4282645,59.0861157 44.7730579,57.7492562 44.7730579,56.1059504 C44.7730579,54.4626446 43.4282645,53.1257851 41.7753719,53.1257851 Z M41.7753719,57.966281 C40.7398347,57.966281 39.8973554,57.1317355 39.8973554,56.1059504 C39.8973554,55.0801653 40.7398347,54.2456198 41.7753719,54.2456198 C42.8109091,54.2456198 43.6532231,55.0801653 43.6532231,56.1059504 C43.6532231,57.1317355 42.8109091,57.966281 41.7753719,57.966281 Z" id="Shape" fill="#0047BA" fill-rule="nonzero"></path>
                <path d="M49.7439669,53.1257851 C48.0909091,53.1257851 46.746281,54.4626446 46.746281,56.1059504 C46.746281,57.7492562 48.0910744,59.0861157 49.7439669,59.0861157 C51.3968595,59.0861157 52.7416529,57.7492562 52.7416529,56.1059504 C52.7414876,54.4626446 51.3968595,53.1257851 49.7439669,53.1257851 Z M49.7439669,57.966281 C48.7084298,57.966281 47.8659504,57.1317355 47.8659504,56.1059504 C47.8659504,55.0801653 48.7084298,54.2456198 49.7439669,54.2456198 C50.7795041,54.2456198 51.6218182,55.0801653 51.6218182,56.1059504 C51.6218182,57.1317355 50.7793388,57.966281 49.7439669,57.966281 Z" id="Shape" fill="#0047BA" fill-rule="nonzero"></path>
                <path d="M53.412562,35.3793388 L10.8654545,35.3793388 C9.58909091,35.3793388 8.55057851,36.4499174 8.55057851,37.7657851 L8.55057851,45.7844628 C8.55057851,47.1003306 9.58909091,48.1707438 10.8654545,48.1707438 L53.412562,48.1707438 C54.6889256,48.1707438 55.727438,47.1003306 55.727438,45.7844628 L55.727438,37.7657851 C55.727438,36.4499174 54.6889256,35.3793388 53.412562,35.3793388 Z M54.6076033,45.7846281 C54.6076033,46.4829752 54.0715702,47.0512397 53.412562,47.0512397 L10.8654545,47.0512397 C10.2066116,47.0512397 9.67041322,46.4829752 9.67041322,45.7846281 L9.67041322,37.7659504 C9.67041322,37.0676033 10.2066116,36.4993388 10.8654545,36.4993388 L53.412562,36.4993388 C54.0715702,36.4993388 54.6076033,37.0676033 54.6076033,37.7659504 L54.6076033,45.7846281 Z" id="Shape" fill="#0047BA" fill-rule="nonzero"></path>
                <path d="M28.4533884,38.8097521 L12.4515702,38.8097521 C11.7793388,38.8097521 11.2323967,39.3545455 11.2323967,40.0241322 L11.2323967,43.5264463 C11.2323967,44.1960331 11.7793388,44.7406612 12.4515702,44.7406612 L28.4533884,44.7406612 C29.1256198,44.7406612 29.672562,44.1960331 29.672562,43.5264463 L29.672562,40.0241322 C29.672562,39.3545455 29.1256198,38.8097521 28.4533884,38.8097521 Z M28.5527273,43.5264463 C28.5527273,43.5785124 28.5080992,43.6209917 28.4533884,43.6209917 L12.4515702,43.6209917 C12.3968595,43.6209917 12.3522314,43.5785124 12.3522314,43.5264463 L12.3522314,40.0241322 C12.3522314,39.9720661 12.3968595,39.9295868 12.4515702,39.9295868 L28.4533884,39.9295868 C28.5080992,39.9295868 28.5527273,39.9720661 28.5527273,40.0241322 L28.5527273,43.5264463 Z" id="Shape" fill="#0047BA" fill-rule="nonzero"></path>
                <path d="M33.8069421,38.7950413 C32.1540496,38.7950413 30.8092562,40.1319008 30.8092562,41.7752066 C30.8092562,43.4183471 32.1540496,44.7552066 33.8069421,44.7552066 C35.4598347,44.7552066 36.8046281,43.4183471 36.8046281,41.7752066 C36.8046281,40.1319008 35.4598347,38.7950413 33.8069421,38.7950413 Z M33.8069421,43.6355372 C32.771405,43.6355372 31.9290909,42.8009917 31.9290909,41.7753719 C31.9290909,40.7495868 32.7715702,39.9150413 33.8069421,39.9150413 C34.8424793,39.9150413 35.6847934,40.7495868 35.6847934,41.7753719 C35.6847934,42.8009917 34.8424793,43.6355372 33.8069421,43.6355372 Z" id="Shape" fill="#0047BA" fill-rule="nonzero"></path>
                <path d="M41.7753719,38.7950413 C40.122314,38.7950413 38.777686,40.1319008 38.777686,41.7752066 C38.777686,43.4183471 40.1224793,44.7552066 41.7753719,44.7552066 C43.4282645,44.7552066 44.7730579,43.4183471 44.7730579,41.7752066 C44.7730579,40.1319008 43.4282645,38.7950413 41.7753719,38.7950413 Z M41.7753719,43.6355372 C40.7398347,43.6355372 39.8973554,42.8009917 39.8973554,41.7753719 C39.8973554,40.7495868 40.7398347,39.9150413 41.7753719,39.9150413 C42.8109091,39.9150413 43.6532231,40.7495868 43.6532231,41.7753719 C43.6532231,42.8009917 42.8109091,43.6355372 41.7753719,43.6355372 Z" id="Shape" fill="#0047BA" fill-rule="nonzero"></path>
                <path d="M49.7439669,38.7950413 C48.0909091,38.7950413 46.746281,40.1319008 46.746281,41.7752066 C46.746281,43.4183471 48.0910744,44.7552066 49.7439669,44.7552066 C51.3968595,44.7552066 52.7416529,43.4183471 52.7416529,41.7752066 C52.7414876,40.1319008 51.3968595,38.7950413 49.7439669,38.7950413 Z M49.7439669,43.6355372 C48.7084298,43.6355372 47.8659504,42.8009917 47.8659504,41.7753719 C47.8659504,40.7495868 48.7084298,39.9150413 49.7439669,39.9150413 C50.7795041,39.9150413 51.6218182,40.7495868 51.6218182,41.7753719 C51.6218182,42.8009917 50.7793388,43.6355372 49.7439669,43.6355372 Z" id="Shape" fill="#0047BA" fill-rule="nonzero"></path>
                <path d="M9.67041322,23.806281 L9.67041322,31.8249587 C9.67041322,32.5233058 10.2066116,33.0915702 10.8654545,33.0915702 L53.412562,33.0915702 C54.0715702,33.0915702 54.6076033,32.5233058 54.6076033,31.8249587 L54.6076033,23.806281 C54.6076033,23.1079339 54.0715702,22.5396694 53.412562,22.5396694 L10.8654545,22.5396694 C10.2066116,22.5396694 9.67041322,23.1079339 9.67041322,23.806281 Z" id="Shape"></path>
                <path d="M8.87140496,51.1431405 C9.03669019,51.314266 9.20319433,51.4807789 9.37140496,51.6431405 C9.20319433,51.4803176 9.03669019,51.3138047 8.87140496,51.1431405 Z" id="Shape"></path>
                <path d="M17.2016364,21.4198347 C17.1106364,21.6887603 17.0276364,21.9586777 16.9636364,22.2302479 C17.0276364,21.9586777 17.1101364,21.6887603 17.2016364,21.4198347 Z" id="Shape"></path>
                <path d="M53.412562,50.4586777 L10.8654545,50.4586777 C10.2066116,50.4586777 9.67041322,51.0269421 9.67041322,51.7252893 L9.67041322,59.7441322 C9.67041322,60.4424793 10.2066116,61.0107438 10.8654545,61.0107438 L53.412562,61.0107438 C54.0715702,61.0107438 54.6076033,60.4424793 54.6076033,59.7441322 L54.6076033,51.7252893 C54.6076033,51.0269421 54.0715702,50.4586777 53.412562,50.4586777 Z" id="Shape"></path>
                <rect id="Rectangle-path" x="9.44743802" y="51.4424793" width="1" height="1.81305785"></rect>
                <path d="M67.6596694,30.0142149 C66.4191736,30.0142149 65.2122314,30.1950413 64.0530579,30.5533884 C64.632562,28.4704132 64.9254545,26.3123967 64.9254545,24.1166942 C64.9254545,10.8727273 54.1505785,0.0978512397 40.9064463,0.0978512397 C28.5740496,0.0978512397 18.3867769,9.44066116 17.042314,21.4198347 C17.0120661,21.6887603 16.9847934,21.9586777 16.9636364,22.2302479 C16.9847934,21.9586777 17.0122314,21.6887603 17.042314,21.4198347 L10.8654545,21.4198347 C9.58909091,21.4198347 8.55057851,22.4904132 8.55057851,23.806281 L8.55057851,25.6398347 C8.76380165,25.5328926 8.97867769,25.4290909 9.19752066,25.3320661 L9.19752066,27.1619835 C8.97801653,27.2740496 8.76297521,27.3935537 8.55057851,27.5170248 L8.55057851,31.8249587 C8.55057851,33.1408264 9.58909091,34.211405 10.8654545,34.211405 L53.412562,34.211405 C54.6889256,34.211405 55.727438,33.1408264 55.727438,31.8249587 L55.727438,23.806281 C55.727438,22.4904132 54.6889256,21.4198347 53.412562,21.4198347 L18.7054545,21.4198347 C20.0414876,10.3540496 29.486281,1.74975207 40.9064463,1.74975207 C53.2398347,1.74975207 63.2733884,11.7833058 63.2733884,24.1165289 C63.2733884,26.7175207 62.832562,29.26 61.9631405,31.6735537 L61.2798347,33.5702479 L63.0975207,32.6983471 C64.5246281,32.0135537 66.0595041,31.666281 67.6593388,31.666281 C73.4831405,31.6666116 78.2213223,36.4046281 78.2213223,42.2282645 C78.2213223,48.0530579 73.4833058,52.7923967 67.6593388,52.7923967 L55.7272727,52.7923967 L55.0854545,52.7923967 L55.0854545,52.7922314 L55.7272727,52.7922314 L55.7272727,51.7254545 C55.7272727,50.4095868 54.6887603,49.3391736 53.4123967,49.3391736 L10.8654545,49.3391736 C9.8261157,49.3391736 8.94479339,50.0492562 8.65322314,51.0233058 C8.65322314,51.0233058 8.65305785,51.0233058 8.65305785,51.0231405 C4.55619835,48.6890909 1.78727273,44.2813223 1.78727273,39.2385124 C1.78727273,34.2385124 4.51090909,29.8659504 8.55041322,27.5170248 C8.76280992,27.3935537 8.97785124,27.2740496 9.19735537,27.1619835 L9.19735537,25.3322314 C8.97867769,25.4292562 8.76363636,25.5330579 8.55041322,25.64 C3.56628099,28.138843 0.135206612,33.2940496 0.135206612,39.2386777 C0.135206612,45.1838017 3.56578512,50.3413223 8.55041322,52.84 C8.55041322,52.84 8.55057851,52.84 8.55057851,52.84 L8.55057851,59.7441322 C8.55057851,61.06 9.58909091,62.1304132 10.8654545,62.1304132 L53.412562,62.1304132 C54.6889256,62.1304132 55.727438,61.06 55.727438,59.7441322 L55.727438,54.4442975 L67.6593388,54.4442975 C74.3938843,54.4442975 79.8730579,48.9641322 79.8733884,42.2282645 C79.8735537,35.493719 74.3943802,30.0145455 67.6596694,30.0142149 Z M53.412562,22.5396694 C54.0715702,22.5396694 54.6076033,23.1079339 54.6076033,23.806281 L54.6076033,31.8249587 C54.6076033,32.5233058 54.0715702,33.0915702 53.412562,33.0915702 L10.8654545,33.0915702 C10.2066116,33.0915702 9.67041322,32.5233058 9.67041322,31.8249587 L9.67041322,23.806281 C9.67041322,23.1079339 10.2066116,22.5396694 10.8654545,22.5396694 L53.412562,22.5396694 Z M9.21041322,51.322314 C9.09652893,51.2641322 8.98347107,51.2044628 8.87140496,51.1431405 C8.98347107,51.2042975 9.09636364,51.2639669 9.21041322,51.322314 Z M9.44760331,53.2555372 C9.44760331,53.2555372 9.44743802,53.2555372 9.44743802,53.2555372 L9.44743802,51.4424793 C9.44743802,51.4424793 9.44760331,51.4424793 9.44760331,51.4426446 L9.44760331,53.2555372 Z M54.6076033,59.7441322 C54.6076033,60.4424793 54.0715702,61.0107438 53.412562,61.0107438 L10.8654545,61.0107438 C10.2066116,61.0107438 9.67041322,60.4424793 9.67041322,59.7441322 L9.67041322,51.7252893 C9.67041322,51.0269421 10.2066116,50.4586777 10.8654545,50.4586777 L53.412562,50.4586777 C54.0715702,50.4586777 54.6076033,51.0269421 54.6076033,51.7252893 L54.6076033,59.7441322 Z" id="Shape" fill="#0047BA" fill-rule="nonzero"></path>
            </g>
        </g>
    </g>
</svg>