<?xml version="1.0" encoding="UTF-8"?>
<svg width="18px" height="17px" viewBox="0 0 18 17" version="1.1" xmlns="http://www.w3.org/2000/svg" xmlns:xlink="http://www.w3.org/1999/xlink">
    <!-- Generator: Sketch 50.2 (55047) - http://www.bohemiancoding.com/sketch -->
    <title>ic_favourite_button</title>
    <desc>Created with Sketch.</desc>
    <defs></defs>
    <g id="UI---Comparison-Page" stroke="none" stroke-width="1" fill="none" fill-rule="evenodd">
        <g id="VS01" transform="translate(-489.000000, -1407.000000)" fill="#0047BA">
            <g id="Group-4" transform="translate(428.000000, 1390.000000)">
                <g id="ic_favourite_button" transform="translate(61.000000, 17.000000)">
                    <path d="M13.7454146,10.2536842 C12.3027805,11.9178947 10.1844878,14.2576316 9.24980488,15.2821053 C8.29273171,14.2576316 6.10990244,11.9178947 4.6242439,10.2492105 C2.49058537,7.85578947 1.75258537,6.94315789 1.75258537,5.32815789 C1.75258537,3.82947368 2.97131707,1.66421053 5.17478049,1.66421053 C8.09385366,1.66868421 8.586,4.23210526 8.60707317,4.35289474 C8.60839024,4.35736842 8.61146341,4.36631579 8.61278049,4.37078947 C8.61760976,4.39315789 8.62463415,4.41552632 8.63165854,4.43789474 C8.63780488,4.46026316 8.6435122,4.47815789 8.65185366,4.50052632 C8.66019512,4.51842105 8.67073171,4.53631579 8.68126829,4.55868421 C8.69136585,4.57657895 8.70058537,4.59447368 8.712,4.61236842 C8.72560976,4.63026316 8.74097561,4.64815789 8.75634146,4.67052632 C8.7677561,4.68394737 8.77785366,4.69736842 8.78970732,4.70631579 C8.80990244,4.72868421 8.83185366,4.74657895 8.8542439,4.76447368 C8.86434146,4.77342105 8.87356098,4.78236842 8.88409756,4.78684211 C8.90912195,4.80473684 8.93590244,4.81815789 8.964,4.83605263 C8.97409756,4.84052632 8.9837561,4.845 8.99473171,4.84947368 C9.02107317,4.86289474 9.04917073,4.87184211 9.07770732,4.88078947 C9.0917561,4.88526316 9.10580488,4.88526316 9.11985366,4.88973684 C9.12995122,4.89421053 9.13917073,4.89868421 9.14926829,4.89868421 C9.16682927,4.90315789 9.18395122,4.89868421 9.2015122,4.90315789 C9.21863415,4.90315789 9.23487805,4.90315789 9.252,4.90315789 C9.27878049,4.90315789 9.30468293,4.90315789 9.33102439,4.89868421 C9.34243902,4.89868421 9.35429268,4.89868421 9.36570732,4.89868421 C9.37273171,4.89868421 9.37887805,4.89421053 9.38546341,4.89421053 C9.4104878,4.88973684 9.4337561,4.88078947 9.45746341,4.87184211 C9.47546341,4.86736842 9.49390244,4.86289474 9.51146341,4.85394737 C9.53253659,4.845 9.55229268,4.83157895 9.5724878,4.82263158 C9.59004878,4.81368421 9.60760976,4.80473684 9.62385366,4.79131579 C9.64229268,4.77789474 9.65897561,4.76447368 9.67609756,4.75105263 C9.69146341,4.73763158 9.70682927,4.72421053 9.72131707,4.71078947 C9.73712195,4.69289474 9.75073171,4.675 9.76521951,4.65710526 C9.7775122,4.64368421 9.7902439,4.62578947 9.80121951,4.61236842 C9.8135122,4.59447368 9.82317073,4.57210526 9.83370732,4.55421053 C9.84380488,4.53184211 9.85390244,4.51394737 9.8622439,4.49605263 C9.86970732,4.47815789 9.87541463,4.45578947 9.88156098,4.43789474 C9.88858537,4.41552632 9.89560976,4.38868421 9.90043902,4.36631579 C9.9017561,4.35736842 9.90482927,4.35289474 9.90570732,4.34394737 C9.92370732,4.23657895 10.3701951,1.66868421 13.2282439,1.66421053 C15.3623415,1.66421053 16.542439,3.82947368 16.542439,5.32815789 C16.542439,6.94763158 15.8233171,7.86026316 13.7454146,10.2536842 Z M13.2282439,0.322105263 C11.1665854,0.326578947 9.92546341,1.37789474 9.2484878,2.47394737 C8.55570732,1.37789474 7.28517073,0.326578947 5.17521951,0.322105263 C2.38214634,0.322105263 0.435512195,2.96157895 0.435512195,5.32815789 C0.435512195,7.54263158 1.57697561,8.82657895 3.64960976,11.1484211 C5.60107317,13.3405263 8.74887805,16.6913158 8.7804878,16.7271053 C8.78663415,16.7315789 8.79365854,16.7360526 8.79980488,16.7405263 C8.80287805,16.745 8.8037561,16.7494737 8.80726829,16.7539474 C8.81253659,16.7584211 8.81956098,16.7584211 8.82526829,16.7628947 C8.88278049,16.8165789 8.94556098,16.8568421 9.01360976,16.8836842 C9.0197561,16.8881579 9.02678049,16.8881579 9.03292683,16.8881579 C9.10492683,16.915 9.18,16.9328947 9.25595122,16.9328947 L9.25639024,16.9328947 C9.33409756,16.9328947 9.41092683,16.915 9.4842439,16.8881579 C9.49039024,16.8881579 9.49653659,16.8836842 9.50268293,16.8836842 C9.57204878,16.8523684 9.63658537,16.8121053 9.69497561,16.7584211 C9.7002439,16.7539474 9.70682927,16.7494737 9.71165854,16.745 C9.71473171,16.745 9.71560976,16.7405263 9.71868293,16.7360526 C9.72439024,16.7315789 9.73185366,16.7271053 9.738,16.7181579 C9.76829268,16.6868421 12.833122,13.3360526 14.7323415,11.1439474 C16.7487805,8.81763158 17.8595122,7.53815789 17.8595122,5.32815789 C17.8595122,2.96157895 15.9576585,0.322105263 13.2282439,0.322105263 Z" id="3J"></path>
                </g>
            </g>
        </g>
    </g>
</svg>