<?xml version="1.0" encoding="UTF-8"?>
<svg width="24px" height="22px" viewBox="0 0 24 22" version="1.1" xmlns="http://www.w3.org/2000/svg" xmlns:xlink="http://www.w3.org/1999/xlink">
    <!-- Generator: Sketch 50.2 (55047) - http://www.bohemiancoding.com/sketch -->
    <title>ic_Linkedin_active</title>
    <desc>Created with Sketch.</desc>
    <defs></defs>
    <g id="Homepage" stroke="none" stroke-width="1" fill="none" fill-rule="evenodd">
        <g id="UI_default" transform="translate(-822.000000, -2904.000000)" fill="#FFFFFF">
            <g id="Group-6" transform="translate(0.000000, 2746.000000)">
                <path d="M822.605042,164.996368 L827.282732,164.996368 L827.282732,179.817945 L822.605042,179.817945 L822.605042,164.996368 Z M840.063432,164.85389 C843.38791,164.85389 846,166.98585 846,171.577013 L846,179.817945 L840.695798,179.817945 L840.695798,172.148224 C840.695798,170.140526 839.866305,168.770398 838.04142,168.770398 C836.64592,168.770398 835.869775,169.694877 835.508702,170.586175 C835.37338,170.906262 835.394199,171.351911 835.394199,171.79756 L835.394199,179.817945 L830.139442,179.817945 C830.139442,179.817945 830.207102,166.231824 830.139442,164.996368 L835.394199,164.996368 L835.394199,167.322852 C835.704527,166.30534 837.383681,164.85389 840.063432,164.85389 Z M824.85736,158 C826.583356,158 827.644456,159.106641 827.678287,160.569152 C827.678287,162.005638 826.583356,163.142857 824.824831,163.142857 L824.791,163.142857 C823.098184,163.142857 822,162.009542 822,160.573055 C822,159.109244 823.130062,158 824.85736,158 Z" id="ic_Linkedin_active"></path>
            </g>
        </g>
    </g>
</svg>