<?xml version="1.0" encoding="UTF-8"?>
<svg width="17px" height="20px" viewBox="0 0 17 20" version="1.1" xmlns="http://www.w3.org/2000/svg" xmlns:xlink="http://www.w3.org/1999/xlink">
    <!-- Generator: Sketch 50.2 (55047) - http://www.bohemiancoding.com/sketch -->
    <title>ic_remove</title>
    <desc>Created with Sketch.</desc>
    <defs></defs>
    <g id="UI---Comparison-Page" stroke="none" stroke-width="1" fill="none" fill-rule="evenodd">
        <g id="VS01" transform="translate(-428.000000, -185.000000)" fill="#4D586A">
            <g id="Group-Copy" transform="translate(428.000000, 185.000000)">
                <g id="ic_remove">
                    <path d="M5.61016529,6.17802469 C6.01144628,6.17802469 6.3353719,6.50337449 6.3353719,6.90641975 L6.3353719,15.6471605 C6.3353719,16.0502058 6.01144628,16.3755556 5.61016529,16.3755556 C5.2088843,16.3755556 4.88495868,16.0502058 4.88495868,15.6471605 L4.88495868,6.90641975 C4.88495868,6.50337449 5.2088843,6.17802469 5.61016529,6.17802469 Z M8.48198347,6.17802469 C8.87842975,6.17802469 9.20719008,6.50337449 9.20719008,6.90641975 L9.20719008,15.6471605 C9.20719008,16.0502058 8.87842975,16.3755556 8.48198347,16.3755556 C8.08070248,16.3755556 7.75677686,16.0502058 7.75677686,15.6471605 L7.75677686,6.90641975 C7.75677686,6.50337449 8.08070248,6.17802469 8.48198347,6.17802469 Z M10.6237603,6.90641975 C10.6237603,6.50337449 10.9525207,6.17802469 11.3489669,6.17802469 C11.7502479,6.17802469 12.0741736,6.50337449 12.0741736,6.90641975 L12.0741736,15.6471605 C12.0741736,16.0502058 11.7502479,16.3755556 11.3489669,16.3755556 C10.9525207,16.3755556 10.6237603,16.0502058 10.6237603,15.6471605 L10.6237603,6.90641975 Z M13.6454545,17.5604115 C13.6454545,17.6915226 13.5390909,17.8032099 13.403719,17.8032099 L3.61342975,17.8032099 C3.48289256,17.8032099 3.37169421,17.6915226 3.37169421,17.5604115 L3.37169421,4.50757202 L13.6454545,4.50757202 L13.6454545,17.5604115 Z M6.3353719,2.07958848 C6.3353719,1.94847737 6.44657025,1.83679012 6.57710744,1.83679012 L10.3820248,1.83679012 C10.5173967,1.83679012 10.6237603,1.94847737 10.6237603,2.07958848 L10.6237603,3.05078189 L6.3353719,3.05078189 L6.3353719,2.07958848 Z M16.0047934,3.05078189 L12.0741736,3.05078189 L12.0741736,2.07958848 C12.0741736,1.14238683 11.315124,0.38 10.3820248,0.38 L6.57710744,0.38 C5.64400826,0.38 4.88495868,1.14238683 4.88495868,2.07958848 L4.88495868,3.05078189 L1.07520661,3.05078189 C0.678760331,3.05078189 0.35,3.37613169 0.35,3.77917695 C0.35,4.18222222 0.678760331,4.50757202 1.07520661,4.50757202 L1.92128099,4.50757202 L1.92128099,17.5604115 C1.92128099,18.4976132 2.68033058,19.26 3.61342975,19.26 L13.403719,19.26 C14.3368182,19.26 15.0958678,18.4976132 15.0958678,17.5604115 L15.0958678,4.50757202 L16.0047934,4.50757202 C16.4060744,4.50757202 16.73,4.18222222 16.73,3.77917695 C16.73,3.37613169 16.4060744,3.05078189 16.0047934,3.05078189 Z" id="10H"></path>
                </g>
            </g>
        </g>
    </g>
</svg>