<?xml version="1.0" encoding="UTF-8"?>
<svg width="24px" height="20px" viewBox="0 0 24 20" version="1.1" xmlns="http://www.w3.org/2000/svg" xmlns:xlink="http://www.w3.org/1999/xlink">
    <!-- Generator: Sketch 50.2 (55047) - http://www.bohemiancoding.com/sketch -->
    <title>ic_Twitter_active</title>
    <desc>Created with Sketch.</desc>
    <defs></defs>
    <g id="Homepage" stroke="none" stroke-width="1" fill="none" fill-rule="evenodd">
        <g id="UI_default" transform="translate(-776.000000, -2905.000000)" fill="#FFFFFF">
            <g id="Group-6" transform="translate(0.000000, 2746.000000)">
                <path d="M799.33805,159.369743 C798.385817,159.947748 797.333618,160.368115 796.209009,160.593037 C795.313166,159.612608 794.032841,159 792.615385,159 C789.898379,159 787.693376,161.260753 787.693376,164.048888 C787.693376,164.444904 787.735669,164.828745 787.820255,165.198489 C783.728086,164.987665 780.100499,162.980028 777.670574,159.921475 C777.246362,160.669933 777.004139,161.538221 777.004139,162.4629 C777.004139,164.213574 777.873068,165.759192 779.195044,166.664646 C778.388914,166.640296 777.628281,166.410888 776.963127,166.035378 L776.963127,166.096895 C776.963127,168.544122 778.660615,170.585721 780.91496,171.04774 C780.502283,171.166288 780.066537,171.225883 779.617334,171.225883 C779.300136,171.225883 778.990628,171.195125 778.690732,171.136171 C779.317438,173.141244 781.134756,174.601634 783.289777,174.640723 C781.605105,175.995381 779.480843,176.802793 777.174592,176.802793 C776.777294,176.802793 776.384482,176.779724 776,176.733586 C778.178731,178.163859 780.768216,179.000107 783.54802,179.000107 C792.605773,179.000107 797.557258,171.307906 797.557258,164.635223 C797.557258,164.415427 797.553414,164.196273 797.545083,163.980963 C798.506929,163.269031 799.342536,162.380237 800,161.367768 C799.118255,161.76891 798.168585,162.040611 797.172777,162.162363 C798.189731,161.538221 798.970229,160.548821 799.33805,159.369743" id="ic_Twitter_active"></path>
            </g>
        </g>
    </g>
</svg>