<?xml version="1.0" encoding="UTF-8"?>
<svg width="24px" height="21px" viewBox="0 0 24 21" version="1.1" xmlns="http://www.w3.org/2000/svg" xmlns:xlink="http://www.w3.org/1999/xlink">
    <!-- Generator: Sketch 50.2 (55047) - http://www.bohemiancoding.com/sketch -->
    <title>ic_Vimeo</title>
    <desc>Created with Sketch.</desc>
    <defs></defs>
    <g id="Homepage" stroke="none" stroke-width="1" fill="none" fill-rule="evenodd" fill-opacity="0.75">
        <g id="UI_default" transform="translate(-909.000000, -2905.000000)" fill="#C4D0E6">
            <g id="Group-6" transform="translate(0.000000, 2746.000000)">
                <path d="M929.495412,159.004426 C926.159391,158.897045 923.901766,160.743479 922.715989,164.541763 C923.324265,164.290333 923.916826,164.169857 924.491708,164.169857 C925.710878,164.169857 926.248439,164.840335 926.104391,166.189803 C926.031058,167.008257 925.496116,168.195344 924.491708,169.75892 C923.486646,171.319221 922.733013,172.09839 922.232119,172.09839 C921.585867,172.09839 920.995925,170.89428 920.457055,168.480821 C920.277649,167.771057 919.952887,165.960636 919.491933,163.048247 C919.058479,160.351275 917.910024,159.089546 916.047221,159.268296 C915.256922,159.342284 914.073109,160.050739 912.497748,161.400207 C911.347983,162.428186 910.182503,163.458784 909,164.485453 L910.128813,165.925933 C911.206554,165.178193 911.831853,164.805632 912.011258,164.805632 C912.834951,164.805632 913.605608,166.083731 914.325193,168.641238 C914.971445,170.979399 915.615077,173.324762 916.263293,175.670126 C917.229725,178.226323 918.413537,179.500493 919.810803,179.500493 C922.069738,179.500493 924.83415,177.406559 928.096837,173.216072 C931.249524,169.208263 932.883814,166.050338 932.987922,163.739677 C933.133279,160.654431 931.96649,159.072522 929.495412,159.004426" id="ic_Vimeo"></path>
            </g>
        </g>
    </g>
</svg>