<?xml version="1.0" encoding="UTF-8"?>
<svg width="18px" height="13px" viewBox="0 0 18 13" version="1.1" xmlns="http://www.w3.org/2000/svg" xmlns:xlink="http://www.w3.org/1999/xlink">
    <!-- Generator: Sketch 50.2 (55047) - http://www.bohemiancoding.com/sketch -->
    <title>ic_visit_icon</title>
    <desc>Created with Sketch.</desc>
    <defs></defs>
    <g id="UI--Category_Rearch-Result-Page-Copy" stroke="none" stroke-width="1" fill="none" fill-rule="evenodd">
        <g id="VS01" transform="translate(-1074.000000, -428.000000)" fill="#2B4371">
            <g id="Group-10" transform="translate(410.000000, 265.000000)">
                <g id="Group-2">
                    <g id="Group-14" transform="translate(664.000000, 162.000000)">
                        <g id="ic_visit_icon" transform="translate(0.000000, 1.000000)">
                            <path d="M9.16281818,8.05090909 C8.08977273,8.05090909 7.21718182,7.17545455 7.21718182,6.10363636 C7.21718182,5.03181818 8.08977273,4.16045455 9.16281818,4.16045455 C10.2358636,4.16045455 11.1088636,5.03181818 11.1088636,6.10363636 C11.1088636,7.17545455 10.2358636,8.05090909 9.16281818,8.05090909 Z M9.16281818,2.85954545 C7.37427273,2.85954545 5.91954545,4.31590909 5.91954545,6.10363636 C5.91954545,7.89136364 7.37427273,9.34772727 9.16281818,9.34772727 C10.9513636,9.34772727 12.4060909,7.89136364 12.4060909,6.10363636 C12.4060909,4.31590909 10.9513636,2.85954545 9.16281818,2.85954545 Z M9.31745455,10.8654545 C6.77536364,10.9759091 4.22877273,9.34363636 1.74518182,5.99318182 C2.57359091,4.88045455 5.34518182,1.55454545 8.92063636,1.45636364 C11.4263182,1.40318182 13.9062273,2.925 16.2675,6.02590909 C15.5016818,7.17136364 12.8626364,10.7059091 9.31745455,10.8654545 Z M17.5782273,5.61272727 C14.8688182,1.91045455 11.9425909,0.0613636364 8.87809091,0.159545455 C3.92072727,0.302727273 0.543681818,5.42454545 0.402136364,5.64136364 C0.257318182,5.86636364 0.264272727,6.15681818 0.4185,6.37363636 C3.16268182,10.2231818 6.06804545,12.1704545 9.05972727,12.1704545 C9.16527273,12.1704545 9.27122727,12.1663636 9.37677273,12.1622727 C14.2891364,11.9372727 17.4816818,6.55363636 17.6150455,6.32454545 C17.7447273,6.09954545 17.7304091,5.82136364 17.5782273,5.61272727 Z" id="1J"></path>
                        </g>
                    </g>
                </g>
            </g>
        </g>
    </g>
</svg>