<?xml version="1.0" encoding="UTF-8"?>
<svg width="178px" height="30px" viewBox="0 0 178 30" version="1.1" xmlns="http://www.w3.org/2000/svg" xmlns:xlink="http://www.w3.org/1999/xlink">
    <!-- Generator: Sketch 50.2 (55047) - http://www.bohemiancoding.com/sketch -->
    <title>Logo_mobile</title>
    <desc>Created with Sketch.</desc>
    <defs></defs>
    <g id="UI---Comparison-Page" stroke="none" stroke-width="1" fill="none" fill-rule="evenodd">
        <g id="Mobile_view" transform="translate(-71.000000, -15.000000)">
            <g id="Logo_mobile" transform="translate(71.000000, 15.000000)">
                <path d="M41.1526549,14.6022237 C39.5892478,14.6022237 38.237708,15.1591974 37.1346593,16.2573553 C36.0300354,17.3563026 35.4696504,18.7086711 35.4696504,20.2761711 C35.4696504,21.8440658 36.0300354,23.1964342 37.1346593,24.2953816 C38.237708,25.3935395 39.5892478,25.9501184 41.2188142,25.9501184 C42.3809336,25.9501184 43.4449956,25.6216974 44.3822522,24.9735395 L44.7898407,24.6916974 L43.5005221,22.8506447 L43.1027788,23.1103816 C42.5435752,23.4755132 41.9272699,23.6531447 41.1526549,23.6531447 C40.3016416,23.6531447 39.5778274,23.3922237 38.9386814,22.8561711 C38.4566637,22.4519605 38.1219292,21.9766974 37.9254204,21.4138026 L46.8356593,21.4138026 L46.8356593,20.2761711 C46.8356593,18.7086711 46.2752743,17.3566974 45.1702566,16.2573553 C44.0664204,15.1591974 42.7148805,14.6022237 41.1526549,14.6022237 M41.1526549,16.8549868 C41.9855531,16.8549868 42.7010973,17.1214342 43.3394558,17.6697237 C43.8214735,18.0845921 44.1526637,18.5614342 44.3420841,19.1164342 L37.928177,19.1164342 C38.1258673,18.5614342 38.4609956,18.0841974 38.9430133,17.6705132 C39.5817655,17.1214342 40.3043982,16.8549868 41.1526549,16.8549868" id="Fill-1" fill="#D33C44"></path>
                <polygon id="Fill-3" fill="#2256A6" points="49.5989912 25.7530263 51.5420265 25.7530263 51.5420265 8.55039474 49.5989912 8.55039474"></polygon>
                <g id="Group-24" transform="translate(54.738938, 8.398421)" fill="#2256A6">
                    <path d="M4.98254292,6.40097368 C3.88618894,6.40097368 2.89813142,6.74242105 2.03845442,7.41742105 L2.03845442,6.40097368 L0.0958128319,6.40097368 L0.0958128319,17.3545263 L2.03845442,17.3545263 L2.03845442,11.2329474 C2.03845442,10.4470263 2.33026416,9.77321053 2.92766681,9.17360526 C3.52782611,8.57321053 4.19965796,8.28110526 4.98254292,8.28110526 C5.81032168,8.28110526 6.49633053,8.56926316 7.07995,9.16097368 C7.66514469,9.75386842 7.94947212,10.4316316 7.94947212,11.2329474 L7.94947212,17.3545263 L9.82595442,17.3545263 L9.82595442,11.2329474 C9.82595442,9.91215789 9.34905619,8.76465789 8.4078615,7.82163158 C7.46784823,6.87860526 6.31518009,6.40097368 4.98254292,6.40097368" id="Fill-4"></path>
                    <path d="M14.5734743,1.52384211 C13.6062885,2.45344737 13.1242708,3.58871053 13.1404168,4.89489474 L13.1404168,17.3543684 L15.0830584,17.3543684 L15.0830584,8.28094737 L18.300054,8.28094737 L18.300054,6.40081579 L15.0830584,6.40081579 L15.0830584,4.89489474 C15.0830584,4.12634211 15.3697487,3.47147368 15.959669,2.89357895 C16.5515584,2.3145 17.2210274,2.03226316 18.0058814,2.03226316 L18.300054,2.03226316 L18.300054,0.154894737 L18.0090319,0.151736842 C16.687815,0.121736842 15.5359345,0.597789474 14.5734743,1.52384211" id="Fill-6"></path>
                    <path d="M22.9810602,7.4175 L22.9810602,6.40105263 L21.037631,6.40105263 L21.037631,17.3546053 L22.9810602,17.3546053 L22.9810602,11.2326316 C22.9810602,10.4467105 23.2720823,9.77289474 23.8710602,9.17289474 C24.4696442,8.57328947 25.1414761,8.28118421 25.9251487,8.28118421 L26.2201088,8.28118421 L26.2201088,6.40105263 L25.9251487,6.40105263 C24.8280071,6.40105263 23.8407372,6.7425 22.9810602,7.4175" id="Fill-8"></path>
                    <path d="M34.4668252,6.40097368 C32.9577633,6.40097368 31.6487544,6.94215789 30.5760288,8.00992105 C29.5033031,9.07847368 28.9586704,10.3720263 28.9586704,11.8554474 C28.9586704,13.3680789 29.4985774,14.6766316 30.5642146,15.7447895 C31.6298518,16.8133421 32.9424049,17.3545263 34.4668252,17.3545263 C35.8553827,17.3545263 37.0667279,16.9033421 38.0768385,16.0112368 L38.0768385,17.3545263 L40.041927,17.3545263 L40.041927,11.8518947 C40.0265686,10.3834737 39.4587013,9.09386842 38.3552588,8.01860526 C37.252604,6.94492105 35.9443827,6.40097368 34.4668252,6.40097368 M34.4668252,8.28110526 C35.4292854,8.28110526 36.2464314,8.63123684 36.9647323,9.35123684 C37.6826394,10.0712368 38.0319447,10.8907105 38.0319447,11.8554474 C38.0319447,12.8509737 37.6865774,13.6807105 36.9757588,14.3928158 C36.2653341,15.1053158 35.4446438,15.4518947 34.4668252,15.4518947 C33.459865,15.4518947 32.6316925,15.1092632 31.9362323,14.4054474 C31.2399845,13.7000526 30.9009181,12.8655789 30.9009181,11.8554474 C30.9009181,10.8749211 31.243135,10.0522895 31.9476527,9.339 C32.6505951,8.62768421 33.4748296,8.28110526 34.4668252,8.28110526" id="Fill-10"></path>
                    <path d="M54.6773863,2.09936842 C56.3116783,2.09936842 57.7537934,2.63621053 58.9651385,3.69410526 L59.1065146,3.81805263 L61.0290721,2.96542105 L60.7187535,2.66028947 C59.0273597,0.995684211 56.9945367,0.151736842 54.6773863,0.151736842 C52.3433022,0.151736842 50.3096916,1.01147368 48.6336562,2.70765789 C46.9568332,4.40305263 46.1073951,6.45528947 46.1073951,8.80910526 C46.1073951,11.1637105 46.9540765,13.1981842 48.6238111,14.8560789 C50.292758,16.5139737 52.329519,17.3547632 54.6773863,17.3547632 C56.8118111,17.3547632 58.7134969,16.6343684 60.3296739,15.2129211 L60.6569261,14.9247632 L58.7985588,13.9785789 L58.6524571,14.0855526 C57.4529261,14.9618684 56.1155633,15.4071316 54.6773863,15.4071316 C52.8583996,15.4071316 51.2819969,14.7585789 49.9926783,13.4796316 C48.7041473,12.2022632 48.0504305,10.6304211 48.0504305,8.80910526 C48.0504305,6.98542105 48.704935,5.39463158 49.9958288,4.07897368 C51.2855412,2.76568421 52.8607624,2.09936842 54.6773863,2.09936842" id="Fill-12"></path>
                    <path d="M69.2531841,6.40097368 C67.7437283,6.40097368 66.4390513,6.93821053 65.3734142,7.99886842 C64.3073832,9.05913158 63.7670823,10.3645263 63.7670823,11.8775526 C63.7670823,13.3909737 64.3073832,14.6963684 65.3734142,15.7566316 C66.4390513,16.8172895 67.7437283,17.3545263 69.3193434,17.3545263 C70.4409009,17.3545263 71.4671575,17.0379474 72.3709407,16.4130789 L72.6158876,16.2437368 L71.5494628,14.7208421 L71.3112106,14.8767632 C70.7268035,15.2584737 70.0565469,15.4518947 69.2531841,15.4518947 C68.3545204,15.4518947 67.5889628,15.1759737 66.9131929,14.6087368 C66.3291796,14.1196579 65.9495513,13.5311053 65.7593434,12.8182105 L74.7396796,12.8182105 L74.7396796,11.8775526 C74.7396796,10.3649211 74.1993788,9.05952632 73.132954,7.99886842 C72.0673168,6.93821053 70.7618522,6.40097368 69.2531841,6.40097368 M69.2531841,8.259 C70.135308,8.259 70.8922018,8.54163158 71.5679717,9.12228947 C72.1523788,9.624 72.5268876,10.2133421 72.7068566,10.9151842 L65.7613124,10.9151842 C65.9519142,10.2129474 66.3319363,9.624 66.9155558,9.12228947 C67.5913257,8.54163158 68.3564894,8.259 69.2531841,8.259" id="Fill-14"></path>
                    <path d="M82.5868018,6.40097368 C81.490054,6.40097368 80.5023903,6.74242105 79.6423195,7.41742105 L79.6423195,6.40097368 L77.6996779,6.40097368 L77.6996779,17.3545263 L79.6423195,17.3545263 L79.6423195,11.2329474 C79.6423195,10.4470263 79.9341292,9.77321053 80.5315319,9.17360526 C81.1312973,8.57321053 81.803523,8.28110526 82.5868018,8.28110526 C83.4141867,8.28110526 84.1001956,8.56926316 84.6842088,9.16097368 C85.2690097,9.75386842 85.553731,10.4316316 85.553731,11.2329474 L85.553731,17.3545263 L87.4298195,17.3545263 L87.4298195,11.2329474 C87.4298195,9.91215789 86.953315,8.76465789 86.0117265,7.82163158 C85.0717133,6.87860526 83.9190451,6.40097368 82.5868018,6.40097368" id="Fill-16"></path>
                    <path d="M92.6873173,0.151697368 L90.7442819,0.151697368 L90.7442819,12.6115658 C90.7442819,13.9193289 91.22945,15.0534079 92.1875783,15.9814342 C93.126804,16.8928816 94.2578128,17.3551184 95.5498881,17.3551184 C95.5703659,17.3551184 95.5916314,17.3551184 95.6132907,17.3543289 L95.9043128,17.3511711 L95.9043128,15.4738026 L95.6093527,15.4738026 C94.8241049,15.4738026 94.1554235,15.1919605 93.5643217,14.6128816 C92.9744013,14.0353816 92.6873173,13.3805132 92.6873173,12.6115658 L92.6873173,8.28090789 L95.9043128,8.28090789 L95.9043128,6.40077632 L92.6873173,6.40077632 L92.6873173,0.151697368 Z" id="Fill-18"></path>
                    <path d="M101.250653,7.4175 L101.250653,6.40105263 L99.3076177,6.40105263 L99.3076177,17.3546053 L101.250653,17.3546053 L101.250653,11.2326316 C101.250653,10.4467105 101.542069,9.77289474 102.140653,9.17289474 C102.739631,8.57328947 103.411463,8.28118421 104.195135,8.28118421 L104.490096,8.28118421 L104.490096,6.40105263 L104.195135,6.40105263 C103.097994,6.40105263 102.110724,6.7425 101.250653,7.4175" id="Fill-20"></path>
                    <path d="M112.736773,6.40097368 C111.227711,6.40097368 109.918702,6.94215789 108.845582,8.00992105 C107.772857,9.07847368 107.228618,10.3720263 107.228618,11.8554474 C107.228618,13.3680789 107.768525,14.6766316 108.834162,15.7447895 C109.899799,16.8133421 111.212352,17.3545263 112.736773,17.3545263 C114.124936,17.3545263 115.336281,16.9033421 116.346786,16.0112368 L116.346786,17.3545263 L118.311481,17.3545263 L118.311481,11.8518947 C118.296122,10.3834737 117.728649,9.09386842 116.625206,8.01860526 C115.522158,6.94492105 114.21433,6.40097368 112.736773,6.40097368 M112.736773,8.28110526 C113.698839,8.28110526 114.515985,8.63123684 115.23468,9.35123684 C115.952587,10.0712368 116.301892,10.8907105 116.301892,11.8554474 C116.301892,12.8509737 115.956525,13.6807105 115.245706,14.3928158 C114.534888,15.1053158 113.714197,15.4518947 112.736773,15.4518947 C111.729419,15.4518947 110.902034,15.1092632 110.205786,14.4054474 C109.509932,13.7000526 109.170472,12.8655789 109.170472,11.8554474 C109.170472,10.8749211 109.512688,10.0522895 110.217206,9.339 C110.920542,8.62768421 111.744383,8.28110526 112.736773,8.28110526" id="Fill-22"></path>
                </g>
                <polygon id="Fill-25" fill="#2256A6" points="176.010496 25.7530263 177.953531 25.7530263 177.953531 8.55039474 176.010496 8.55039474"></polygon>
                <g id="Group-30" transform="translate(0.000000, 0.108947)">
                    <path d="M0.977976106,10.56825 C-0.157364602,14.3131184 0.229746018,18.2770658 2.06881681,21.7306184 C3.90749381,25.1833816 6.9776,27.7120658 10.7132372,28.8504868 C14.4496619,29.9893026 18.4046487,29.6012763 21.8500513,27.7574605 C25.9503522,25.5646974 28.7861442,21.4902237 29.4355292,16.8595658 C29.6151044,16.0539079 29.5052327,15.2344342 29.1295425,14.5302237 L29.1295425,14.5298289 C28.7093522,13.7403553 28.0071973,13.1624605 27.1526398,12.9023289 C26.2972947,12.6414079 25.3935115,12.7310132 24.6062947,13.1521974 C23.6178434,13.68075 22.9621575,14.6660132 22.8522858,15.7878553 C22.5360602,18.3733816 20.9872239,20.6403553 18.7086664,21.8589079 C16.8369097,22.8611447 14.6871265,23.0723289 12.6543035,22.4525921 C10.6226619,21.8336447 8.95292743,20.4587763 7.95384336,18.5818026 C5.89030354,14.7066711 7.35722832,9.87114474 11.2236088,7.80232895 C13.5013788,6.58338158 16.2399009,6.55575 18.5503566,7.72693421 C18.6161221,7.75732895 18.6460513,7.77153947 18.6744053,7.78653947 C19.6608876,8.25943421 20.7863832,8.23535526 21.7149761,7.73838158 C22.5006177,7.31798684 23.0755735,6.61614474 23.3346973,5.76114474 C23.5938212,4.90693421 23.5056088,4.00259211 23.0862062,3.21469737 C22.7577726,2.59851316 22.2540956,2.10825 21.6291265,1.79680263 L21.4231664,1.69456579 L21.4251354,1.68746053 C19.3852239,0.682065789 17.170069,0.180355263 14.9580646,0.180355263 C12.5909009,0.180355263 10.2268876,0.755092105 8.08222389,1.90219737 C4.63682124,3.74601316 2.11371062,6.82338158 0.977976106,10.56825" id="Fill-26" fill="#2256A6"></path>
                    <path d="M28.9296863,1.15953947 C27.2319916,2.06782895 26.2132173,3.75019737 26.0635712,5.53796053 C25.8674562,7.38730263 24.7955181,9.10598684 23.037965,10.0466447 C21.4162748,10.9138816 19.5681465,10.9276974 18.0051332,10.2451974 C16.38935,9.17980263 14.2584695,9.00888158 12.4320004,9.98585526 C9.7734208,11.4084868 8.76764204,14.7223026 10.1869164,17.3883553 C11.6061907,20.0532237 14.9129739,21.0598026 17.5715535,19.6375658 C19.283819,18.7217763 20.3061376,17.0161184 20.4384562,15.20625 C20.6696199,13.4066447 21.7325004,11.7420395 23.4510668,10.8226974 C25.2090137,9.88203947 27.2343544,9.94480263 28.8761288,10.8096711 L28.8926686,10.7903289 C30.4517438,11.6358553 32.3876907,11.7104605 34.0688456,10.8108553 C36.727819,9.38861842 37.7335978,6.07480263 36.3147173,3.40953947 C34.8950491,0.743881579 31.5882659,-0.263092105 28.9296863,1.15953947" id="Fill-28" fill="#D33C44"></path>
                </g>
            </g>
        </g>
    </g>
</svg>