<?xml version="1.0" encoding="UTF-8"?>
<svg width="250px" height="42px" viewBox="0 0 250 42" version="1.1" xmlns="http://www.w3.org/2000/svg" xmlns:xlink="http://www.w3.org/1999/xlink">
    <!-- Generator: Sketch 50.2 (55047) - http://www.bohemiancoding.com/sketch -->
    <title>Logo_white</title>
    <desc>Created with Sketch.</desc>
    <defs></defs>
    <g id="Homepage" stroke="none" stroke-width="1" fill="none" fill-rule="evenodd">
        <g id="UI_default" transform="translate(-107.000000, -2792.000000)" fill="#FFFFFF">
            <g id="Group-6" transform="translate(0.000000, 2746.000000)">
                <g id="Logo_white" transform="translate(107.000000, 46.000000)">
                    <path d="M57.7986726,20.4603429 C55.6028761,20.4603429 53.704646,21.2407633 52.1554204,22.7794801 C50.6039823,24.3193031 49.8169248,26.2142146 49.8169248,28.4105642 C49.8169248,30.6074668 50.6039823,32.5023783 52.1554204,34.0422013 C53.704646,35.5809181 55.6028761,36.3607854 57.8915929,36.3607854 C59.5237832,36.3607854 61.0182522,35.9006084 62.3346239,34.9924226 L62.9070796,34.5975111 L61.0962389,32.017865 L60.5376106,32.3818031 C59.7522124,32.8934181 58.886615,33.1423119 57.7986726,33.1423119 C56.6034292,33.1423119 55.5868363,32.7767146 54.6891593,32.0256084 C54.0121681,31.4592367 53.5420354,30.7933075 53.2660398,30.0045907 L65.7804204,30.0045907 L65.7804204,28.4105642 C65.7804204,26.2142146 64.9933628,24.3198562 63.4413717,22.7794801 C61.8910398,21.2407633 59.9928097,20.4603429 57.7986726,20.4603429 M57.7986726,23.6168695 C58.9684735,23.6168695 59.9734513,23.9902102 60.8700221,24.7584624 C61.5470133,25.3397677 62.0121681,26.0079093 62.278208,26.7855642 L53.2699115,26.7855642 C53.5475664,26.0079093 54.0182522,25.3392146 54.6952434,24.7595686 C55.5923673,23.9902102 56.6073009,23.6168695 57.7986726,23.6168695" id="Fill-1"></path>
                    <polygon id="Fill-3" points="69.6615044 36.0846239 72.3904867 36.0846239 72.3904867 11.9806416 69.6615044 11.9806416"></polygon>
                    <path d="M83.8784845,20.736615 C82.3386615,20.736615 80.9509403,21.2150442 79.7435288,22.1608407 L79.7435288,20.736615 L77.0150996,20.736615 L77.0150996,36.0845133 L79.7435288,36.0845133 L79.7435288,27.5070796 C79.7435288,26.4058628 80.1533739,25.4617257 80.9924226,24.6215708 C81.8353429,23.7803097 82.778927,23.3710177 83.8784845,23.3710177 C85.0410951,23.3710177 86.0045907,23.7747788 86.824281,24.6038717 C87.6461836,25.4346239 88.0455199,26.384292 88.0455199,27.5070796 L88.0455199,36.0845133 L90.6810288,36.0845133 L90.6810288,27.5070796 C90.6810288,25.6564159 90.0112279,24.0485619 88.6893252,22.7272124 C87.3690819,21.4058628 85.7501659,20.736615 83.8784845,20.736615" id="Fill-4"></path>
                    <path d="M97.3488938,13.9028761 C95.9904867,15.2054204 95.3134956,16.7961283 95.3361726,18.6263274 L95.3361726,36.084292 L98.0646018,36.084292 L98.0646018,23.3707965 L102.582854,23.3707965 L102.582854,20.7363938 L98.0646018,20.7363938 L98.0646018,18.6263274 C98.0646018,17.5494469 98.4672566,16.6318584 99.2957965,15.8221239 C100.127102,15.0107301 101.067367,14.6152655 102.16969,14.6152655 L102.582854,14.6152655 L102.582854,11.9847345 L102.174115,11.9803097 C100.318473,11.9382743 98.7006637,12.6053097 97.3488938,13.9028761" id="Fill-6"></path>
                    <path d="M109.157301,22.1609513 L109.157301,20.7367257 L106.427765,20.7367257 L106.427765,36.0846239 L109.157301,36.0846239 L109.157301,27.5066372 C109.157301,26.4054204 109.56604,25.4612832 110.407301,24.6205752 C111.248009,23.7804204 112.191593,23.3711283 113.292257,23.3711283 L113.706527,23.3711283 L113.706527,20.7367257 L113.292257,20.7367257 C111.751327,20.7367257 110.364712,21.2151549 109.157301,22.1609513" id="Fill-8"></path>
                    <path d="M125.288993,20.736615 C123.169524,20.736615 121.331029,21.4949115 119.824392,22.9910398 C118.317754,24.4882743 117.552821,26.3007743 117.552821,28.3793142 C117.552821,30.4987832 118.311117,32.3323009 119.807799,33.8289823 C121.30448,35.3262168 123.147954,36.0845133 125.288993,36.0845133 C127.239215,36.0845133 128.940542,35.452323 130.359237,34.202323 L130.359237,36.0845133 L133.119192,36.0845133 L133.119192,28.3743363 C133.097622,26.3168142 132.300055,24.5098451 130.750277,23.003208 C129.201604,21.4987832 127.364215,20.736615 125.288993,20.736615 M125.288993,23.3710177 C126.640763,23.3710177 127.78844,23.861615 128.79729,24.8704646 C129.805586,25.8793142 130.296184,27.0275442 130.296184,28.3793142 C130.296184,29.7742257 129.811117,30.9368363 128.812777,31.9346239 C127.814989,32.9329646 126.662334,33.4185841 125.288993,33.4185841 C123.874723,33.4185841 122.71156,32.9384956 121.73479,31.952323 C120.756914,30.9639381 120.280697,29.7946903 120.280697,28.3793142 C120.280697,27.0054204 120.761338,25.8527655 121.75083,24.8533186 C122.738108,23.8566372 123.895741,23.3710177 125.288993,23.3710177" id="Fill-10"></path>
                    <path d="M153.674613,14.709292 C155.969967,14.709292 157.995409,15.4615044 159.696737,16.9438053 L159.895299,17.1174779 L162.59552,15.9227876 L162.159679,15.4952434 C159.784126,13.1628319 156.929038,11.9803097 153.674613,11.9803097 C150.396405,11.9803097 147.54021,13.1849558 145.186228,15.561615 C142.831139,17.9371681 141.638108,20.8127212 141.638108,24.1108407 C141.638108,27.4100664 142.827268,30.2607301 145.1724,32.5837389 C147.516427,34.9067478 150.377046,36.0848451 153.674613,36.0848451 C156.6724,36.0848451 159.343308,35.0754425 161.613219,33.0837389 L162.072843,32.6799779 L159.462777,31.3542035 L159.257577,31.5040929 C157.572843,32.731969 155.694524,33.3558628 153.674613,33.3558628 C151.119856,33.3558628 148.905808,32.4471239 147.094967,30.6550885 C145.285232,28.8652655 144.367091,26.6628319 144.367091,24.1108407 C144.367091,21.555531 145.286338,19.3265487 147.099392,17.4830752 C148.910785,15.6429204 151.123175,14.709292 153.674613,14.709292" id="Fill-12"></path>
                    <path d="M174.146239,20.736615 C172.026217,20.736615 170.193805,21.4893805 168.697124,22.9755531 C167.199889,24.4611726 166.44104,26.2902655 166.44104,28.4102876 C166.44104,30.5308628 167.199889,32.3599558 168.697124,33.8455752 C170.193805,35.3317478 172.026217,36.0845133 174.239159,36.0845133 C175.814381,36.0845133 177.255752,35.6409292 178.525111,34.7653761 L178.869137,34.5280973 L177.37135,32.3942478 L177.036726,32.6127212 C176.215929,33.1475664 175.274558,33.4185841 174.146239,33.4185841 C172.884071,33.4185841 171.80885,33.031969 170.859735,32.2371681 C170.039491,31.5518805 169.506305,30.7272124 169.239159,29.7283186 L181.851991,29.7283186 L181.851991,28.4102876 C181.851991,26.2908186 181.093142,24.4617257 179.595354,22.9755531 C178.098673,21.4893805 176.265155,20.736615 174.146239,20.736615 M174.146239,23.3400442 C175.385177,23.3400442 176.44823,23.7360619 177.397345,24.5496681 C178.218142,25.2526549 178.744137,26.0784292 178.996903,27.0618363 L169.241925,27.0618363 C169.509624,26.0778761 170.043363,25.2526549 170.863053,24.5496681 C171.812168,23.7360619 172.886836,23.3400442 174.146239,23.3400442" id="Fill-14"></path>
                    <path d="M192.87323,20.736615 C191.332854,20.736615 189.945686,21.2150442 188.737721,22.1608407 L188.737721,20.736615 L186.009292,20.736615 L186.009292,36.0845133 L188.737721,36.0845133 L188.737721,27.5070796 C188.737721,26.4058628 189.147566,25.4617257 189.986615,24.6215708 C190.828982,23.7803097 191.773119,23.3710177 192.87323,23.3710177 C194.035288,23.3710177 194.998783,23.7747788 195.819027,24.6038717 C196.640376,25.4346239 197.040265,26.384292 197.040265,27.5070796 L197.040265,36.0845133 L199.675221,36.0845133 L199.675221,27.5070796 C199.675221,25.6564159 199.005973,24.0485619 197.683518,22.7272124 C196.363274,21.4058628 194.744358,20.736615 192.87323,20.736615" id="Fill-16"></path>
                    <path d="M207.059347,11.9802544 L204.330365,11.9802544 L204.330365,29.4387721 C204.330365,31.2711836 205.011781,32.8602323 206.357467,34.1605642 C207.676604,35.4376659 209.2651,36.0853429 211.079812,36.0853429 C211.108573,36.0853429 211.13844,36.0853429 211.168861,36.0842367 L211.5776,36.0798119 L211.5776,33.449281 L211.16333,33.449281 C210.060454,33.449281 209.121294,33.0543695 208.291095,32.2429757 C207.462555,31.4337942 207.059347,30.5162058 207.059347,29.4387721 L207.059347,23.3707412 L211.5776,23.3707412 L211.5776,20.7363385 L207.059347,20.7363385 L207.059347,11.9802544 Z" id="Fill-18"></path>
                    <path d="M219.086504,22.1609513 L219.086504,20.7367257 L216.357522,20.7367257 L216.357522,36.0846239 L219.086504,36.0846239 L219.086504,27.5066372 C219.086504,26.4054204 219.495796,25.4612832 220.336504,24.6205752 C221.177765,23.7804204 222.12135,23.3711283 223.222013,23.3711283 L223.636283,23.3711283 L223.636283,20.7367257 L223.222013,20.7367257 C221.681084,20.7367257 220.294469,21.2151549 219.086504,22.1609513" id="Fill-20"></path>
                    <path d="M235.218695,20.736615 C233.099226,20.736615 231.26073,21.4949115 229.75354,22.9910398 C228.246903,24.4882743 227.482522,26.3007743 227.482522,28.3793142 C227.482522,30.4987832 228.240819,32.3323009 229.7375,33.8289823 C231.234181,35.3262168 233.077655,36.0845133 235.218695,36.0845133 C237.168363,36.0845133 238.86969,35.452323 240.288938,34.202323 L240.288938,36.0845133 L243.048341,36.0845133 L243.048341,28.3743363 C243.02677,26.3168142 242.229757,24.5098451 240.679978,23.003208 C239.130752,21.4987832 237.293916,20.736615 235.218695,20.736615 M235.218695,23.3710177 C236.569912,23.3710177 237.717588,23.861615 238.726991,24.8704646 C239.735288,25.8793142 240.225885,27.0275442 240.225885,28.3793142 C240.225885,29.7742257 239.740819,30.9368363 238.742478,31.9346239 C237.744137,32.9329646 236.591482,33.4185841 235.218695,33.4185841 C233.803872,33.4185841 232.641814,32.9384956 231.663938,31.952323 C230.686615,30.9639381 230.209845,29.7946903 230.209845,28.3793142 C230.209845,27.0054204 230.690487,25.8527655 231.679978,24.8533186 C232.66781,23.8566372 233.824889,23.3710177 235.218695,23.3710177" id="Fill-22"></path>
                    <polygon id="Fill-25" points="247.205752 36.0846239 249.934735 36.0846239 249.934735 11.9806416 247.205752 11.9806416"></polygon>
                    <path d="M1.37356195,14.9606748 C-0.221017699,20.2079093 0.322676991,25.7621128 2.90564159,30.6011615 C5.4880531,35.439104 9.8,38.9822456 15.0466814,40.5773783 C20.294469,42.1730642 25.8492257,41.6293695 30.6882743,39.0458518 C36.4471239,35.973396 40.4299779,30.2643252 41.3420354,23.7759403 C41.5942478,22.6470686 41.4399336,21.4988385 40.9122788,20.5121128 L40.9122788,20.5115597 C40.3221239,19.405365 39.3359513,18.5956305 38.1357301,18.2311394 C36.9344027,17.865542 35.6650442,17.9910951 34.5594027,18.58125 C33.1711283,19.3218473 32.2502212,20.7023783 32.0959071,22.274281 C31.6517699,25.8970686 29.4764381,29.0735066 26.2762168,30.7809181 C23.6473451,32.1852323 20.6279867,32.4811394 17.7728982,31.6127765 C14.919469,30.7455199 12.5743363,28.8190819 11.1711283,26.189104 C8.27289823,20.7593473 10.3331858,13.9839049 15.7634956,11.0851217 C18.9626106,9.37715708 22.8088496,9.33844027 26.0538717,10.9794801 C26.1462389,11.0220686 26.1882743,11.0419801 26.2280973,11.0629978 C27.6136062,11.7256084 29.1943584,11.6918695 30.4985619,10.9955199 C31.6019912,10.4064712 32.4095133,9.42306416 32.7734513,8.22505531 C33.1373894,7.02815265 33.0134956,5.76100664 32.4244469,4.65702434 C31.9631637,3.79363938 31.2557522,3.10669248 30.3779867,2.67029867 L30.0887168,2.52704646 L30.0914823,2.51709071 C27.2264381,1.10835177 24.1152655,0.405365044 21.0085177,0.405365044 C17.6838496,0.405365044 14.3636062,1.21067478 11.3514381,2.81797566 C6.51238938,5.40149336 2.96869469,9.71344027 1.37356195,14.9606748" id="Fill-26"></path>
                    <path d="M40.6315819,1.77737832 C38.2471792,3.05005531 36.8163164,5.40735619 36.6061394,7.91233407 C36.3306969,10.5035951 34.8251659,12.911781 32.3566925,14.2298119 C30.0790376,15.4449668 27.4833518,15.4643252 25.2881084,14.5080199 C23.01875,13.0152102 20.0259403,12.775719 17.4606748,14.144635 C13.7267146,16.1379978 12.314104,20.78125 14.3074668,24.5168695 C16.3008296,28.2508296 20.9451881,29.6612279 24.6791482,27.6684181 C27.0840155,26.3852323 28.5198562,23.9952987 28.7056969,21.4593473 C29.030365,18.9377765 30.5231748,16.605365 32.9368916,15.3172013 C35.4059181,13.9991704 38.2504978,14.0871128 40.5563606,15.2989491 L40.5795907,15.2718473 C42.7693031,16.4565819 45.4883296,16.5611173 47.8495022,15.3006084 C51.5840155,13.3077987 52.9966261,8.66454646 51.0038164,4.93003319 C49.0099004,1.19496681 44.365542,-0.215984513 40.6315819,1.77737832" id="Fill-28"></path>
                </g>
            </g>
        </g>
    </g>
</svg>