<?xml version="1.0" ?><svg height="512" id="Layer_1" version="1.1" viewBox="0 0 512 512" width="512" xml:space="preserve" xmlns="http://www.w3.org/2000/svg" xmlns:cc="http://creativecommons.org/ns#" xmlns:dc="http://purl.org/dc/elements/1.1/" xmlns:rdf="http://www.w3.org/1999/02/22-rdf-syntax-ns#" xmlns:svg="http://www.w3.org/2000/svg"><defs id="defs7"/><g id="g8795" transform="matrix(0.9486166,0,0,0.9486166,5122.8626,-15182.498)"><path d="m -5130.4688,16021.75 c -5.3607,0 -10.3889,2.929 -13.0624,7.562 l -50.7188,87.844 c -1.2702,2.198 -1.9439,4.681 -2,7.188 -0.092,4.043 1.4868,7.98 4.3125,10.875 2.8272,2.892 6.7233,4.562 10.7813,4.562 l 101.375,0 c 5.3462,0 10.4073,-2.883 13.0937,-7.531 2.6806,-4.635 2.6836,-10.456 0,-15.094 l -50.7187,-87.844 c -2.6733,-4.632 -7.7011,-7.562 -13.0626,-7.562 z m 0,6 c 3.0792,0 6.3301,1.885 7.875,4.562 l 50.7188,87.844 c 1.545,2.67 1.5438,6.425 0,9.094 -1.5402,2.664 -4.8119,4.531 -7.9062,4.531 l -101.375,0 c -2.3637,0 -4.8383,-1.05 -6.5,-2.75 -1.6633,-1.703 -2.6478,-4.186 -2.5938,-6.562 0.034,-1.522 0.4429,-3.025 1.1875,-4.313 l 50.7187,-87.844 c 1.5447,-2.676 4.7972,-4.562 7.875,-4.562 z" id="path7432" style="font-size:medium;font-style:normal;font-variant:normal;font-weight:normal;font-stretch:normal;text-indent:0;text-align:start;text-decoration:none;line-height:normal;letter-spacing:normal;word-spacing:normal;text-transform:none;direction:ltr;block-progression:tb;writing-mode:lr-tb;text-anchor:start;baseline-shift:baseline;color:#0047BA;fill:#0047BA;fill-opacity:1;fill-rule:evenodd;stroke:none;stroke-width:6;marker:none;visibility:visible;display:inline;overflow:visible;enable-background:accumulate;font-family:Sans;-inkscape-font-specification:Sans"/><path d="m -5130.4688,16144.594 c -16.0664,0 -29.1562,13.09 -29.1562,29.156 0,16.067 13.0898,29.156 29.1562,29.156 16.0665,0 29.1563,-13.089 29.1563,-29.156 0,-16.066 -13.0898,-29.156 -29.1563,-29.156 z m 0,6 c 12.8232,0 23.1563,10.334 23.1563,23.156 0,12.823 -10.3331,23.156 -23.1563,23.156 -12.8231,0 -23.1562,-10.333 -23.1562,-23.156 0,-12.822 10.3331,-23.156 23.1562,-23.156 z" id="path7424" style="font-size:medium;font-style:normal;font-variant:normal;font-weight:normal;font-stretch:normal;text-indent:0;text-align:start;text-decoration:none;line-height:normal;letter-spacing:normal;word-spacing:normal;text-transform:none;direction:ltr;block-progression:tb;writing-mode:lr-tb;text-anchor:start;baseline-shift:baseline;color:#0047BA;fill:#0047BA;fill-opacity:1;fill-rule:evenodd;stroke:none;stroke-width:6;marker:none;visibility:visible;display:inline;overflow:visible;enable-background:accumulate;font-family:Sans;-inkscape-font-specification:Sans"/><path d="m -5130.4688,16204.375 c -16.0662,0 -29.1562,13.09 -29.1562,29.156 0,16.067 13.09,29.157 29.1562,29.157 16.0663,0 29.1563,-13.09 29.1563,-29.157 0,-16.066 -13.09,-29.156 -29.1563,-29.156 z m 0,6 c 12.8234,0 23.1563,10.333 23.1563,23.156 0,12.824 -10.3329,23.157 -23.1563,23.157 -12.8233,0 -23.1562,-10.333 -23.1562,-23.157 0,-12.823 10.3329,-23.156 23.1562,-23.156 z" id="path7422" style="font-size:medium;font-style:normal;font-variant:normal;font-weight:normal;font-stretch:normal;text-indent:0;text-align:start;text-decoration:none;line-height:normal;letter-spacing:normal;word-spacing:normal;text-transform:none;direction:ltr;block-progression:tb;writing-mode:lr-tb;text-anchor:start;baseline-shift:baseline;color:#0047BA;fill:#0047BA;fill-opacity:1;fill-rule:evenodd;stroke:none;stroke-width:6;marker:none;visibility:visible;display:inline;overflow:visible;enable-background:accumulate;font-family:Sans;-inkscape-font-specification:Sans"/><path d="m -5130.4688,16264.156 c -16.0662,0 -29.1562,13.09 -29.1562,29.156 0,16.067 13.09,29.157 29.1562,29.157 16.0663,0 29.1563,-13.09 29.1563,-29.157 0,-16.066 -13.09,-29.156 -29.1563,-29.156 z m 0,6 c 12.8234,0 23.1563,10.333 23.1563,23.156 0,12.824 -10.3329,23.157 -23.1563,23.157 -12.8233,0 -23.1562,-10.333 -23.1562,-23.157 0,-12.823 10.3329,-23.156 23.1562,-23.156 z" id="path7420" style="font-size:medium;font-style:normal;font-variant:normal;font-weight:normal;font-stretch:normal;text-indent:0;text-align:start;text-decoration:none;line-height:normal;letter-spacing:normal;word-spacing:normal;text-transform:none;direction:ltr;block-progression:tb;writing-mode:lr-tb;text-anchor:start;baseline-shift:baseline;color:#333333;fill:#0047BA;fill-opacity:1;fill-rule:evenodd;stroke:none;stroke-width:6;marker:none;visibility:visible;display:inline;overflow:visible;enable-background:accumulate;font-family:Sans;-inkscape-font-specification:Sans"/><path d="m -5173.8125,16307.031 c -16.0663,0 -29.1563,13.09 -29.1563,29.157 0,16.066 13.09,29.156 29.1563,29.156 16.0664,0 29.1563,-13.09 29.1563,-29.156 0,-16.067 -13.0899,-29.157 -29.1563,-29.157 z m 0,6 c 12.8234,0 23.1563,10.333 23.1563,23.157 0,12.823 -10.3329,23.156 -23.1563,23.156 -12.8233,0 -23.1563,-10.333 -23.1563,-23.156 0,-12.824 10.333,-23.157 23.1563,-23.157 z" id="path7418" style="font-size:medium;font-style:normal;font-variant:normal;font-weight:normal;font-stretch:normal;text-indent:0;text-align:start;text-decoration:none;line-height:normal;letter-spacing:normal;word-spacing:normal;text-transform:none;direction:ltr;block-progression:tb;writing-mode:lr-tb;text-anchor:start;baseline-shift:baseline;color:#333333;fill:#0047BA;fill-opacity:1;fill-rule:evenodd;stroke:none;stroke-width:6;marker:none;visibility:visible;display:inline;overflow:visible;enable-background:accumulate;font-family:Sans;-inkscape-font-specification:Sans"/><path d="m -5087.125,16307.031 c -16.0664,0 -29.1562,13.09 -29.1562,29.157 0,16.066 13.0941,29.124 29.1562,29.124 16.062,0 29.1562,-13.058 29.1562,-29.124 0,-16.067 -13.0899,-29.157 -29.1562,-29.157 z m 0,6 c 12.8233,0 23.1562,10.333 23.1562,23.157 0,12.823 -10.3286,23.124 -23.1562,23.124 -12.8277,0 -23.1562,-10.301 -23.1562,-23.124 0,-12.824 10.3328,-23.157 23.1562,-23.157 z" id="path7416" style="font-size:medium;font-style:normal;font-variant:normal;font-weight:normal;font-stretch:normal;text-indent:0;text-align:start;text-decoration:none;line-height:normal;letter-spacing:normal;word-spacing:normal;text-transform:none;direction:ltr;block-progression:tb;writing-mode:lr-tb;text-anchor:start;baseline-shift:baseline;color:#333333;fill:#0047BA;fill-opacity:1;fill-rule:evenodd;stroke:none;stroke-width:6;marker:none;visibility:visible;display:inline;overflow:visible;enable-background:accumulate;font-family:Sans;-inkscape-font-specification:Sans"/><path d="m -5217.1562,16349.875 c -16.0662,0 -29.1563,13.089 -29.1563,29.156 0,16.066 13.0898,29.157 29.1563,29.157 16.0662,0 29.1562,-13.09 29.1562,-29.157 0,-16.066 -13.09,-29.156 -29.1562,-29.156 z m 0,6 c 12.8233,0 23.1562,10.333 23.1562,23.156 0,12.824 -10.3329,23.157 -23.1562,23.157 -12.8232,0 -23.1563,-10.334 -23.1563,-23.157 0,-12.824 10.3328,-23.156 23.1563,-23.156 z" id="path7414" style="font-size:medium;font-style:normal;font-variant:normal;font-weight:normal;font-stretch:normal;text-indent:0;text-align:start;text-decoration:none;line-height:normal;letter-spacing:normal;word-spacing:normal;text-transform:none;direction:ltr;block-progression:tb;writing-mode:lr-tb;text-anchor:start;baseline-shift:baseline;color:#333333;fill:#0047BA;fill-opacity:1;fill-rule:evenodd;stroke:none;stroke-width:6;marker:none;visibility:visible;display:inline;overflow:visible;enable-background:accumulate;font-family:Sans;-inkscape-font-specification:Sans"/><path d="m -5043.8125,16349.875 c -16.0661,0 -29.125,13.093 -29.125,29.156 0,16.062 13.0586,29.157 29.125,29.157 16.0664,0 29.1563,-13.09 29.1563,-29.157 0,-16.066 -13.0899,-29.156 -29.1563,-29.156 z m 0,6 c 12.8234,0 23.1563,10.333 23.1563,23.156 0,12.824 -10.3329,23.157 -23.1563,23.157 -12.8232,0 -23.125,-10.33 -23.125,-23.157 0,-12.829 10.3015,-23.156 23.125,-23.156 z" id="path7412" style="font-size:medium;font-style:normal;font-variant:normal;font-weight:normal;font-stretch:normal;text-indent:0;text-align:start;text-decoration:none;line-height:normal;letter-spacing:normal;word-spacing:normal;text-transform:none;direction:ltr;block-progression:tb;writing-mode:lr-tb;text-anchor:start;baseline-shift:baseline;color:#333333;fill:#0047BA;fill-opacity:1;fill-rule:evenodd;stroke:none;stroke-width:6;marker:none;visibility:visible;display:inline;overflow:visible;enable-background:accumulate;font-family:Sans;-inkscape-font-specification:Sans"/><path d="m -5217.1562,16409.656 c -16.0665,0 -29.1563,13.09 -29.1563,29.156 0,16.067 13.09,29.157 29.1563,29.157 16.0662,0 29.1562,-13.09 29.1562,-29.157 0,-16.066 -13.0898,-29.156 -29.1562,-29.156 z m 0,6 c 12.8231,0 23.1562,10.333 23.1562,23.156 0,12.824 -10.3329,23.157 -23.1562,23.157 -12.8234,0 -23.1563,-10.333 -23.1563,-23.157 0,-12.823 10.3331,-23.156 23.1563,-23.156 z" id="path7410" style="font-size:medium;font-style:normal;font-variant:normal;font-weight:normal;font-stretch:normal;text-indent:0;text-align:start;text-decoration:none;line-height:normal;letter-spacing:normal;word-spacing:normal;text-transform:none;direction:ltr;block-progression:tb;writing-mode:lr-tb;text-anchor:start;baseline-shift:baseline;color:#333333;fill:#0047BA;fill-opacity:1;fill-rule:evenodd;stroke:none;stroke-width:6;marker:none;visibility:visible;display:inline;overflow:visible;enable-background:accumulate;font-family:Sans;-inkscape-font-specification:Sans"/><path d="m -5043.8125,16409.656 c -16.0664,0 -29.125,13.094 -29.125,29.156 0,16.063 13.0587,29.157 29.125,29.157 16.0664,0 29.1563,-13.09 29.1563,-29.157 0,-16.066 -13.0898,-29.156 -29.1563,-29.156 z m 0,6 c 12.8233,0 23.1563,10.333 23.1563,23.156 0,12.824 -10.3329,23.157 -23.1563,23.157 -12.8233,0 -23.125,-10.329 -23.125,-23.157 0,-12.827 10.3018,-23.156 23.125,-23.156 z" id="path7408" style="font-size:medium;font-style:normal;font-variant:normal;font-weight:normal;font-stretch:normal;text-indent:0;text-align:start;text-decoration:none;line-height:normal;letter-spacing:normal;word-spacing:normal;text-transform:none;direction:ltr;block-progression:tb;writing-mode:lr-tb;text-anchor:start;baseline-shift:baseline;color:#333333;fill:#0047BA;fill-opacity:1;fill-rule:evenodd;stroke:none;stroke-width:6;marker:none;visibility:visible;display:inline;overflow:visible;enable-background:accumulate;font-family:Sans;-inkscape-font-specification:Sans"/><path d="m -5217.1562,16469.438 c -16.0662,0 -29.1563,13.089 -29.1563,29.156 0,16.066 13.09,29.156 29.1563,29.156 16.0661,0 29.1562,-13.089 29.1562,-29.156 0,-16.067 -13.0901,-29.156 -29.1562,-29.156 z m 0,6 c 12.8234,0 23.1562,10.332 23.1562,23.156 0,12.824 -10.3328,23.156 -23.1562,23.156 -12.8234,0 -23.1563,-10.333 -23.1563,-23.156 0,-12.824 10.3328,-23.156 23.1563,-23.156 z" id="path7406" style="font-size:medium;font-style:normal;font-variant:normal;font-weight:normal;font-stretch:normal;text-indent:0;text-align:start;text-decoration:none;line-height:normal;letter-spacing:normal;word-spacing:normal;text-transform:none;direction:ltr;block-progression:tb;writing-mode:lr-tb;text-anchor:start;baseline-shift:baseline;color:#333333;fill:#0047BA;fill-opacity:1;fill-rule:evenodd;stroke:none;stroke-width:6;marker:none;visibility:visible;display:inline;overflow:visible;enable-background:accumulate;font-family:Sans;-inkscape-font-specification:Sans"/><path d="m -5043.8125,16469.438 c -16.0661,0 -29.125,13.094 -29.125,29.156 0,16.062 13.0587,29.156 29.125,29.156 16.0662,0 29.1563,-13.089 29.1563,-29.156 0,-16.067 -13.0901,-29.156 -29.1563,-29.156 z m 0,6 c 12.8236,0 23.1563,10.332 23.1563,23.156 0,12.824 -10.3327,23.156 -23.1563,23.156 -12.8233,0 -23.125,-10.328 -23.125,-23.156 0,-12.828 10.3015,-23.156 23.125,-23.156 z" id="path7404" style="font-size:medium;font-style:normal;font-variant:normal;font-weight:normal;font-stretch:normal;text-indent:0;text-align:start;text-decoration:none;line-height:normal;letter-spacing:normal;word-spacing:normal;text-transform:none;direction:ltr;block-progression:tb;writing-mode:lr-tb;text-anchor:start;baseline-shift:baseline;color:#333333;fill:#0047BA;fill-opacity:1;fill-rule:evenodd;stroke:none;stroke-width:6;marker:none;visibility:visible;display:inline;overflow:visible;enable-background:accumulate;font-family:Sans;-inkscape-font-specification:Sans"/></g></svg>