<?xml version="1.0" encoding="UTF-8"?>
<svg width="16px" height="13px" viewBox="0 0 16 13" version="1.1" xmlns="http://www.w3.org/2000/svg" xmlns:xlink="http://www.w3.org/1999/xlink">
    <!-- Generator: Sketch 50.2 (55047) - http://www.bohemiancoding.com/sketch -->
    <title>ic_back_arrow_link</title>
    <desc>Created with Sketch.</desc>
    <defs></defs>
    <g id="UI---Comparison-Page" stroke="none" stroke-width="1" fill="none" fill-rule="evenodd">
        <g id="Mobile_view" transform="translate(-17.000000, -74.000000)" fill="#0047BA">
            <g id="ic_back_arrow_link" transform="translate(25.500000, 80.500000) scale(-1, 1) translate(-25.500000, -80.500000) translate(17.000000, 74.000000)">
                <path d="M15.5878015,5.57565517 L3.44400841,5.57565517 L7.93393944,1.16910345 C8.19887048,0.908655172 8.20290496,0.483241379 7.94290496,0.217862069 C7.68200841,-0.0470689655 7.25659462,-0.0506551724 6.99166358,0.208896552 L1.34159462,5.75406897 C1.21338772,5.88003448 1.14076703,6.05172414 1.14031875,6.23103448 C1.1394222,6.41034483 1.21024979,6.58293103 1.33711186,6.7097931 L6.99659462,12.3692759 C7.12793944,12.5006207 7.30007737,12.566069 7.47221531,12.566069 C7.64390496,12.566069 7.81604289,12.5006207 7.94738772,12.3692759 C8.21007737,12.1065862 8.21007737,11.6807241 7.94738772,11.4184828 L3.44938772,6.92048276 L15.5878015,6.92048276 C15.9589739,6.92048276 16.2602153,6.61924138 16.2602153,6.24806897 C16.2602153,5.87644828 15.9589739,5.57565517 15.5878015,5.57565517" id="1A" transform="translate(8.700263, 6.291370) scale(-1, 1) translate(-8.700263, -6.291370) "></path>
            </g>
        </g>
    </g>
</svg>