<?xml version="1.0" encoding="UTF-8"?>
<svg width="46px" height="73px" viewBox="0 0 46 73" version="1.1" xmlns="http://www.w3.org/2000/svg" xmlns:xlink="http://www.w3.org/1999/xlink">
    <!-- Generator: Sketch 50.2 (55047) - http://www.bohemiancoding.com/sketch -->
    <title>ic_application</title>
    <desc>Created with Sketch.</desc>
    <defs></defs>
    <g id="Homepage" stroke="none" stroke-width="1" fill="none" fill-rule="evenodd">
        <g id="UI_default" transform="translate(-1225.000000, -1232.000000)" stroke="#000000" stroke-width="2">
            <g id="ic_application" transform="translate(1226.000000, 1233.000000)">
                <g id="Page-1">
                    <path d="M35,30.7086113 C35,30.8489257 34.8867026,30.962223 34.7472597,30.962223 L32.4185633,30.962223 C32.3000369,30.962223 32.2006838,31.0450173 32.1762813,31.1609292 C31.9078537,32.4316026 31.4110884,33.6168672 30.7260752,34.6705326 C30.6615828,34.7698857 30.6737841,34.8979989 30.7574498,34.9816646 L32.401133,36.6253478 C32.4996145,36.7238293 32.4996145,36.8841887 32.401133,36.9835417 L29.9844132,39.4002615 C29.8850602,39.498743 29.7247008,39.498743 29.6262193,39.4002615 L27.9825361,37.7565783 C27.8988704,37.6729125 27.7707572,37.6615828 27.6714041,37.7252036 C26.6177387,38.4110884 25.4316026,38.9069822 24.1609292,39.1754098 C24.0458888,39.1998123 23.962223,39.2991654 23.962223,39.4176918 L23.962223,41.7463882 C23.962223,41.8858311 23.8489257,42 23.7094828,42 L20.2913887,42 C20.1510743,42 20.0386485,41.8858311 20.0386485,41.7463882 L20.0386485,39.4176918 C20.0386485,39.2991654 19.9549827,39.1998123 19.8390708,39.1754098 C18.5683974,38.9069822 17.3822613,38.4110884 16.3294674,37.7252036 C16.2301143,37.6607113 16.1020011,37.6729125 16.0183354,37.7565783 L14.3737807,39.4002615 C14.2752992,39.498743 14.1158113,39.498743 14.0164583,39.4002615 L11.598867,36.9835417 C11.5003855,36.8841887 11.5003855,36.7238293 11.598867,36.6253478 L13.2434217,34.9816646 C13.3270875,34.8979989 13.3392887,34.7698857 13.2739248,34.6705326 C12.5889116,33.6168672 12.0921463,32.4316026 11.8245902,31.1609292 C11.7993162,31.0450173 11.7008346,30.962223 11.5823082,30.962223 L9.25361177,30.962223 C9.11329736,30.962223 9,30.8489257 9,30.7086113 L9,27.2905172 C9,27.1502028 9.11329736,27.037777 9.25361177,27.037777 L11.5823082,27.037777 C11.7008346,27.037777 11.7993162,26.9541112 11.8245902,26.8381993 C12.0921463,25.5675259 12.5889116,24.3822613 13.2739248,23.3285959 C13.3392887,23.2292428 13.3270875,23.1011296 13.2434217,23.0174639 L11.598867,21.3737807 C11.5003855,21.2744276 11.5003855,21.1140683 11.598867,21.0155868 L14.0164583,18.5979955 C14.1158113,18.499514 14.2752992,18.499514 14.3737807,18.5979955 L16.0183354,20.2425502 C16.1020011,20.3262159 16.2301143,20.3384172 16.3294674,20.2730533 C17.3822613,19.5880401 18.5683974,19.0912748 19.8390708,18.8237187 C19.9549827,18.7993162 20.0386485,18.6999631 20.0386485,18.5814367 L20.0386485,16.2527403 C20.0386485,16.1124258 20.1510743,16 20.2913887,16 L23.7094828,16 C23.8489257,16 23.962223,16.1124258 23.962223,16.2527403 L23.962223,18.5814367 C23.962223,18.6999631 24.0458888,18.7993162 24.1609292,18.8237187 C25.4316026,19.0912748 26.6177387,19.5880401 27.6705326,20.2730533 C27.7698857,20.3384172 27.8988704,20.3262159 27.9825361,20.2425502 L29.6262193,18.5979955 C29.7247008,18.499514 29.8850602,18.499514 29.9844132,18.5979955 L32.401133,21.0155868 C32.4996145,21.1140683 32.4996145,21.2744276 32.401133,21.3737807 L30.7574498,23.0174639 C30.6737841,23.1011296 30.6615828,23.2292428 30.7260752,23.3285959 C31.4110884,24.3822613 31.9078537,25.5675259 32.1762813,26.8381993 C32.2006838,26.9541112 32.3000369,27.037777 32.4185633,27.037777 L34.7472597,27.037777 C34.8867026,27.037777 35,27.1502028 35,27.2905172 L35,30.7086113 Z" id="Path"></path>
                    <circle id="Oval-2" cx="22" cy="29" r="6"></circle>
                    <g id="Group-5">
                        <path d="M38.718,55.675 C38.718,56.722 37.868,57.571 36.821,57.571 L6.941,57.571 C5.893,57.571 5.044,56.722 5.044,55.675 L5.044,6.966 C5.044,5.919 5.893,5.07 6.941,5.07 L36.821,5.07 C37.868,5.07 38.718,5.919 38.718,6.967 L38.718,55.675 Z M21.834,68.746 C19.479,68.746 17.57,66.837 17.57,64.481 C17.57,62.126 19.479,60.217 21.834,60.217 C24.189,60.217 26.099,62.126 26.099,64.481 C26.099,66.837 24.189,68.746 21.834,68.746 Z M40.001,0 L3.667,0 C1.642,0 0,1.642 0,3.667 L0,67.334 C0,69.359 1.642,71 3.667,71 L40.001,71 C42.026,71 43.667,69.359 43.667,67.334 L43.667,3.667 C43.667,1.642 42.026,0 40.001,0 Z" id="Fill-3"></path>
                    </g>
                </g>
            </g>
        </g>
    </g>
</svg>
