<?xml version="1.0" ?><!DOCTYPE svg  PUBLIC '-//W3C//DTD SVG 1.1//EN'
  'http://www.w3.org/Graphics/SVG/1.1/DTD/svg11.dtd'>
<svg enable-background="new 0.5 0.5 128 128" height="128px" id="Layer_1" version="1.1" viewBox="0.5 0.5 128 128"
     width="128px" xml:space="preserve" xmlns="http://www.w3.org/2000/svg" xmlns:xlink="http://www.w3.org/1999/xlink"><path d="M18.5,58.5c-3.86,0-7-3.14-7-7s3.14-7,7-7s7,3.14,7,7S22.36,58.5,18.5,58.5z M18.5,48.5  c-1.654,0-3,1.346-3,3s1.346,3,3,3s3-1.346,3-3S20.154,48.5,18.5,48.5z" fill="#000000"/>
  <path
    d="M110.5,58.5c-3.859,0-7-3.14-7-7s3.141-7,7-7s7,3.14,7,7S114.359,58.5,110.5,58.5z M110.5,48.5  c-1.654,0-3,1.346-3,3s1.346,3,3,3s3-1.346,3-3S112.154,48.5,110.5,48.5z"
    fill="#000000"/>
  <path
    d="M98.5,113.5c-3.859,0-7-3.141-7-7s3.141-7,7-7s7,3.141,7,7S102.359,113.5,98.5,113.5z M98.5,103.5  c-1.654,0-3,1.346-3,3s1.346,3,3,3s3-1.346,3-3S100.154,103.5,98.5,103.5z"
    fill="#000000"/>
  <path
    d="M29.499,113.5c-3.859,0-6.999-3.14-6.999-6.999c0-3.86,3.14-7.001,6.999-7.001  c3.86,0,7.001,3.141,7.001,7.001C36.5,110.36,33.359,113.5,29.499,113.5z M29.499,103.5c-1.654,0-2.999,1.347-2.999,3.001  c0,1.653,1.345,2.999,2.999,2.999c1.655,0,3.001-1.346,3.001-2.999C32.5,104.847,31.154,103.5,29.499,103.5z"
    fill="#000000"/>
  <path
    d="M64.5,29.5c-3.86,0-7-3.14-7-7s3.14-7,7-7c3.859,0,7,3.14,7,7S68.359,29.5,64.5,29.5z M64.5,19.5  c-1.654,0-3,1.346-3,3s1.346,3,3,3s3-1.346,3-3S66.154,19.5,64.5,19.5z"
    fill="#000000"/>
  <polyline fill="none" points="53.479,69.792 61.965,78.278   77.521,62.722 " stroke="#000000" stroke-miterlimit="10"
            stroke-width="4"/>
  <path
    d="M110.5,66.5c8.271,0,15-6.729,15-15s-6.729-15-15-15s-15,6.729-15,15c0,1.582,0.25,3.105,0.706,4.538  l-8.499,2.76C83.702,50.889,75.776,45.294,66.5,44.584v-7.234c7.327-0.983,13-7.259,13-14.851c0-8.271-6.729-15-15-15  c-8.271,0-15,6.729-15,15c0,7.591,5.673,13.868,13,14.851v7.234c-9.152,0.7-16.991,6.156-21.045,13.898l-8.565-2.782  c0.39-1.334,0.61-2.742,0.61-4.201c0-8.271-6.729-15-15-15s-15,6.729-15,15s6.729,15,15,15c5.382,0,10.097-2.859,12.744-7.128  l8.631,2.804C38.988,64.791,38.5,67.589,38.5,70.5c0,6.896,2.704,13.169,7.101,17.828l-6.833,6.401  c-2.554-2.016-5.77-3.229-9.269-3.229c-8.271,0-14.999,6.729-14.999,15.001c0,8.271,6.729,14.999,14.999,14.999  c8.271,0,15.001-6.729,15.001-14.999c0-3.332-1.105-6.403-2.951-8.896l7.021-6.579c4.404,3.426,9.931,5.474,15.93,5.474  c6.017,0,11.559-2.06,15.969-5.504l6.423,6.019c-2.117,2.587-3.392,5.89-3.392,9.486c0,8.271,6.729,14.999,15,14.999  s15-6.729,15-14.999c0-8.271-6.729-15.001-15-15.001c-3.232,0-6.222,1.038-8.674,2.784l-6.394-5.991  C87.81,83.638,90.5,77.379,90.5,70.5c0-2.788-0.446-5.473-1.262-7.993l8.705-2.828C100.623,63.78,105.246,66.5,110.5,66.5z   M110.5,40.5c6.065,0,11,4.935,11,11s-4.935,11-11,11s-11-4.935-11-11S104.435,40.5,110.5,40.5z M18.5,62.5c-6.065,0-11-4.935-11-11  s4.935-11,11-11s11,4.935,11,11S24.565,62.5,18.5,62.5z M29.499,117.5c-6.065,0-10.999-4.935-10.999-10.999  c0-6.066,4.934-11.001,10.999-11.001c6.066,0,11.001,4.935,11.001,11.001C40.5,112.565,35.565,117.5,29.499,117.5z M109.5,106.501  c0,6.064-4.935,10.999-11,10.999s-11-4.935-11-10.999c0-6.066,4.935-11.001,11-11.001S109.5,100.435,109.5,106.501z M53.5,22.5  c0-6.065,4.935-11,11-11s11,4.935,11,11s-4.935,11-11,11S53.5,28.565,53.5,22.5z M64.5,92.5c-12.131,0-22-9.869-22-22  s9.869-22,22-22s22,9.869,22,22S76.631,92.5,64.5,92.5z"
    fill="#000000"/></svg>
