<?xml version="1.0" encoding="UTF-8"?>
<svg width="73px" height="74px" viewBox="0 0 73 74" version="1.1" xmlns="http://www.w3.org/2000/svg" xmlns:xlink="http://www.w3.org/1999/xlink">
    <!-- Generator: Sketch 50.2 (55047) - http://www.bohemiancoding.com/sketch -->
    <title>ic_analytics_active</title>
    <desc>Created with Sketch.</desc>
    <defs></defs>
    <g id="Homepage" stroke="none" stroke-width="1" fill="none" fill-rule="evenodd">
        <g id="UI_hover2" transform="translate(-434.000000, -1439.000000)">
            <g id="ic_analytics_active" transform="translate(435.000000, 1439.000000)">
                <g id="Group-3" transform="translate(0.000000, 0.089800)" stroke="#37833F" stroke-width="2">
                    <path d="M59.3411,14.6127 C56.4571,13.8977 53.7031,14.0637 51.2071,14.8267 C50.7341,14.9717 50.2481,14.6807 50.0961,14.2097 C47.6041,6.4967 40.3831,0.9097 31.8391,0.9097 C22.0791,0.9097 14.0241,8.1927 12.8001,17.6207 C12.7521,17.9867 12.4621,18.2607 12.0951,18.2947 C5.0421,18.9367 -0.4249,25.0617 0.0261,32.3807 C0.3501,37.6487 3.8281,41.9757 8.5101,43.8457 C9.4241,44.2107 10.4511,43.6717 10.7351,42.7287 C13.9301,32.0737 23.8201,24.2867 35.4991,24.2867 C46.9901,24.2867 56.7501,31.8237 60.1071,42.2127 C60.4231,43.1927 61.5301,43.7097 62.4531,43.2527 C67.9641,40.5237 71.6051,34.5917 70.9161,27.8837 C70.2631,21.5147 65.5551,16.1537 59.3411,14.6127" id="Fill-1"></path>
                </g>
                <path d="M35.4993,72.0893 C23.4473,72.0893 13.6433,62.2853 13.6433,50.2333 C13.6433,38.1813 23.4473,28.3763 35.4993,28.3763 C47.5513,28.3763 57.3563,38.1813 57.3563,50.2333 C57.3563,62.2853 47.5513,72.0893 35.4993,72.0893" id="Fill-4" stroke="#37833F" stroke-width="2"></path>
                <path d="M45.7627182,60.9207 L43.6604818,60.9207 C43.412878,60.9207 43.2116,60.6687 43.2116,60.3587 L43.2116,40.1087 C43.2116,39.7967 43.412878,39.5457 43.6604818,39.5457 L45.7627182,39.5457 C46.0111208,39.5457 46.2116,39.7967 46.2116,40.1087 L46.2116,60.3587 C46.2116,60.6687 46.0111208,60.9207 45.7627182,60.9207" id="Fill-6" fill="#37833F"></path>
                <path d="M39.3691182,60.9207 L37.2668818,60.9207 C37.019278,60.9207 36.818,60.6687 36.818,60.3587 L36.818,44.7977 C36.818,44.4867 37.019278,44.2347 37.2668818,44.2347 L39.3691182,44.2347 C39.6183195,44.2347 39.818,44.4867 39.818,44.7977 L39.818,60.3587 C39.818,60.6687 39.6183195,60.9207 39.3691182,60.9207" id="Fill-8" fill="#37833F"></path>
                <path d="M32.9765182,60.9207 L30.8742818,60.9207 C30.626678,60.9207 30.4254,60.6687 30.4254,60.3587 L30.4254,48.4577 C30.4254,48.1477 30.626678,47.8957 30.8742818,47.8957 L32.9765182,47.8957 C33.2249208,47.8957 33.4254,48.1477 33.4254,48.4577 L33.4254,60.3587 C33.4254,60.6687 33.2249208,60.9207 32.9765182,60.9207" id="Fill-10" fill="#37833F"></path>
                <path d="M26.5831377,60.9207 L24.4806623,60.9207 C24.2331244,60.9207 24.0319,60.6687 24.0319,60.3587 L24.0319,51.3157 C24.0319,51.0047 24.2331244,50.7537 24.4806623,50.7537 L26.5831377,50.7537 C26.8314741,50.7537 27.0319,51.0047 27.0319,51.3157 L27.0319,60.3587 C27.0319,60.6687 26.8314741,60.9207 26.5831377,60.9207" id="Fill-12" fill="#37833F"></path>
            </g>
        </g>
    </g>
</svg>
