<?xml version="1.0" encoding="UTF-8"?>
<svg width="70px" height="71px" viewBox="0 0 70 71" version="1.1" xmlns="http://www.w3.org/2000/svg" xmlns:xlink="http://www.w3.org/1999/xlink">
    <!-- Generator: Sketch 50.2 (55047) - http://www.bohemiancoding.com/sketch -->
    <title>ic_consulting</title>
    <desc>Created with Sketch.</desc>
    <defs></defs>
    <g id="Homepage" stroke="none" stroke-width="1" fill="none" fill-rule="evenodd">
        <g id="UI_default" transform="translate(-1190.000000, -1439.000000)" fill="#000000" fill-rule="nonzero" stroke="#000000" stroke-width="0.5">
            <g id="ic_consulting" transform="translate(1191.000000, 1440.000000)">
                <g id="Group-23">
                    <path d="M9.15744109,23.875093 C11.0116164,23.8844977 12.8581232,23.1182307 14.1645101,21.8008475 C15.4817487,20.495618 16.2465688,18.6499793 16.2373088,16.7949359 C16.2465688,14.9398925 15.4818933,13.0933857 14.1645101,11.7878669 C12.8581232,10.4706284 11.0132079,9.70494006 9.15744109,9.71434477 C7.30167425,9.7056635 5.45675899,10.4706284 4.15037205,11.7878669 C2.83313353,13.0933857 2.06672179,14.9390244 2.0761265,16.7942125 C2.06686647,18.6499793 2.83313353,20.495618 4.15037205,21.8009921 C5.4566143,23.118086 7.30152956,23.8844977 9.15744109,23.875093 Z M4.86976023,12.5081232 C5.99195949,11.3788342 7.56529558,10.7257131 9.1572964,10.7326581 C10.7492972,10.7257131 12.3226333,11.3781108 13.4448326,12.5081232 C14.5732534,13.6287309 15.2272427,15.2027904 15.2194295,16.7949359 C15.2272427,18.3862133 14.5732534,19.9602728 13.443241,21.0813146 C12.3224886,22.211327 10.7477057,22.8637247 9.15715172,22.8559115 C7.56515089,22.8638694 5.9918148,22.2097354 4.86961554,21.0813146 C3.73960314,19.9602728 3.08720546,18.3862133 3.09357172,16.7940678 C3.08735014,15.2027904 3.73989252,13.6287309 4.86976023,12.5081232 Z" id="Shape"></path>
                    <path d="M10.5059322,25.1347458 C10.5269322,25.1402458 10.5434322,25.1452458 10.5594322,25.1507458 C10.5974322,25.1612458 10.6349322,25.1667458 10.6729322,25.1777458 L10.5059322,25.1347458 Z" id="Shape"></path>
                    <path d="M30.9744936,31.4155023 L18.8001654,31.4155023 L15.3538446,28.5951013 L13.5620298,27.1278214 C13.4121331,26.9981811 13.2483464,26.8890864 13.1718065,26.7922902 C13.0282761,26.6393551 12.8751964,26.4958247 12.7176313,26.3567797 C12.4094461,26.0922902 12.0730467,25.8570277 11.7197189,25.6560562 C11.7189955,25.6556222 11.7175486,25.6550434 11.7171145,25.6544647 C11.3597354,25.4108103 10.9508475,25.2313973 10.5215585,25.1392311 C9.98462174,24.9737081 9.42439024,24.8786482 8.86242249,24.8630219 L7.26564696,24.8583919 C6.73652336,24.866205 6.22924762,24.8379909 5.63776354,24.8880529 C5.06653576,24.9473749 4.50138487,25.0768706 3.96777594,25.2907193 C1.81236048,26.1179 0.229619678,28.2343944 0.0672798677,30.5412981 C0.02054568,34.8396858 0.0548367094,38.9961348 0.0438404299,43.2305705 L0.0438404299,46.3927243 C0.0125878462,47.5087019 0.298201736,48.6902232 0.880425796,49.6751137 C1.45642828,50.6695535 2.31326995,51.4967342 3.32622985,52.0367094 C4.32356346,52.5892724 5.54111203,52.8109343 6.61787929,52.7639107 L8.19902852,52.7639107 C8.46279454,52.7639107 8.72033898,52.7669492 9.0199876,52.7530591 L9.38373295,52.7218065 L9.77858619,52.7218065 L12.94074,52.7218065 L18.7563249,52.7218065 L18.7563249,69.7035345 L26.2077511,69.7035345 L26.2077511,45.579723 L14.8824514,45.579723 L14.8824514,37.2730467 L14.8824514,37.0016122 L14.884043,37.0030591 L14.9932823,37.0810459 L15.2726747,37.245122 C15.4662671,37.343365 15.666081,37.4278628 15.8735635,37.4886317 C16.2872261,37.6134973 16.7241835,37.6556015 17.1534725,37.618272 C17.1706904,37.6166804 17.1769119,37.6166804 17.1832782,37.6166804 C17.1845804,37.6166804 17.1860273,37.6166804 17.1909467,37.6166804 L17.3516949,37.6337536 C17.5062216,37.6446052 17.5531005,37.6367921 17.6577098,37.6383836 L18.2086813,37.6383836 L19.3104795,37.6383836 L21.515957,37.6383836 L30.3313559,37.6383836 L30.8823274,37.6383836 C31.0665151,37.6383836 31.3116164,37.6289789 31.5206904,37.5884663 C31.9530178,37.5120711 32.3698636,37.3449566 32.7318727,37.0952253 C33.4577718,36.5988012 33.9556428,35.7856552 34.0601075,34.9100041 C34.1741215,34.0407193 33.8931377,33.1213725 33.304692,32.4688301 C32.7272427,31.808764 31.8547747,31.4107276 30.9744936,31.4155023 Z M33.0503307,34.7851385 C32.9800124,35.3721372 32.6444812,35.9199256 32.1560149,36.2554568 C31.9125052,36.4240182 31.6331129,36.5348491 31.3427243,36.586358 C31.1897892,36.6128359 31.0665151,36.6192021 30.8823274,36.620649 L30.3313559,36.620649 L21.515957,36.620649 C20.0268293,36.6126912 18.6191608,36.6377222 17.0644895,36.6034312 C16.7616577,36.6301984 16.4541959,36.6003927 16.1653989,36.5145928 C16.020277,36.4708971 15.8813766,36.411575 15.7455147,36.3444399 L15.5504754,36.2289789 L15.2179826,35.9728814 L14.3625878,35.2828648 L13.9350351,34.9379289 C13.8320174,34.8132079 13.87253,34.9908847 13.8647168,35.0659777 L13.8647168,35.3404506 L13.8647168,37.2727573 L13.8647168,46.5986151 L25.1901612,46.5986151 L25.1901612,68.6856552 L19.7742042,68.6856552 L19.7742042,51.7046507 L12.9408847,51.7046507 L9.77858619,51.7046507 L9.38373295,51.7046507 L8.959074,51.7373501 C8.73278214,51.749938 8.46279454,51.7482017 8.19902852,51.7467549 L6.61787929,51.7467549 C5.59247623,51.7840843 4.66690781,51.6014882 3.80543613,51.1394998 C2.95944605,50.6869161 2.24150475,49.9954527 1.7607069,49.163642 C1.27527904,48.3286482 1.03654403,47.3858619 1.06143034,46.3931583 L1.06143034,43.2310045 C1.07083506,39.034043 1.04276561,34.7573584 1.08183134,30.6259405 C1.21610169,28.7014469 2.54115337,26.9284415 4.34078131,26.2385697 C4.78714345,26.0607482 5.25853659,25.9513642 5.73455974,25.9030384 C6.19336503,25.8607896 6.74288962,25.884229 7.26579165,25.8780074 L8.83290616,25.8810459 C9.31355932,25.8952253 9.78958247,25.9746589 10.2485325,26.118334 L10.2734188,26.1262919 L10.2968582,26.1309219 C10.59969,26.1948739 10.8883423,26.3213311 11.1490699,26.4992972 L11.1677346,26.513332 L11.1895825,26.5257751 C11.4954527,26.6959281 11.7842497,26.8987805 12.0511988,27.1282555 C12.1838776,27.2437164 12.313518,27.363952 12.4337536,27.4934477 C12.6085366,27.6932617 12.7786895,27.7900579 12.9159983,27.9165151 L14.7094047,29.3836503 L18.4365647,32.4335263 L30.9746383,32.4335263 C31.5693055,32.4319347 32.149938,32.6988838 32.5417528,33.1436544 C32.9394998,33.5833609 33.1268706,34.195246 33.0503307,34.7851385 Z" id="Shape"></path>
                    <path d="M11.7189955,25.6556222 C11.7194955,25.6561222 11.7204955,25.6566222 11.7214955,25.6571222 C11.7269955,25.6606222 11.7319955,25.6641222 11.7394955,25.6676222 L11.7189955,25.6556222 Z" id="Shape"></path>
                    <path d="M59.1362547,23.875093 C60.9904299,23.8844977 62.8369368,23.1182307 64.1418768,21.8008475 C65.4607069,20.495618 66.2255271,18.6499793 66.2162671,16.7940678 C66.2255271,14.9390244 65.4607069,13.0933857 64.1418768,11.7877222 C62.8369368,10.4704837 60.9905746,9.70551881 59.1348078,9.71420008 C57.2806325,9.70494006 55.4341257,10.4704837 54.1293303,11.7877222 C52.8103555,13.093241 52.04568,14.9397478 52.0549401,16.7947912 C52.04568,18.64969 52.8119471,20.4953286 54.1293303,21.8007028 C55.433981,23.118086 57.2804878,23.8844977 59.1362547,23.875093 Z M54.8488632,12.5081232 C55.9693262,11.3779661 57.5442538,10.7257131 59.1346631,10.7326581 C60.7268086,10.7257131 62.3015916,11.3789789 63.4223439,12.5081232 C64.5523563,13.6287309 65.2062009,15.2027904 65.1983878,16.7940678 C65.2062009,18.3862133 64.5522117,19.9602728 63.4223439,21.0813146 C62.3015916,22.2097354 60.7268086,22.8637247 59.1362547,22.8559115 C57.5442538,22.8638694 55.9693262,22.211327 54.8488632,21.0813146 C53.7187061,19.9602728 53.0663084,18.3862133 53.07253,16.7949359 C53.0663084,15.2027904 53.7187061,13.6287309 54.8488632,12.5081232 Z" id="Shape"></path>
                    <path d="M57.7378462,25.1777458 C57.7753462,25.1672458 57.8133462,25.1617458 57.8508462,25.1507458 C57.8728462,25.1452458 57.8893462,25.1402458 57.9048462,25.1347458 L57.7378462,25.1777458 Z" id="Shape"></path>
                    <path d="M68.2264159,30.5414427 C68.0626292,28.2345391 66.4813353,26.1180446 64.3260645,25.290864 C63.7921662,25.0768706 63.22716,24.9475196 62.6559322,24.8881976 C62.0628566,24.8381356 61.5555808,24.8663497 61.0263125,24.8585366 L59.4311286,24.8631666 C58.8678586,24.8787929 58.3074824,24.9739975 57.770401,25.1393758 C57.3380736,25.2329888 56.927594,25.4125465 56.5686234,25.6592394 C56.2158743,25.8605002 55.8819347,26.0931583 55.5744729,26.3567797 C55.4167631,26.4958247 55.2623811,26.6393551 55.120153,26.7922902 C55.0466515,26.8874948 54.8798264,26.9999173 54.7313766,27.129413 L52.9379702,28.5966928 L49.4930963,31.4155023 L37.3173212,31.4155023 C36.4386317,31.4107276 35.566019,31.808764 34.9885697,32.4675279 C34.3986771,33.1199256 34.1161017,34.0391277 34.2299711,34.9087019 C34.3347251,35.784353 34.834043,36.5989458 35.5597974,37.0937784 C35.920215,37.3435097 36.3386523,37.5122158 36.7709797,37.588611 C36.9786069,37.6289789 37.2237081,37.6385283 37.4077511,37.6385283 L37.9588673,37.6385283 L46.7758578,37.6385283 L48.9794543,37.6385283 L50.0813973,37.6385283 L50.6325134,37.6385283 C50.7385697,37.6369368 50.7855932,37.6447499 50.9399752,37.6338983 L51.1005788,37.6168251 C51.1177966,37.6168251 51.1117197,37.6168251 51.1053535,37.6150889 C51.1099835,37.6168251 51.1193882,37.6168251 51.1381976,37.618272 C51.5674866,37.6557462 52.0042993,37.613642 52.4181067,37.4886317 C52.6257338,37.4278628 52.8252584,37.3419181 53.0189955,37.245122 L53.2983878,37.0810459 L53.4076271,37.0016122 L53.4092187,36.999876 L53.4092187,37.2730467 L53.4092187,45.579723 L42.0840637,45.579723 L42.0840637,69.7036792 L49.5354899,69.7036792 L49.5354899,52.7220959 L55.3507854,52.7220959 L58.5130839,52.7220959 L58.9095287,52.7220959 L59.2716825,52.7533485 C59.5729227,52.7673832 59.8303224,52.7642001 60.0926416,52.7642001 L61.6736461,52.7642001 C62.7505581,52.811079 63.9696982,52.5895618 64.9654403,52.0369988 C65.9801364,51.4970236 66.8369781,50.6698429 67.4128359,49.6754031 C67.9934684,48.6905126 68.2789376,47.5089913 68.2478297,46.3930136 L68.2478297,43.2308599 C68.2390037,38.9962795 68.2717032,34.8398305 68.2264159,30.5414427 Z M67.2306738,43.2307152 L67.2306738,46.392869 C67.2557048,47.3855726 67.0184167,48.3283588 66.5313973,49.1633526 C66.0507441,49.9951633 65.3342497,50.6866267 64.486668,51.1392104 C63.6267879,51.6011988 62.7010748,51.783795 61.6740802,51.7464655 L60.0930757,51.7464655 C59.8293096,51.7479124 59.5591773,51.7495039 59.3328855,51.7370608 L58.9099628,51.7043613 L58.513518,51.7043613 L55.3512195,51.7043613 L48.5180446,51.7043613 L48.5180446,68.6857999 L43.101943,68.6857999 L43.101943,46.5989045 L54.427098,46.5989045 L54.427098,37.2730467 L54.427098,35.34074 L54.427098,35.0662671 C54.4194295,34.9898718 54.4599421,34.8165358 54.3569243,34.9398098 L53.9293716,35.2847458 L53.0723853,35.9731707 L52.7414841,36.2292683 L52.5449979,36.3447292 C52.4107276,36.4118644 52.2716825,36.4711864 52.1265606,36.5148822 C51.8377635,36.6006821 51.5303018,36.6304878 51.2276147,36.6037205 C49.6729434,36.6380116 48.2649855,36.6129806 46.7761472,36.6209384 L37.9591567,36.6209384 L37.4080405,36.6209384 C37.2254444,36.6193468 37.1021703,36.6129806 36.9490905,36.5866474 C36.6588466,36.5351385 36.3778628,36.422716 36.1359446,36.2541546 C35.6474783,35.9187681 35.3119471,35.3722819 35.2416288,34.7854279 C35.1652336,34.1955353 35.3524597,33.5836503 35.7504961,33.1435097 C36.1421662,32.6987391 36.7243902,32.43179 37.3174659,32.4333816 L49.857131,32.4333816 L53.5826995,29.3835056 L55.3761058,27.9163704 C55.5150062,27.7899132 55.6821207,27.6947086 55.8584952,27.493303 C55.9785862,27.3636627 56.1083712,27.243427 56.2409053,27.1281108 C56.5078545,26.8986358 56.7965068,26.6957834 57.1025217,26.5240389 L57.122778,26.5131873 L57.1415874,26.4991525 C57.4039066,26.3213311 57.6927036,26.1947292 57.995246,26.1307772 L58.020277,26.1261472 L58.0435717,26.1181893 C58.5026664,25.9746589 58.9802811,25.8950806 59.4593427,25.8809012 L61.0263125,25.8778628 C61.5508061,25.8840843 62.0987391,25.8606449 62.5575444,25.9028938 C63.0351592,25.9512195 63.5065523,26.0606036 63.9513229,26.238425 C65.7525424,26.9284415 67.077594,28.7013022 67.2118644,30.6257958 C67.2493386,34.757069 67.2212691,39.0337536 67.2306738,43.2307152 Z" id="Shape"></path>
                    <path d="M56.5671765,25.7207084 L56.5726765,25.7207084 C56.6156765,25.6937084 56.6591765,25.6612084 56.7076765,25.6342084 L56.5671765,25.7207084 Z" id="Shape"></path>
                    <path d="M20.6090533,14.3186027 L19.9879082,16.1081025 L18.611203,20.0809425 L19.220773,20.5034312 L22.7896445,17.7572551 L24.4143448,16.507007 L24.5953493,16.367962 L24.7624638,16.4460934 C25.0839603,16.5887557 25.4086399,16.7254857 25.7379496,16.8494833 C28.3679413,17.8445019 31.1711244,18.2737908 33.9572344,18.2737908 C36.7417528,18.2645308 39.5449359,17.8390037 42.1749277,16.8355932 C42.5040926,16.7107276 42.8273253,16.5726953 43.1486771,16.4282968 L43.3063869,16.3549401 L43.4921662,16.4984704 L45.1154196,17.7517569 L48.3619264,20.2576064 L49.1532245,19.6856552 L47.8967549,16.1112857 L47.2692435,14.3241009 L47.1116784,13.8777387 L47.0778214,13.7776147 C47.1167425,13.7376809 47.4011988,13.4349938 47.5596321,13.2393758 C48.4150269,12.2109343 49.0331335,10.9020876 49.1111203,9.50990079 C49.2096527,8.11843737 48.7334849,6.7276974 47.9576685,5.62821414 C46.3734808,3.4056635 43.9573377,2.10622158 41.5348284,1.25082679 C39.0797644,0.408019843 36.4934684,0.0389210418 33.9197602,0.0358825961 C31.3459074,0.0396444812 28.7580198,0.408743282 26.3045473,1.25241835 C23.8821827,2.10853659 21.4660397,3.40783382 19.881852,5.63139727 C19.1061802,6.73160397 18.631604,8.1216205 18.7314386,9.51467549 C18.8157916,10.9123605 19.4493799,12.211079 20.3063663,13.2356139 C20.4156056,13.3629392 20.5232534,13.4917115 20.6387143,13.6119471 L20.7917941,13.7741422 L20.7964241,13.7787722 L20.76358,13.8718065 L20.6090533,14.3186027 Z M47.0776767,13.7771807 L47.077532,13.777036 L47.0805705,13.7739975 C47.0789789,13.7755891 47.0788342,13.7760232 47.0776767,13.7771807 Z M21.8935924,13.4336916 L21.5768706,13.1192848 L21.4598181,13.0006408 L21.3848698,12.9187474 C21.2802604,12.8118231 21.1866474,12.6979537 21.0898512,12.5855312 C20.334291,11.6786275 19.8161637,10.5899959 19.747437,9.44985531 C19.6678586,8.30957007 20.0470856,7.17102108 20.7198842,6.21101695 C22.0886317,4.27176519 24.3395411,3.01775527 26.6370401,2.21459281 C28.9642001,1.41475816 31.4458867,1.05723439 33.9197602,1.05405126 C36.3920422,1.05651095 38.8753204,1.41374535 41.2024804,2.21300124 C43.4998346,3.01529558 45.7507441,4.26945019 47.1209384,6.20783382 C47.7935924,7.16783795 48.172964,8.3056635 48.0948326,9.44826375 C48.0294337,10.5914427 47.5250517,11.6848491 46.772964,12.5923315 C46.5541959,12.8490079 46.4857586,12.9340843 45.965895,13.4477263 C45.8800951,13.4914221 45.9206077,13.5694088 45.9504134,13.6450806 L46.0299917,13.8681893 L46.1516742,14.2148615 L46.3077925,14.6620918 L46.9368954,16.4492766 L47.6221372,18.3995246 L45.7381563,16.9457007 L44.1149029,15.6922695 L43.4891277,15.2100248 L43.4390657,15.1703803 C43.420401,15.1711038 43.4,15.1865854 43.3813353,15.1936751 L43.2658743,15.247499 L43.0348078,15.3567383 L42.727346,15.502005 C42.4245143,15.6377222 42.1202356,15.7672179 41.8095907,15.8858619 C39.324721,16.8350145 36.6323687,17.2476643 33.9554981,17.2554775 C31.2802191,17.2563456 28.5894585,16.8403679 26.0999587,15.8983051 C25.7893138,15.7806738 25.4834436,15.6517569 25.1806118,15.5174866 L24.8824101,15.3785862 L24.6513435,15.2700703 L24.5341463,15.2162464 C24.4950806,15.195122 24.4561596,15.1703803 24.424907,15.2139314 L23.7927656,15.699938 L22.1680653,16.9503307 L20.2668665,18.4135593 L20.9505167,16.4421869 L21.570215,14.6519636 L21.7263332,14.2047334 L21.8496073,13.8496693 L21.9261472,13.6256924 L21.9652129,13.5141381 C21.9529144,13.4843324 21.9170318,13.4610376 21.8935924,13.4336916 Z" id="Shape"></path>
                </g>
            </g>
        </g>
    </g>
</svg>
