<?xml version="1.0" encoding="UTF-8"?>
<svg width="77px" height="72px" viewBox="0 0 77 72" version="1.1" xmlns="http://www.w3.org/2000/svg" xmlns:xlink="http://www.w3.org/1999/xlink">
    <!-- Generator: Sketch 50.2 (55047) - http://www.bohemiancoding.com/sketch -->
    <title>ic_data_active</title>
    <desc>Created with Sketch.</desc>
    <defs></defs>
    <g id="Homepage" stroke="none" stroke-width="1" fill="none" fill-rule="evenodd">
        <g id="UI_hover2" transform="translate(-788.000000, -1232.000000)" stroke="#37833F" stroke-width="2">
            <g id="ic_data_active" transform="translate(789.000000, 1233.000000)">
                <path d="M60.4384375,14.4404167 C58.1228125,14.1508333 55.9092708,14.3925 53.8623958,15.0175 C53.3686458,15.1685417 52.8623958,14.8654167 52.7040625,14.3747917 C50.1082292,6.34041667 42.5863542,0.520625 33.6863542,0.520625 C23.5207292,0.520625 15.1290625,8.10604167 13.8551042,17.9247917 C13.8051042,18.3070833 13.5009375,18.5945833 13.1176042,18.6289583 C5.48947917,19.3258333 -0.3584375,26.18 0.630104167,34.189375 C1.39885417,40.4164583 6.3978125,45.1529167 12.4592708,46.1154167 C12.9842708,46.19875 14.1853125,46.2539583 14.8498958,46.2789583 C15.0915625,46.2883333 15.2728125,46.076875 15.2353125,45.8383333 C14.5561458,41.4508333 15.4644792,36.83625 18.0582292,32.9935417 C21.4342708,27.9925 27.0436458,25.0060417 33.0644792,25.0060417 C37.3498958,25.0060417 41.5061458,26.5352083 44.7655208,29.3122917 C49.4259375,33.2820833 51.6769792,39.3372917 50.9519792,45.2695833 C50.8863542,45.8122917 51.2873958,46.295625 51.8332292,46.295625 L58.4905208,46.295625 C67.4144792,46.295625 74.6301042,38.9852083 74.4769792,30.026875 C74.3488542,22.5820833 67.8259375,15.364375 60.4384375,14.4404167 Z" id="Stroke-1"></path>
                <path d="M40.4575,49.3653125 C36.979375,53.4476042 30.829375,53.9403125 26.7470833,50.4621875 C22.6647917,46.9851042 22.173125,40.8340625 25.65125,36.7517708 C29.1283333,32.6705208 35.2783333,32.1778125 39.360625,35.6559375 C43.4429167,39.1330208 43.9345833,45.2840625 40.4575,49.3653125 Z M42.0627083,32.4840625 C35.8314583,27.1746875 26.2252083,28.3413542 21.5116667,35.3246875 C17.9283333,40.6319792 18.5220833,47.9017708 22.9158333,52.5590625 C27.5022917,57.4226042 34.5335417,58.1601042 39.88875,55.1351042 C40.6095833,54.7267708 41.5116667,54.8423958 42.110625,55.4153125 L55.71375,68.4423958 C57.6439583,70.2559375 60.698125,70.0871875 62.4147917,68.0705208 C64.1325,66.0548958 63.81375,63.0132292 61.716875,61.3965625 L46.6939583,50.0371875 C46.0283333,49.5340625 45.7783333,48.6559375 46.0679167,47.8736458 C48.0283333,42.5653125 46.6158333,36.3632292 42.0627083,32.4840625 Z" id="Stroke-3"></path>
            </g>
        </g>
    </g>
</svg>
