<?xml version="1.0" encoding="UTF-8"?>
<svg width="16px" height="13px" viewBox="0 0 16 13" version="1.1" xmlns="http://www.w3.org/2000/svg" xmlns:xlink="http://www.w3.org/1999/xlink">
    <!-- Generator: Sketch 50.2 (55047) - http://www.bohemiancoding.com/sketch -->
    <title>ic_link_arrow_right</title>
    <desc>Created with Sketch.</desc>
    <defs></defs>
    <g id="Homepage" stroke="none" stroke-width="1" fill="none" fill-rule="evenodd">
        <g id="UI_default" transform="translate(-685.000000, -2232.000000)" fill="#37833F">
            <g id="Group-13" transform="translate(197.000000, 1988.000000)">
                <g id="Group-12" transform="translate(0.000000, 72.000000)">
                    <g id="Group-11" transform="translate(408.000000, 169.000000)">
                        <g id="ic_link_arrow_right" transform="translate(80.000000, 3.000000)">
                            <g id="1A" transform="translate(7.689655, 6.500000) scale(-1, 1) translate(-7.689655, -6.500000) translate(-0.310345, 0.000000)">
                                <path d="M14.876931,5.57565517 L2.73313793,5.57565517 L7.22306897,1.16910345 C7.488,0.908655172 7.49203448,0.483241379 7.23203448,0.217862069 C6.97113793,-0.0470689655 6.54572414,-0.0506551724 6.2807931,0.208896552 L0.630724138,5.75406897 C0.502517241,5.88003448 0.429896552,6.05172414 0.429448276,6.23103448 C0.428551724,6.41034483 0.49937931,6.58293103 0.626241379,6.7097931 L6.28572414,12.3692759 C6.41706897,12.5006207 6.5892069,12.566069 6.76134483,12.566069 C6.93303448,12.566069 7.10517241,12.5006207 7.23651724,12.3692759 C7.4992069,12.1065862 7.4992069,11.6807241 7.23651724,11.4184828 L2.73851724,6.92048276 L14.876931,6.92048276 C15.2481034,6.92048276 15.5493448,6.61924138 15.5493448,6.24806897 C15.5493448,5.87644828 15.2481034,5.57565517 14.876931,5.57565517"></path>
                            </g>
                        </g>
                    </g>
                </g>
            </g>
        </g>
    </g>
</svg>
