<?xml version="1.0" encoding="UTF-8"?>
<svg width="80px" height="77px" viewBox="0 0 80 77" version="1.1" xmlns="http://www.w3.org/2000/svg" xmlns:xlink="http://www.w3.org/1999/xlink">
    <!-- Generator: Sketch 50.2 (55047) - http://www.bohemiancoding.com/sketch -->
    <title>ic_networking_active</title>
    <desc>Created with Sketch.</desc>
    <defs></defs>
    <g id="Homepage" stroke="none" stroke-width="1" fill="none" fill-rule="evenodd">
        <g id="UI_hover2" transform="translate(-162.000000, -1230.000000)" fill="#37833F" fill-rule="nonzero">
            <path d="M241.197383,1253.44209 C240.445489,1251.88756 239.042317,1250.65002 237.410423,1250.09531 C235.778176,1249.52192 233.911392,1249.63646 232.359321,1250.40474 C230.807603,1251.15399 229.569894,1252.5517 229.015709,1254.19152 C228.754035,1254.94077 228.641965,1255.73284 228.662934,1256.52773 L211.003727,1260.34941 C210.801436,1259.50659 210.51844,1258.6798 210.134476,1257.90377 C208.891304,1255.33284 206.683198,1253.25284 204.054123,1252.1406 L208.358264,1239.63892 C209.329542,1239.79099 210.347691,1239.64439 211.22822,1239.20967 C212.369013,1238.66042 213.280907,1237.63082 213.68637,1236.43064 C214.10822,1235.23064 214.022405,1233.86254 213.462405,1232.72386 C212.91333,1231.57989 211.884255,1230.67047 210.683374,1230.26236 C209.483727,1229.8465 208.112978,1229.9265 206.976942,1230.49179 C205.835621,1231.04104 204.923374,1232.07047 204.518264,1233.27064 C204.096942,1234.47082 204.182229,1235.83892 204.7417,1236.97478 C205.169013,1237.86289 205.883374,1238.60421 206.7417,1239.08439 L202.43844,1251.58077 C199.680907,1250.84474 196.6617,1251.11945 194.101348,1252.38606 C194.005665,1252.43152 193.920907,1252.48738 193.823991,1252.53795 L188.49659,1244.56157 C189.62681,1243.84967 190.512097,1242.74553 190.944343,1241.48157 C191.450951,1240.02007 191.349454,1238.35064 190.666987,1236.96403 C189.98963,1235.56932 188.741876,1234.45989 187.274916,1233.96386 C185.807779,1233.45461 184.143991,1233.5561 182.752273,1234.24104 C181.360202,1234.91064 180.250775,1236.16403 179.754211,1237.63064 C179.242669,1239.09478 179.343815,1240.76174 180.031568,1242.14817 C180.698176,1243.54571 181.957207,1244.65513 183.418705,1245.15117 C184.533418,1245.54042 185.770423,1245.57232 186.90681,1245.26042 L192.36355,1253.43399 C190.597559,1254.70359 189.189277,1256.45831 188.336414,1258.46077 L170.340643,1252.26606 C170.404784,1251.59928 170.287251,1250.91135 169.988572,1250.31117 C169.572713,1249.44721 168.794035,1248.7591 167.887427,1248.44985 C166.985929,1248.13232 165.945753,1248.19892 165.087075,1248.62306 C164.222934,1249.0391 163.535004,1249.81513 163.230863,1250.72439 C162.911039,1251.62853 162.980114,1252.66606 163.401965,1253.52456 C163.818,1254.38606 164.59615,1255.07698 165.50311,1255.38342 C166.409718,1255.69831 167.444784,1255.63417 168.303462,1255.2102 C168.905753,1254.91945 169.423991,1254.45002 169.786282,1253.88491 L187.781524,1260.07963 C187.045841,1262.83698 187.317735,1265.85584 188.581524,1268.41619 C188.74681,1268.75223 188.928308,1269.07487 189.120026,1269.39223 L174.234387,1281.16069 C173.477031,1280.44086 172.575709,1279.87011 171.588925,1279.53654 C169.796678,1278.90976 167.759145,1279.03522 166.057471,1279.87558 C164.356502,1280.6969 163.001612,1282.22747 162.393506,1284.02201 C161.769365,1285.80879 161.892361,1287.84897 162.729189,1289.54782 C163.556326,1291.25443 165.08126,1292.60632 166.878793,1293.21179 C168.665929,1293.83875 170.70311,1293.71575 172.404255,1292.87328 C174.106105,1292.05461 175.465577,1290.5235 176.069101,1288.72897 C176.698176,1286.93954 176.569894,1284.90201 175.73289,1283.20333 C175.615357,1282.95276 175.471568,1282.71258 175.321965,1282.48069 L190.117912,1270.7813 C191.338881,1272.25337 192.901524,1273.43469 194.661172,1274.1813 L192.144343,1281.4939 C191.440379,1281.42165 190.714387,1281.53919 190.085489,1281.85372 C189.189101,1282.28562 188.474564,1283.09126 188.159498,1284.02994 C187.829101,1284.97126 187.898528,1286.04086 188.330775,1286.93143 C188.763022,1287.82747 189.573066,1288.54236 190.51192,1288.85936 C191.450775,1289.18747 192.522846,1289.12069 193.413418,1288.68069 C194.309454,1288.25143 195.024343,1287.44615 195.338705,1286.50447 C195.670158,1285.56315 195.600555,1284.49091 195.163198,1283.60033 C194.854299,1282.96562 194.357912,1282.42447 193.760202,1282.05108 L196.277559,1274.73602 C198.555268,1275.3443 201.008484,1275.25884 203.237912,1274.49337 L211.372185,1297.69725 C210.374652,1298.23593 209.585048,1299.1561 209.222934,1300.23029 C208.827691,1301.36139 208.902405,1302.65743 209.435797,1303.73214 C209.958264,1304.81478 210.929542,1305.67099 212.065224,1306.05725 C213.195973,1306.45496 214.491832,1306.37478 215.569718,1305.84421 C216.646722,1305.32139 217.505401,1304.348 217.895004,1303.21214 C218.289365,1302.08104 218.209365,1300.78782 217.675973,1299.71311 C217.159145,1298.63029 216.182934,1297.77179 215.052185,1297.38765 C214.39615,1297.15839 213.686546,1297.09179 213.004079,1297.17725 L204.816942,1273.82676 C205.936942,1273.25602 206.95615,1272.49848 207.845841,1271.61055 L218.487075,1278.08298 C218.417119,1278.22694 218.34822,1278.37355 218.299762,1278.52826 C217.969542,1279.4643 218.03333,1280.53637 218.47615,1281.42958 C218.907868,1282.3228 219.713683,1283.03522 220.652361,1283.35522 C221.590687,1283.68315 222.667868,1283.61637 223.55333,1283.17654 C224.449894,1282.74694 225.164255,1281.94148 225.484431,1280.99769 C225.81007,1280.06148 225.745753,1278.98694 225.30311,1278.09619 C224.871392,1277.20298 224.066105,1276.49091 223.121612,1276.17073 C222.188925,1275.8428 221.115797,1275.90676 220.225929,1276.34941 C219.996326,1276.45901 219.782581,1276.59223 219.580467,1276.74676 L208.987868,1270.29831 C209.712802,1269.31452 210.305401,1268.22359 210.694476,1267.06095 C211.259409,1265.45813 211.441083,1263.73302 211.28126,1262.04227 L228.935357,1258.2206 C229.036854,1258.56985 229.164608,1258.9087 229.319498,1259.23399 C230.072097,1260.79417 231.468749,1262.03152 233.106458,1262.58606 C234.743815,1263.15681 236.60496,1263.04227 238.157207,1262.27399 C239.714387,1261.52491 240.95192,1260.12738 241.501524,1258.48738 C242.077383,1256.85566 241.95985,1254.99417 241.197383,1253.44209 Z M206.283727,1236.22535 C205.915621,1235.48685 205.862229,1234.60914 206.134299,1233.828 C206.400731,1233.0465 206.987515,1232.38782 207.728837,1232.03047 C208.470335,1231.66535 209.345048,1231.61196 210.12355,1231.88403 C210.902934,1232.15082 211.563727,1232.73214 211.921083,1233.47346 C212.289189,1234.21496 212.342229,1235.09214 212.070687,1235.87082 C211.804079,1236.65478 211.222053,1237.31099 210.480907,1237.67099 C209.739762,1238.03364 208.859938,1238.08967 208.081436,1237.8176 C207.302053,1237.55082 206.641083,1236.96914 206.283727,1236.22535 Z M187.189277,1243.33496 C186.197383,1243.82024 185.024343,1243.89513 183.979233,1243.53214 C182.93289,1243.17496 182.047427,1242.39346 181.573242,1241.40139 C181.082669,1240.4065 181.007779,1239.23328 181.375885,1238.188 C181.728132,1237.14254 182.512097,1236.26007 183.503815,1235.77725 C184.495709,1235.29196 185.669101,1235.21989 186.715092,1235.57989 C187.760555,1235.93725 188.645665,1236.72139 189.125489,1237.71311 C189.610775,1238.70254 189.685841,1239.88139 189.323198,1240.92421 C188.965489,1241.97232 188.187339,1242.85496 187.189277,1243.33496 Z M168.54311,1252.55399 C168.378,1253.04227 168.015533,1253.44738 167.551216,1253.67399 C167.087075,1253.90077 166.548749,1253.93284 166.057471,1253.76474 C165.572361,1253.59945 165.161788,1253.23681 164.937824,1252.77284 C164.713859,1252.31152 164.682141,1251.77002 164.847427,1251.28192 C165.018,1250.79135 165.375533,1250.38606 165.838969,1250.16192 C166.30311,1249.93549 166.847427,1249.90077 167.332713,1250.07117 C167.817824,1250.23646 168.228749,1250.59646 168.452713,1251.05813 C168.681965,1251.52192 168.713859,1252.06606 168.54311,1252.55399 Z M174.453242,1288.17161 C173.989101,1289.54518 172.959498,1290.70518 171.653066,1291.33725 C170.351392,1291.97725 168.804431,1292.07328 167.433859,1291.5961 C166.057471,1291.13179 164.900467,1290.10236 164.271392,1288.79575 C163.630863,1287.49725 163.53518,1285.95047 164.009894,1284.57954 C164.479145,1283.20615 165.503286,1282.04315 166.810246,1281.41143 C168.111392,1280.77161 169.658352,1280.67822 171.028749,1281.15522 C172.404608,1281.61954 173.562493,1282.64914 174.196854,1283.95558 C174.836854,1285.25672 174.932537,1286.8035 174.453242,1288.17161 Z M193.722846,1285.94747 C193.547339,1286.46747 193.157912,1286.905 192.667163,1287.14201 C192.165313,1287.38483 191.589982,1287.42218 191.066987,1287.24104 C190.549806,1287.06236 190.112449,1286.67558 189.872449,1286.18218 C189.632097,1285.68914 189.595092,1285.10747 189.775885,1284.58729 C189.952273,1284.06765 190.3417,1283.63276 190.832802,1283.39011 C191.328484,1283.15011 191.90963,1283.11276 192.427163,1283.29408 C192.949806,1283.47029 193.387515,1283.8569 193.627339,1284.35276 C193.867163,1284.84615 193.903991,1285.42765 193.722846,1285.94747 Z M212.299762,1299.14024 C212.977295,1298.80685 213.776942,1298.75628 214.491832,1299.00685 C215.211656,1299.24932 215.809718,1299.78289 216.140114,1300.46289 C216.470863,1301.14306 216.524608,1301.94289 216.273683,1302.65778 C216.033683,1303.37478 215.494652,1303.97531 214.816766,1304.30324 C214.139762,1304.6391 213.334828,1304.68967 212.625048,1304.4391 C211.905577,1304.19646 211.307515,1303.66342 210.976766,1302.98306 C210.641083,1302.30324 210.592978,1301.50306 210.843727,1300.78835 C211.084255,1300.06835 211.616942,1299.47082 212.299762,1299.14024 Z M219.916502,1279.08315 C220.092009,1278.56298 220.481436,1278.12844 220.971656,1277.88844 C221.468044,1277.6458 222.049365,1277.60861 222.566546,1277.78994 C223.089894,1277.9658 223.52637,1278.3524 223.761436,1278.84861 C224.007075,1279.34201 224.043903,1279.92333 223.862934,1280.44315 C223.687075,1280.96333 223.302581,1281.39787 222.806546,1281.63787 C222.310863,1281.88069 221.728837,1281.91804 221.212009,1281.7339 C220.689894,1281.55787 220.257295,1281.17126 220.017647,1280.67804 C219.772185,1280.18447 219.734828,1279.60597 219.916502,1279.08315 Z M209.078617,1266.50659 C208.209013,1269.05848 206.294299,1271.22395 203.862053,1272.39751 C201.446194,1273.58958 198.560731,1273.76826 196.010951,1272.87769 C193.456238,1272.01372 191.296414,1270.09637 190.122493,1267.66676 C188.928132,1265.24544 188.752273,1262.36245 189.637735,1259.8132 C190.506987,1257.25848 192.4217,1255.09831 194.854299,1253.92227 C197.270511,1252.73002 200.155621,1252.5517 202.705048,1253.44209 C205.259762,1254.30606 207.42452,1256.22359 208.592978,1258.65302 C209.787515,1261.07187 209.969189,1263.9598 209.078617,1266.50659 Z M239.885313,1257.9302 C239.474564,1259.14888 238.562493,1260.17831 237.404608,1260.73848 C236.247603,1261.30641 234.876678,1261.3917 233.665753,1260.96791 C232.444784,1260.55452 231.420819,1259.64245 230.860819,1258.48491 C230.289718,1257.33284 230.21007,1255.96245 230.631744,1254.74606 C231.042141,1253.5302 231.953859,1252.50077 233.111216,1251.9406 C234.269101,1251.37531 235.633683,1251.28985 236.850423,1251.71117 C238.07192,1252.12721 239.095885,1253.03663 239.655709,1254.19399 C240.226458,1255.34606 240.306634,1256.71681 239.885313,1257.9302 Z" id="ic_networking_active"></path>
        </g>
    </g>
</svg>
