<?xml version="1.0" encoding="UTF-8"?>
<svg width="72px" height="68px" viewBox="0 0 72 68" version="1.1" xmlns="http://www.w3.org/2000/svg" xmlns:xlink="http://www.w3.org/1999/xlink">
    <!-- Generator: Sketch 50.2 (55047) - http://www.bohemiancoding.com/sketch -->
    <title>ic_operations</title>
    <desc>Created with Sketch.</desc>
    <defs></defs>
    <g id="Homepage" stroke="none" stroke-width="1" fill="none" fill-rule="evenodd" stroke-linecap="round">
        <g id="UI_default" transform="translate(-687.000000, -1441.000000)" stroke="#000000" stroke-width="2">
            <g id="ic_operations" transform="translate(688.000000, 1442.000000)">
                <g id="Group-24">
                    <path d="M57.3404255,31.1276596 C60.6914894,24.6489362 59.6489362,16.5319149 54.212766,11.1702128 C47.5106383,4.46808511 36.712766,4.46808511 30.0106383,11.1702128 C23.3085106,17.8723404 23.3085106,28.6702128 30.0106383,35.3723404 C35.2978723,40.6595745 43.1170213,41.7765957 49.5212766,38.7234043 L51.9042553,37.8297872" id="Shape"></path>
                    <path d="M24.2021277,48.5531915 L8.93617021,63.8191489 C6.92553191,65.8297872 3.57446809,65.8297872 1.56382979,63.8191489 C-0.446808511,61.8085106 -0.446808511,58.4574468 1.56382979,56.4468085 L16.8297872,41.1808511 C18.0212766,39.9893617 19.8829787,39.9893617 21.0744681,41.1808511 L24.2021277,44.3085106 C25.393617,45.5 25.393617,47.3617021 24.2021277,48.5531915 Z" id="Shape"></path>
                    <path d="M61.7340426,35.5212766 C67.3191489,26.5851064 66.2021277,14.7446809 58.4574468,7 C49.4468085,-2.0106383 34.8510638,-2.0106383 25.8404255,7 C17.5,15.2659574 16.8297872,28.2978723 23.8297872,37.3829787 L20.4787234,40.7340426" id="Shape"></path>
                    <path d="M24.6489362,44.9042553 L28,41.5531915 C35.5957447,47.4361702 45.9468085,47.8829787 53.9893617,43.0425532 L56.893617,41.0319149" id="Shape"></path>
                    <path d="M60.5425532,49.0744681 L61.0638298,49.5957447 C63.0744681,51.606383 66.4255319,51.606383 68.4361702,49.5957447 C70.4468085,47.5851064 70.4468085,44.2340426 68.4361702,42.2234043 L61.7340426,35.5212766 L52.7978723,26.5851064 C53.9893617,22.6382979 53.0212766,18.0957447 49.6702128,15.0425532 C45.5,11.1702128 38.7978723,11.1702128 34.6276596,15.0425532 C29.8617021,19.3617021 29.787234,26.7340426 34.2553191,31.2021277 C37.3085106,34.2553191 41.6276596,35.1489362 45.4255319,33.9574468 L47.8085106,36.3404255" id="Shape"></path>
                    <path d="M55.7765957,44.3085106 L57.2659574,45.7978723" id="Shape"></path>
                    <path d="M51.3085106,39.8404255 L52.5,41.0319149" id="Shape"></path>
                    <path d="M52.5,41.0319149 L54.8829787,39.9893617 C56.1489362,39.4680851 57.3404255,40.7340426 56.8191489,41.9255319 L55.7765957,44.3085106" id="Shape"></path>
                    <path d="M47.7340426,36.2659574 L50.1170213,35.2234043 C51.3829787,34.7021277 52.5744681,35.9680851 52.0531915,37.1595745 L51.3085106,39.7659574" id="Shape"></path>
                    <path d="M57.2659574,45.7978723 L59.6489362,44.7553191 C60.9148936,44.2340426 62.106383,45.5 61.5851064,46.6914894 L60.5425532,49.0744681" id="Shape"></path>
                    <ellipse id="Oval" cx="42.0757447" cy="23.3085106" rx="2.98000002" ry="2.9787234"></ellipse>
                </g>
            </g>
        </g>
    </g>
</svg>
