<?xml version="1.0" encoding="UTF-8"?>
<svg width="73px" height="73px" viewBox="0 0 73 73" version="1.1" xmlns="http://www.w3.org/2000/svg" xmlns:xlink="http://www.w3.org/1999/xlink">
    <!-- Generator: Sketch 50.2 (55047) - http://www.bohemiancoding.com/sketch -->
    <title>ic_software</title>
    <desc>Created with Sketch.</desc>
    <defs></defs>
    <g id="Homepage" stroke="none" stroke-width="1" fill="none" fill-rule="evenodd">
        <g id="UI_default" transform="translate(-1001.000000, -1231.000000)">
            <g id="ic_software" transform="translate(1002.000000, 1232.000000)">
                <g id="Group-5" transform="translate(0.000000, 0.029356)">
                    <path d="M62.7968092,47.4217845 C62.7968092,48.3474918 62.0457977,49.0967023 61.1218914,49.0967023 L8.71317434,49.0967023 C7.78746711,49.0967023 7.03825658,48.3474918 7.03825658,47.4217845 L7.03825658,8.39980263 C7.03825658,7.47409539 7.78746711,6.72488487 8.71317434,6.72488487 L61.1218914,6.72488487 C62.0457977,6.72488487 62.7968092,7.47409539 62.7968092,8.39980263 L62.7968092,47.4217845 Z M68.3888734,0 L1.88023026,0 C0.841060855,0 0,0.841060855 0,1.87842928 L0,55.2290625 C0,56.2664309 0.841060855,57.1092928 1.88023026,57.1092928 L24.6014803,57.1092928 C25.7631168,57.1092928 26.6474013,58.1538651 26.4546957,59.3010938 L26.144926,61.1290954 C25.9918421,62.0331908 25.2102138,62.6959539 24.2935115,62.6959539 L22.3340378,62.6959539 C21.2966694,62.6959539 20.4538076,63.5370148 20.4538076,64.5743832 L20.4538076,68.3888734 C20.4538076,69.4262418 21.2966694,70.2691036 22.3340378,70.2691036 L47.9350658,70.2691036 C48.9724342,70.2691036 49.8152961,69.4262418 49.8152961,68.3888734 L49.8152961,64.5743832 C49.8152961,63.5370148 48.9724342,62.6959539 47.9350658,62.6959539 L45.9755921,62.6959539 C45.0588898,62.6959539 44.2754605,62.0331908 44.1223766,61.1290954 L43.8144079,59.3010938 C43.6217023,58.1538651 44.5041859,57.1092928 45.6676234,57.1092928 L68.3888734,57.1092928 C69.4280428,57.1092928 70.2673026,56.2664309 70.2673026,55.2290625 L70.2673026,1.87842928 C70.2673026,0.841060855 69.4280428,0 68.3888734,0 Z" id="Fill-3" stroke="#000000" stroke-width="2"></path>
                    <text id="&lt;/&gt;" font-family="Montserrat-Bold, Montserrat" font-size="16" font-weight="bold" letter-spacing="0.3612903" fill="#000000">
                        <tspan x="20.0846698" y="35">&lt;/&gt;</tspan>
                    </text>
                </g>
            </g>
        </g>
    </g>
</svg>
