<?xml version="1.0" encoding="UTF-8"?>
<svg width="70px" height="70px" viewBox="0 0 70 70" version="1.1" xmlns="http://www.w3.org/2000/svg" xmlns:xlink="http://www.w3.org/1999/xlink">
    <!-- Generator: Sketch 50.2 (55047) - http://www.bohemiancoding.com/sketch -->
    <title>ic_security</title>
    <desc>Created with Sketch.</desc>
    <defs></defs>
    <g id="Homepage" stroke="none" stroke-width="1" fill="none" fill-rule="evenodd">
        <g id="UI_default" transform="translate(-184.000000, -1440.000000)" fill="#000000" fill-rule="nonzero">
            <g id="ic_security" transform="translate(184.000000, 1440.000000)">
                <path d="M0.790740741,13.1314815 C0.362962963,13.1314815 0.012962963,12.7814815 0.012962963,12.3537037 L0.012962963,3.68148148 C0.012962963,1.71111111 1.62037037,0.103703704 3.59074074,0.103703704 L12.262963,0.103703704 C12.6907407,0.103703704 13.0407407,0.453703704 13.0407407,0.881481481 C13.0407407,1.30925926 12.6907407,1.65925926 12.262963,1.65925926 L3.59074074,1.65925926 C2.47592593,1.65925926 1.56851852,2.56666667 1.56851852,3.68148148 L1.56851852,12.3537037 C1.56851852,12.7814815 1.21851852,13.1314815 0.790740741,13.1314815 Z" id="Shape"></path>
                <path d="M69.0148148,13.1314815 C68.587037,13.1314815 68.237037,12.7814815 68.237037,12.3537037 L68.237037,3.68148148 C68.237037,2.56666667 67.3296296,1.65925926 66.2148148,1.65925926 L57.5425926,1.65925926 C57.1148148,1.65925926 56.7648148,1.30925926 56.7648148,0.881481481 C56.7648148,0.453703704 57.1148148,0.103703704 57.5425926,0.103703704 L66.2148148,0.103703704 C68.1851852,0.103703704 69.7925926,1.71111111 69.7925926,3.68148148 L69.7925926,12.3537037 C69.7925926,12.7814815 69.4425926,13.1314815 69.0148148,13.1314815 Z" id="Shape"></path>
                <path d="M66.2018519,69.8833333 L57.5296296,69.8833333 C57.1018519,69.8833333 56.7518519,69.5333333 56.7518519,69.1055556 C56.7518519,68.6777778 57.1018519,68.3277778 57.5296296,68.3277778 L66.2018519,68.3277778 C67.3166667,68.3277778 68.2240741,67.4203704 68.2240741,66.3055556 L68.2240741,57.6333333 C68.2240741,57.2055556 68.5740741,56.8555556 69.0018519,56.8555556 C69.4296296,56.8555556 69.7796296,57.2055556 69.7796296,57.6333333 L69.7796296,66.3055556 C69.7925926,68.2759259 68.1851852,69.8833333 66.2018519,69.8833333 Z" id="Shape"></path>
                <path d="M12.262963,69.8833333 L3.59074074,69.8833333 C1.62037037,69.8833333 0.012962963,68.2759259 0.012962963,66.3055556 L0.012962963,57.6333333 C0.012962963,57.2055556 0.362962963,56.8555556 0.790740741,56.8555556 C1.21851852,56.8555556 1.56851852,57.2055556 1.56851852,57.6333333 L1.56851852,66.3055556 C1.56851852,67.4203704 2.47592593,68.3277778 3.59074074,68.3277778 L12.262963,68.3277778 C12.6907407,68.3277778 13.0407407,68.6777778 13.0407407,69.1055556 C13.0407407,69.5333333 12.6907407,69.8833333 12.262963,69.8833333 Z" id="Shape"></path>
                <path d="M15.8018519,26.1592593 C15.387037,26.1592593 15.037037,25.8222222 15.0240741,25.3944444 C14.9592593,22.9444444 16.5018519,18.0185185 19.4574074,13.7018519 C22.037037,9.94259259 26.5092593,5.43148148 33.1722222,5.27592593 C38.7333333,5.13333333 43.5944444,6.48148148 47.6,9.25555556 C50.9962963,11.6018519 53.8351852,14.9592593 56.3111111,19.5222222 C56.5185185,19.8981481 56.3759259,20.3777778 56,20.5722222 C55.6240741,20.7796296 55.1444444,20.637037 54.95,20.2611111 C49.8685185,10.862963 42.9592593,6.59814815 33.2240741,6.83148148 C27.2092593,6.97407407 23.1259259,11.1351852 20.7537037,14.5833333 C17.8111111,18.8740741 16.5537037,23.462963 16.5925926,25.3555556 C16.6055556,25.7833333 16.2685185,26.1462963 15.8277778,26.1462963 C15.8148148,26.1592593 15.8018519,26.1592593 15.8018519,26.1592593 Z" id="Shape"></path>
                <path d="M54.2111111,27.6888889 C53.9259259,27.6888889 53.6537037,27.5333333 53.5240741,27.2740741 C50.412963,21.3111111 45.6425926,17.137037 39.3166667,14.8814815 C34.6111111,13.1962963 30.8,13.2740741 30.7611111,13.2740741 C30.3333333,13.287037 29.9703704,12.95 29.9703704,12.5092593 C29.9574074,12.0814815 30.2944444,11.7185185 30.7351852,11.7185185 C30.9037037,11.7185185 34.8703704,11.6407407 39.8611111,13.4166667 C44.462963,15.062963 50.8148148,18.6796296 54.9240741,26.5611111 C55.1185185,26.937037 54.9759259,27.4166667 54.6,27.6111111 C54.4574074,27.65 54.3407407,27.6888889 54.2111111,27.6888889 Z" id="Shape"></path>
                <path d="M53.4203704,48.3259259 C53.3296296,48.3259259 53.2259259,48.312963 53.1351852,48.2740741 C52.4222222,47.9888889 35.712963,41.3518519 33.2111111,33.3666667 C32.5888889,31.3703704 32.8740741,29.4518519 34.0796296,27.662963 C35.2333333,25.9388889 36.737037,24.9666667 38.5518519,24.7722222 C43.4388889,24.2277778 49.5833333,29.387037 54.95,34.4944444 C55.2611111,34.7925926 55.2740741,35.2851852 54.9759259,35.5962963 C54.6777778,35.9074074 54.1851852,35.9203704 53.8740741,35.6222222 C49.0648148,31.0462963 42.9851852,25.8481481 38.7203704,26.3148148 C37.3592593,26.4703704 36.2703704,27.1833333 35.3759259,28.5314815 C34.4425926,29.9314815 34.2222222,31.3574074 34.7018519,32.912963 C36.9833333,40.1851852 53.537037,46.7574074 53.7055556,46.8222222 C54.1074074,46.9777778 54.3018519,47.4314815 54.1462963,47.8333333 C54.0296296,48.1444444 53.7314815,48.3259259 53.4203704,48.3259259 Z" id="Shape"></path>
                <path d="M54.5740741,42.2333333 C54.4574074,42.2333333 54.3277778,42.2074074 54.2240741,42.1425926 C53.7833333,41.9222222 43.4648148,36.5814815 39.7574074,32.6407407 C39.4592593,32.3296296 39.4851852,31.837037 39.7962963,31.5388889 C40.1074074,31.2407407 40.6,31.2666667 40.8981481,31.5777778 C44.4240741,35.3240741 54.8333333,40.7166667 54.937037,40.7685185 C55.312963,40.962963 55.4685185,41.4296296 55.2740741,41.8185185 C55.1314815,42.0777778 54.8592593,42.2333333 54.5740741,42.2333333 Z" id="Shape"></path>
                <path d="M51.787037,53.7962963 C51.6833333,53.7962963 51.5796296,53.7703704 51.4888889,53.7314815 C51.0351852,53.537037 40.1722222,48.9092593 34.2481481,44.5796296 C31.2018519,42.35 29.2185185,44.5537037 26.25,48.312963 C24.7203704,50.2574074 23.1259259,52.2796296 21.1814815,53.3555556 C20.8055556,53.562963 20.3259259,53.4333333 20.1185185,53.0574074 C19.9111111,52.6814815 20.0407407,52.2018519 20.4166667,51.9944444 C22.0888889,51.0740741 23.5796296,49.1814815 25.0185185,47.3537037 C27.7018519,43.9444444 30.7481481,40.0944444 35.1555556,43.3222222 C40.937037,47.5481481 51.9814815,52.2537037 52.0851852,52.3055556 C52.487037,52.4740741 52.6685185,52.9277778 52.5,53.3296296 C52.3703704,53.6148148 52.0851852,53.7962963 51.787037,53.7962963 Z" id="Shape"></path>
                <path d="M23.9425926,60.537037 C23.6833333,60.537037 23.4240741,60.4074074 23.2814815,60.1611111 C23.0611111,59.7981481 23.1648148,59.3185185 23.5407407,59.0851852 C25.7444444,57.7240741 26.8074074,56.0907407 27.7407407,54.6518519 C28.9722222,52.7592593 30.1388889,50.9703704 33.3407407,50.8925926 C33.3796296,50.8925926 33.4314815,50.8925926 33.4703704,50.8925926 C38.7592593,50.8925926 46.1481481,58.3462963 46.4722222,58.6703704 C46.7703704,58.9814815 46.7703704,59.4740741 46.4592593,59.7722222 C46.1481481,60.0703704 45.6555556,60.0703704 45.3574074,59.7592593 C45.2796296,59.6814815 38.0074074,52.3314815 33.3666667,52.4481481 C30.9814815,52.512963 30.2166667,53.7055556 29.037037,55.5074074 C28.0648148,57.0111111 26.8462963,58.8777778 24.3444444,60.4203704 C24.2277778,60.4981481 24.0851852,60.537037 23.9425926,60.537037 Z" id="Shape"></path>
                <path d="M28.9722222,65.5537037 C28.712963,65.5537037 28.4537037,65.4240741 28.3111111,65.1777778 C28.0907407,64.8148148 28.1944444,64.3351852 28.5703704,64.1018519 C29.6074074,63.4666667 30.2296296,62.5981481 30.8259259,61.7685185 C31.6685185,60.6018519 32.55,59.3833333 34.3648148,59.3444444 C37.2037037,59.2796296 40.7166667,63.5185185 41.1055556,63.9981481 C41.3777778,64.3351852 41.3259259,64.8277778 40.9888889,65.087037 C40.6518519,65.3592593 40.1592593,65.3074074 39.9,64.9703704 C38.6166667,63.3888889 36.0111111,60.9 34.4296296,60.9 C34.4166667,60.9 34.4037037,60.9 34.3907407,60.9 C33.3925926,60.9259259 32.912963,61.5222222 32.0703704,62.6888889 C31.4092593,63.5962963 30.6574074,64.6333333 29.3611111,65.437037 C29.2574074,65.5277778 29.1148148,65.5537037 28.9722222,65.5537037 Z" id="Shape"></path>
                <path d="M17.3833333,46.8740741 C17.1111111,46.8740741 16.8388889,46.7314815 16.6962963,46.4592593 C16.4888889,46.0833333 16.6314815,45.6037037 17.0074074,45.4092593 C17.0722222,45.3703704 23.6185185,41.7666667 24.8240741,34.7666667 C26.1462963,27.1055556 28.5703704,22.2055556 32.0574074,20.1962963 C34.2481481,18.9259259 36.8148148,18.8222222 39.6925926,19.8851852 C40.0944444,20.0277778 40.3018519,20.4814815 40.1592593,20.8833333 C40.0166667,21.2851852 39.562963,21.4925926 39.1611111,21.35 C36.6981481,20.4425926 34.637037,20.5074074 32.8351852,21.5444444 C29.7759259,23.3074074 27.5981481,27.8444444 26.3537037,35.0259259 C25.0185185,42.7907407 18.0444444,46.6148148 17.7462963,46.7703704 C17.6296296,46.8481481 17.512963,46.8740741 17.3833333,46.8740741 Z" id="Shape"></path>
                <path d="M15.3351852,39.1092593 C15.0888889,39.1092593 14.8555556,38.9925926 14.7,38.7851852 C14.4537037,38.4351852 14.5314815,37.9555556 14.8685185,37.7092593 C14.9333333,37.6574074 17.9407407,35.2074074 19.6777778,25.1740741 C20.637037,19.6518519 24.7203704,16.787037 24.8888889,16.6703704 C25.2388889,16.4240741 25.7314815,16.5148148 25.9648148,16.8777778 C26.2111111,17.2277778 26.1203704,17.7203704 25.7574074,17.9537037 C25.7185185,17.9796296 22.037037,20.5851852 21.1944444,25.4462963 C19.3407407,36.2962963 15.9444444,38.862963 15.7888889,38.9666667 C15.6592593,39.0703704 15.5037037,39.1092593 15.3351852,39.1092593 Z" id="Shape"></path>
            </g>
        </g>
    </g>
</svg>
