<?xml version="1.0" encoding="UTF-8"?>
<svg width="18px" height="18px" viewBox="0 0 18 18" version="1.1" xmlns="http://www.w3.org/2000/svg" xmlns:xlink="http://www.w3.org/1999/xlink">
    <!-- Generator: Sketch 50.2 (55047) - http://www.bohemiancoding.com/sketch -->
    <title>ic_search</title>
    <desc>Created with Sketch.</desc>
    <defs></defs>
    <g id="UI--Category_Rearch-Result-Page-Copy" stroke="none" stroke-width="1" fill="none" fill-rule="evenodd">
        <g id="VS01" transform="translate(-1068.000000, -31.000000)" fill="#37833F">
            <g id="HEADER_OtherPages">
                <g id="HEADER">
                    <g id="Group-2" transform="translate(763.000000, 19.000000)">
                        <g id="ic_search" transform="translate(305.000000, 12.000000)">
                            <path d="M10.6846154,12.9978947 C9.15461538,12.9978947 7.76676923,12.3678947 6.75230769,11.3447368 C6.75092308,11.3447368 6.75046154,11.34 6.74907692,11.34 C6.74676923,11.34 6.74353846,11.3352632 6.74123077,11.3352632 C5.70738462,10.2884211 5.06446154,8.83421053 5.06446154,7.23315789 C5.06446154,4.05 7.58584615,1.46368421 10.6846154,1.46368421 C13.7833846,1.46368421 16.3047692,4.05 16.3047692,7.23315789 C16.3047692,10.4115789 13.7833846,12.9978947 10.6846154,12.9978947 Z M10.6846154,0.0426315789 C6.82246154,0.0426315789 3.67984615,3.26842105 3.67984615,7.23315789 C3.67984615,8.97631579 4.28953846,10.5773684 5.29984615,11.8231579 L0.522461538,16.7257895 C0.252,17.0052632 0.252,17.4505263 0.522461538,17.73 C0.657692308,17.8673684 0.834923077,17.9384211 1.01215385,17.9384211 C1.18938462,17.9384211 1.36615385,17.8673684 1.50138462,17.73 L6.28707692,12.8178947 C7.49030769,13.8173684 9.01984615,14.4189474 10.6846154,14.4189474 C14.5472308,14.4189474 17.6893846,11.1931579 17.6893846,7.23315789 C17.6893846,3.26842105 14.5472308,0.0426315789 10.6846154,0.0426315789 Z" id="6F"></path>
                        </g>
                    </g>
                </g>
            </g>
        </g>
    </g>
</svg>
