<?xml version="1.0" encoding="UTF-8"?>
<svg width="59px" height="73px" viewBox="0 0 59 73" version="1.1" xmlns="http://www.w3.org/2000/svg" xmlns:xlink="http://www.w3.org/1999/xlink">
    <!-- Generator: Sketch 50.2 (55047) - http://www.bohemiancoding.com/sketch -->
    <title>ic_training_active</title>
    <desc>Created with Sketch.</desc>
    <defs></defs>
    <g id="Homepage" stroke="none" stroke-width="1" fill="none" fill-rule="evenodd">
        <g id="UI_hover2" transform="translate(-944.000000, -1438.000000)" stroke="#37833F" stroke-width="2">
            <path d="M983.096672,1470.69924 L962.137672,1470.69924 C958.596672,1470.69924 955.540672,1468.00524 955.323672,1464.47024 C955.097672,1460.81724 957.827672,1457.75924 961.349672,1457.43824 C961.532672,1457.42224 961.677672,1457.28524 961.700672,1457.10224 C962.311672,1452.39424 966.333672,1448.75924 971.207672,1448.75924 C975.472672,1448.75924 979.078672,1451.54824 980.322672,1455.39924 C980.398672,1455.63524 980.641672,1455.77924 980.877672,1455.70724 C981.859672,1455.40724 982.921672,1455.29224 984.031672,1455.43024 C987.779672,1455.90024 990.695672,1459.12724 990.758672,1462.90324 C990.831672,1467.19624 987.372672,1470.69924 983.096672,1470.69924 M999.864672,1475.23324 C998.502672,1472.25524 996.751672,1469.42024 997.738672,1466.29724 C999.209672,1461.63924 998.964672,1456.46024 997.058672,1451.96224 C995.153672,1447.46424 991.602672,1443.68424 987.233672,1441.50124 C979.516672,1437.64624 970.093672,1438.65524 962.048672,1441.76724 C958.116672,1443.29024 952.512672,1447.62824 949.949672,1451.98924 C947.589672,1456.00524 944.923672,1460.17224 945.001672,1464.82824 C945.107672,1471.21124 949.922672,1476.39324 952.528672,1482.22024 C953.868672,1485.21424 954.637672,1488.46224 954.785672,1491.73924 C954.815672,1492.40624 955.136672,1493.01624 955.668672,1493.42024 C959.128672,1496.04424 961.747672,1499.27324 964.648672,1502.58124 C966.919672,1505.16924 969.285672,1507.75124 972.101672,1509.70324 C972.970672,1510.30524 974.167672,1509.95324 974.612672,1508.99424 C976.259672,1505.44324 978.087672,1501.97524 980.087672,1498.60924 C980.325672,1498.20924 980.584672,1497.79124 980.994672,1497.56924 C981.486672,1497.30424 982.084672,1497.37924 982.636672,1497.46624 C984.915672,1497.82724 987.223672,1498.29724 989.512672,1497.99824 C991.801672,1497.70124 994.123672,1496.46124 995.010672,1494.33124 C995.742672,1492.57324 995.428672,1490.43324 996.496672,1488.85724 C996.755672,1488.47324 997.096672,1488.12424 997.199672,1487.67324 C997.356672,1486.98224 996.948672,1486.12024 997.451672,1485.62124 C997.615672,1485.46024 997.844672,1485.38224 998.019672,1485.23224 C998.534672,1484.79524 998.396672,1483.98624 998.268672,1483.32424 C998.140672,1482.66124 998.177672,1481.78924 998.806672,1481.54524 C998.959672,1481.48524 999.126672,1481.47524 999.287672,1481.44524 C1000.47767,1481.21924 1001.14467,1479.84624 1001.06367,1478.63824 C1000.98367,1477.43024 1000.36867,1476.33524 999.864672,1475.23324" id="ic_training_active"></path>
        </g>
    </g>
</svg>
