<svg xmlns="http://www.w3.org/2000/svg" width="17" height="17" viewBox="0 0 17 17">
  <path id="info2" d="M11.5,3A8.5,8.5,0,1,0,20,11.5,8.5,8.5,0,0,0,11.5,3Zm1.333,11.627c-.641.963-1.294,1.705-2.392,1.705-.749-.122-1.057-.659-.9-1.206l1.412-4.678a.221.221,0,0,0-.127-.274c-.1-.037-.308.1-.484.292l-.854,1.027a4.811,4.811,0,0,1,0-.573A3.644,3.644,0,0,1,11.9,9.2a.961.961,0,0,1,.883,1.21l-1.422,4.7a.22.22,0,0,0,.133.248c.1.037.324-.1.5-.292l.853-1.027A4.734,4.734,0,0,1,12.833,14.627Zm-.19-6.11a.973.973,0,1,1,.978-.973A.95.95,0,0,1,12.643,8.518Z" transform="translate(-3 -3)" fill="#26c0e2"/>
</svg>
