<svg xmlns="http://www.w3.org/2000/svg" width="17" height="17" viewBox="0 0 17 17">
  <g id="noun_pending_2931152" transform="translate(-2.5 -2.5)">
    <path id="Path_15552" data-name="Path 15552" d="M14.328,7.546V5.095A2.6,2.6,0,0,0,11.734,2.5H5.095A2.6,2.6,0,0,0,2.5,5.095v6.639a2.6,2.6,0,0,0,2.595,2.595H7.546a6.006,6.006,0,1,0,6.782-6.782Zm-1.664,0a6.036,6.036,0,0,0-5.118,5.118H5.095a.924.924,0,0,1-.931-.931V5.095a.924.924,0,0,1,.931-.931h6.639a.924.924,0,0,1,.931.931Zm3.364,6.6H13.487a.661.661,0,0,1-.662-.662V10.356a.661.661,0,0,1,.662-.662.672.672,0,0,1,.662.662v2.469h1.879a.662.662,0,0,1,0,1.324Z" fill="#26c0e2"/>
  </g>
</svg>
