<svg xmlns="http://www.w3.org/2000/svg" width="21.415" height="21.502" viewBox="0 0 21.415 21.502">
  <g id="Group_2569" data-name="Group 2569" transform="translate(-24.335 -410)">
    <path id="Subtraction_9" data-name="Subtraction 9" d="M12866.53,20645h0l-8.524-4.037v-8.6l8.529,3.611V20645Zm.629-3.52h0v-5.508l8.5-3.611v5.271a5.935,5.935,0,0,0-2.689-.635A6,6,0,0,0,12867.159,20641.484Zm-.354-5.979v0l-8.753-3.736,8.747-3.768,8.841,3.764-8.835,3.74Z" transform="translate(-12833.666 -20218)" fill="#26c0e2"/>
    <g id="Ellipse_350" data-name="Ellipse 350" transform="translate(32.85 418.602)" fill="none" stroke="#f0f4f2" stroke-width="1">
      <circle cx="6.45" cy="6.45" r="6.45" stroke="none"/>
      <circle cx="6.45" cy="6.45" r="5.95" fill="none"/>
    </g>
    <path id="Subtraction_10" data-name="Subtraction 10" d="M12864,20640a6,6,0,1,1,6-6A6.011,6.011,0,0,1,12864,20640Zm.031-8.895v.83a2.219,2.219,0,1,0,2.3,2.133h-.989a1.315,1.315,0,1,1-2.631,0,1.3,1.3,0,0,1,1.315-1.145v.813l1.647-1.154v-.16l-1.647-1.316Z" transform="translate(-12824.699 -20209)" fill="#26c0e2"/>
  </g>
</svg>
